<?xml version="1.0" standalone="yes"?>
<!DOCTYPE svg PUBLIC "-//W3C//DTD SVG 1.1//EN"
 "http://www.w3.org/Graphics/SVG/1.1/DTD/svg11.dtd">
<svg xmlns="http://www.w3.org/2000/svg" version="1.1"
  width="100%" height="100%" viewBox="0 0 1024 768"
  style="fill: none; stroke-width: 2; font-family: Helvetica;
 font: Helvetica;
">

<!-- Creator: NGspice -->

<rect x="0" y="0" width="1024" height="768" fill="black" stroke="none"/>
<text stroke="none" fill="white" font-size="16" x="358" y="752">
time
</text>
<text stroke="none" fill="white" font-size="16" x="10" y="16">
tran1: * spice circuit: bicycle dynamo with mosfet bridge and storage capacitor.
</text>
<path stroke="white" stroke-width="2" d="M60 720l0 -670"/>
<text stroke="none" fill="white" font-size="16" x="45" y="728">
0.0
</text>
<path stroke="white" stroke-width="2" stroke-dasharray="1,2" d="M210 720l0 -670"/>
<text stroke="none" fill="white" font-size="16" x="190" y="728">
50.0
</text>
<path stroke="white" stroke-width="2" stroke-dasharray="1,2" d="M360 720l0 -670"/>
<text stroke="none" fill="white" font-size="16" x="335" y="728">
100.0
</text>
<path stroke="white" stroke-width="2" stroke-dasharray="1,2" d="M510 720l0 -670"/>
<text stroke="none" fill="white" font-size="16" x="485" y="728">
150.0
</text>
<path stroke="white" stroke-width="2" stroke-dasharray="1,2" d="M660 720l0 -670"/>
<text stroke="none" fill="white" font-size="16" x="635" y="728">
200.0
</text>
<path stroke="white" stroke-width="2" stroke-dasharray="1,2" d="M810 720l0 -670"/>
<text stroke="none" fill="white" font-size="16" x="785" y="728">
250.0
</text>
<path stroke="white" stroke-width="2" stroke-dasharray="1,2" d="M960 720l0 -670"/>
<text stroke="none" fill="white" font-size="16" x="935" y="728">
300.0
</text>
<text stroke="none" fill="white" font-size="16" x="614" y="752">
ms
</text>
<path stroke="white" stroke-width="2" stroke-dasharray="1,2" d="M60 720l900 0"/>
<text stroke="none" fill="white" font-size="16" x="8" y="728">
-25.0
</text>
<path stroke="white" stroke-width="2" stroke-dasharray="1,2" d="M60 653l900 0"/>
<text stroke="none" fill="white" font-size="16" x="8" y="661">
-20.0
</text>
<path stroke="white" stroke-width="2" stroke-dasharray="1,2" d="M60 586l900 0"/>
<text stroke="none" fill="white" font-size="16" x="8" y="594">
-15.0
</text>
<path stroke="white" stroke-width="2" stroke-dasharray="1,2" d="M60 519l900 0"/>
<text stroke="none" fill="white" font-size="16" x="8" y="527">
-10.0
</text>
<path stroke="white" stroke-width="2" stroke-dasharray="1,2" d="M60 452l900 0"/>
<text stroke="none" fill="white" font-size="16" x="18" y="460">
-5.0
</text>
<path stroke="white" stroke-width="2" d="M60 385l900 0"/>
<text stroke="none" fill="white" font-size="16" x="28" y="393">
0.0
</text>
<path stroke="white" stroke-width="2" stroke-dasharray="1,2" d="M60 318l900 0"/>
<text stroke="none" fill="white" font-size="16" x="28" y="326">
5.0
</text>
<path stroke="white" stroke-width="2" stroke-dasharray="1,2" d="M60 251l900 0"/>
<text stroke="none" fill="white" font-size="16" x="18" y="259">
10.0
</text>
<path stroke="white" stroke-width="2" stroke-dasharray="1,2" d="M60 184l900 0"/>
<text stroke="none" fill="white" font-size="16" x="18" y="192">
15.0
</text>
<path stroke="white" stroke-width="2" stroke-dasharray="1,2" d="M60 117l900 0"/>
<text stroke="none" fill="white" font-size="16" x="18" y="125">
20.0
</text>
<path stroke="white" stroke-width="2" stroke-dasharray="1,2" d="M60 50l900 0"/>
<text stroke="none" fill="white" font-size="16" x="18" y="58">
25.0
</text>
<text stroke="none" fill="white" font-size="16" x="10" y="32">
     
</text>
<path stroke="red" d="M450 23l45 0"/>
<text stroke="none" fill="white" font-size="16" x="505" y="32">
max_power_i_x10
</text>
<path stroke="red" d="M60 385l0 -2 1 0 0 -5 1 0 0 -5 1 0 0 -4 1 0 0 -4 1 0 0 -4 1 0 0 -3 1 0 0 -3 1 0 0 -3 1 0 0 -2 1 0 0 -2 1 0 0 -2 1 0 0 -1 1 0 0 -2 1 0 0 -2 1 0 0 -2 1 0 0 -3 1 0 0 -3 1 0 0 -4 1 0 0 -4 1 -1 0 -5 1 -1 0 -6 1 0 0 -8 1 0 0 -9"/>
<path stroke="red" d="M83 295l1 0 0 -10 1 0 0 -11 1 -1 0 -11 1 0 0 -13 1 -1 0 -13 1 -1 0 -12 1 -1 0 -14 1 -1 0 -14 1 -1 0 -13 1 -1 0 -14 1 0 0 -13 1 -1 0 -11 1 -1 0 -11 1 -1 0 -9 1 -1 0 -8 1 0 0 -7 1 0 0 -5 1 0 0 -3 1 0 0 -1 1 0M103 93l0 -2M103 93l1 0"/>
<path stroke="red" d="M104 96l0 -3M104 96l1 0M105 101l0 -5M105 101l1 0M106 108l0 -7M106 108l1 1M107 117l0 -8M107 117l1 1M108 127l0 -9M108 127l1 1M109 139l0 -11M109 139l1 0M110 152l0 -13M110 152l1 1M111 165l0 -12M111 165l1 1M112 179l0 -13M112 179l1 1"/>
<path stroke="red" d="M113 194l0 -14M113 194l1 1M114 208l0 -13M114 208l1 1M115 223l0 -14M115 223l1 1M116 237l0 -13M116 237l1 1M117 251l0 -13M117 251l1 0M118 264l0 -13M118 264l1 0M119 276l0 -12M119 276l1 0M120 286l0 -10M120 286l1 1M121 296l0 -9"/>
<path stroke="red" d="M121 296l1 1M122 305l0 -8M122 305l1 1M123 313l0 -7M123 313l1 0M124 319l0 -6M124 319l1 1M125 325l0 -5M125 325l1 0M126 330l0 -5M126 330l1 0M127 333l0 -3M127 333l1 1M128 337l0 -3M128 337l1 0M129 339l0 -2M129 339l1 0M130 341l0 -2"/>
<path stroke="red" d="M130 341l1 0M131 343l0 -2M131 343l1 0M132 345l0 -2M132 345l1 0M133 346l0 -1M133 346l1 1M134 348l0 -1M134 348l1 0M135 350l0 -2M135 350l1 0M136 353l0 -3M136 353l1 0M137 355l0 -2M137 355l1 0M138 358l0 -3M138 358l1 1M139 362l0 -3"/>
<path stroke="red" d="M139 362l1 0M140 366l0 -4M140 366l1 0M141 370l0 -4M141 370l1 0M142 374l0 -4M142 374l1 0M143 379l0 -5M143 379l1 0M144 383l0 -4M144 383l1 1M145 388l0 -4M145 388l1 0M146 393l0 -5M146 393l1 0M147 397l0 -4M147 397l1 1M148 402l0 -4"/>
<path stroke="red" d="M148 402l1 0M149 406l0 -4M149 406l1 0M150 409l0 -3M150 409l1 1M151 413l0 -3M151 413l1 0M152 415l0 -2M152 415l1 1M153 418l0 -2M153 418l1 0M154 420l0 -2M154 420l1 0M155 422l0 -2M155 422l1 0M156 424l0 -2M156 424l1 0M157 426l0 -2"/>
<path stroke="red" d="M157 426l1 0M158 427l0 -1M158 427l1 0M159 429l0 -2M159 429l1 0M160 432l0 -3M160 432l1 0M161 434l0 -2M161 434l1 0M162 438l0 -4M162 438l1 0M163 442l0 -4M163 442l1 0M164 447l0 -5M164 447l1 0M165 452l0 -5M165 452l1 1M166 459l0 -6"/>
<path stroke="red" d="M166 459l1 1M167 467l0 -7M167 467l1 1M168 476l0 -8M168 476l1 1M169 487l0 -10M169 487l1 0M170 498l0 -11M170 498l1 1M171 510l0 -11M171 510l1 1M172 523l0 -12M172 523l1 1M173 537l0 -13M173 537l1 1M174 551l0 -13M174 551l1 1M175 566l0 -14"/>
<path stroke="red" d="M175 566l1 1M176 581l0 -14M176 581l1 1M177 595l0 -13M177 595l1 0M178 609l0 -14M178 609l1 1M179 623l0 -13M179 623l1 0M180 635l0 -12M180 635l1 0M181 646l0 -11M181 646l1 1M182 656l0 -9M182 656l1 1M183 664l0 -7M183 664l1 1M184 671l0 -6"/>
<path stroke="red" d="M184 671l1 0M185 675l0 -4M185 675l1 1M186 678l0 -2M186 678l1 0M187 679l0 -1 1 0 0 -1 1 0 0 -4 1 0 0 -5 1 0 0 -7 1 -1 0 -9 1 0 0 -10 1 0 0 -12 1 -1 0 -12 1 -1 0 -12 1 -1 0 -14 1 -1 0 -14 1 0 0 -14 1 -1 0 -13 1 -1 0 -14 1 -1"/>
<path stroke="red" d="M202 529l0 -12 1 -1 0 -12 1 0 0 -12 1 0 0 -11 1 0 0 -9 1 -1 0 -8 1 0 0 -7 1 -1 0 -5 1 -1 0 -5 1 0 0 -5 1 0 0 -3 1 0 0 -3 1 0 0 -3 1 0 0 -2 1 0 0 -1 1 0 0 -2 1 0 0 -2 1 0 0 -2 1 0 0 -2 1 0 0 -2 1 0 0 -3 1 0 0 -3 1 0 0 -4"/>
<path stroke="red" d="M224 407l1 0 0 -3 1 0 0 -4 1 -1 0 -4 1 0 0 -4 1 -1 0 -4 1 0 0 -5 1 0 0 -4 1 -1 0 -4 1 0 0 -4 1 -1 0 -3 1 0 0 -4 1 0 0 -3 1 0 0 -3 1 0 0 -2 1 -1 0 -2 1 0 0 -2 1 0 0 -1 1 0 0 -2 1 0 0 -2 1 0 0 -2 1 0 0 -2 1 0 0 -3 1 0 0 -3"/>
<path stroke="red" d="M247 332l1 0 0 -4 1 -1 0 -5 1 0 0 -5 1 -1 0 -7 1 0 0 -8 1 0 0 -9 1 0 0 -11 1 0 0 -11 1 0 0 -13 1 0 0 -13 1 0 0 -14 1 0 0 -14 1 0 0 -15 1 0 0 -14 1 -1 0 -14 1 0 0 -14 1 0 0 -13 1 0 0 -12 1 0 0 -11 1 0 0 -10 1 0 0 -8 1 0 0 -6"/>
<path stroke="red" d="M269 98l1 0 0 -4 1 0 0 -2 1 0 0 -1M272 92l1 0M273 94l0 -2M273 94l1 0M274 97l0 -3M274 97l1 1M275 103l0 -5M275 103l1 1M276 111l0 -7M276 111l1 1M277 120l0 -8M277 120l1 1M278 131l0 -10M278 131l1 1M279 143l0 -11M279 143l1 1M280 156l0 -12"/>
<path stroke="red" d="M280 156l1 1M281 170l0 -13M281 170l1 1M282 185l0 -14M282 185l1 1M283 199l0 -13M283 199l1 1M284 214l0 -14M284 214l1 1M285 228l0 -13M285 228l1 1M286 242l0 -13M286 242l1 1M287 255l0 -12M287 255l1 1M288 268l0 -12M288 268l1 1"/>
<path stroke="red" d="M289 279l0 -10M289 279l1 1M290 290l0 -10M290 290l1 1M291 300l0 -9M291 300l1 0M292 308l0 -8M292 308l1 0M293 315l0 -7M293 315l1 1M294 322l0 -6M294 322l1 0M295 327l0 -5M295 327l1 0M296 331l0 -4M296 331l1 0M297 335l0 -4M297 335l1 0"/>
<path stroke="red" d="M298 337l0 -2M298 337l1 1M299 340l0 -2M299 340l1 0M300 342l0 -2M300 342l1 0M301 344l0 -2M301 344l1 0M302 345l0 -1M302 345l1 0M303 347l0 -2M303 347l1 0M304 349l0 -2M304 349l1 0M305 351l0 -2M305 351l1 0M306 354l0 -3M306 354l1 0"/>
<path stroke="red" d="M307 356l0 -2M307 356l1 1M308 359l0 -2M308 359l1 1M309 363l0 -3M309 363l1 0M310 367l0 -4M310 367l1 0M311 371l0 -4M311 371l1 0M312 376l0 -5M312 376l1 0M313 380l0 -4M313 380l1 1M314 385l0 -4M314 385l1 0M315 390l0 -5M315 390l1 0"/>
<path stroke="red" d="M316 394l0 -4M316 394l1 1M317 399l0 -4M317 399l1 0M318 403l0 -4M318 403l1 0M319 407l0 -4M319 407l1 0M320 411l0 -4M320 411l1 0M321 414l0 -3M321 414l1 0M322 416l0 -2M322 416l1 1M323 419l0 -2M323 419l1 0M324 421l0 -2M324 421l1 0"/>
<path stroke="red" d="M325 423l0 -2M325 423l1 0M326 425l0 -2M326 425l1 0M327 426l0 -1M327 426l1 0M328 428l0 -2M328 428l1 0M329 430l0 -2M329 430l1 0M330 433l0 -3M330 433l1 0M331 435l0 -2M331 435l1 0M332 439l0 -4M332 439l1 0M333 443l0 -4M333 443l1 1"/>
<path stroke="red" d="M334 449l0 -5M334 449l1 0M335 455l0 -6M335 455l1 0M336 462l0 -7M336 462l1 0M337 471l0 -9M337 471l1 0M338 480l0 -9M338 480l1 0M339 490l0 -10M339 490l1 1M340 502l0 -11M340 502l1 1M341 514l0 -11M341 514l1 1M342 528l0 -13M342 528l1 1"/>
<path stroke="red" d="M343 542l0 -13M343 542l1 1M344 556l0 -13M344 556l1 1M345 571l0 -14M345 571l1 1M346 586l0 -14M346 586l1 1M347 600l0 -13M347 600l1 0M348 614l0 -14M348 614l1 1M349 627l0 -12M349 627l1 1M350 639l0 -11M350 639l1 1M351 650l0 -10"/>
<path stroke="red" d="M351 650l1 0M352 659l0 -9M352 659l1 1M353 667l0 -7M353 667l1 0M354 673l0 -6M354 673l1 0M355 676l0 -3M355 676l1 1M356 678l0 -1M356 678l1 0M357 679l0 -1 1 0 0 -2 1 0 0 -4 1 -1 0 -6 1 0 0 -7 1 -1 0 -9 1 -1 0 -10 1 -1 0 -11"/>
<path stroke="red" d="M364 625l1 -1 0 -13 1 0 0 -14 1 -1 0 -13 1 0 0 -15 1 0 0 -14 1 -1 0 -13 1 -1 0 -13 1 -1 0 -13 1 -1 0 -11 1 -1 0 -10 1 -1 0 -10 1 -1 0 -8 1 -1 0 -7 1 -1 0 -7 1 0 0 -6 1 0 0 -5 1 0 0 -4 1 0 0 -3 1 0 0 -3 1 0 0 -2 1 0 0 -2"/>
<path stroke="red" d="M385 428l1 0 0 -2 1 0 0 -2 1 0 0 -1 1 -1 0 -1 1 0 0 -3 1 0 0 -2 1 0 0 -3 1 0 0 -3 1 0 0 -4 1 0 0 -4 1 0 0 -4 1 0 0 -4 1 -1 0 -4 1 0 0 -5 1 0 0 -5 1 0 0 -4 1 0 0 -5 1 0 0 -4 1 0 0 -4 1 0 0 -3 1 0 0 -3 1 0 0 -3 1 0 0 -2 1 0"/>
<path stroke="red" d="M409 351l0 -2 1 0 0 -2 1 0 0 -2 1 0 0 -2 1 0 0 -1 1 0 0 -2 1 -1 0 -2 1 0 0 -3 1 0 0 -4 1 0 0 -4 1 0 0 -5 1 -1 0 -6 1 0 0 -7 1 -1 0 -8 1 -1 0 -8 1 -1 0 -10 1 -1 0 -11 1 -1 0 -12 1 0 0 -13 1 -1 0 -14 1 0 0 -14 1 -1 0 -13 1 -1"/>
<path stroke="red" d="M431 196l0 -14 1 -1 0 -14 1 -1 0 -12 1 -1 0 -12 1 -1 0 -11 1 -1 0 -9 1 -1 0 -9 1 0 0 -7 1 0 0 -5 1 -1 0 -3 1 0 0 -1 1 0 0 -1M442 92l1 0M443 95l0 -3M443 95l1 0M444 99l0 -4M444 99l1 1M445 106l0 -6M445 106l1 0M446 114l0 -8"/>
<path stroke="red" d="M446 114l1 1M447 124l0 -9M447 124l1 1M448 135l0 -10M448 135l1 1M449 148l0 -12M449 148l1 0M450 161l0 -13M450 161l1 1M451 175l0 -13M451 175l1 1M452 190l0 -14M452 190l1 0M453 204l0 -14M453 204l1 1M454 219l0 -14M454 219l1 0"/>
<path stroke="red" d="M455 233l0 -14M455 233l1 1M456 247l0 -13M456 247l1 1M457 260l0 -12M457 260l1 0M458 272l0 -12M458 272l1 1M459 284l0 -11M459 284l1 0M460 293l0 -9M460 293l1 1M461 303l0 -9M461 303l1 0M462 311l0 -8M462 311l1 0M463 318l0 -7M463 318l1 0"/>
<path stroke="red" d="M464 323l0 -5M464 323l1 1M465 328l0 -4M465 328l1 1M466 333l0 -4M466 333l1 0M467 336l0 -3M467 336l1 0M468 338l0 -2M468 338l1 1M469 341l0 -2M469 341l1 0M470 343l0 -2M470 343l1 0M471 344l0 -1M471 344l1 0M472 346l0 -2M472 346l1 0"/>
<path stroke="red" d="M473 348l0 -2M473 348l1 0M474 350l0 -2M474 350l1 0M475 352l0 -2M475 352l1 0M476 354l0 -2M476 354l1 1M477 357l0 -2M477 357l1 1M478 361l0 -3M478 361l1 0M479 364l0 -3M479 364l1 1M480 368l0 -3M480 368l1 1M481 373l0 -4M481 373l1 0"/>
<path stroke="red" d="M482 377l0 -4M482 377l1 1M483 382l0 -4M483 382l1 0M484 387l0 -5M484 387l1 0M485 392l0 -5M485 392l1 0M486 396l0 -4M486 396l1 0M487 400l0 -4M487 400l1 1M488 405l0 -4M488 405l1 0M489 408l0 -3M489 408l1 0M490 412l0 -4M490 412l1 0"/>
<path stroke="red" d="M491 415l0 -3M491 415l1 0M492 417l0 -2M492 417l1 0M493 420l0 -3M493 420l1 0M494 422l0 -2M494 422l1 0M495 423l0 -1M495 423l1 1M496 425l0 -1M496 425l1 0M497 427l0 -2M497 427l1 0M498 429l0 -2M498 429l1 0M499 431l0 -2M499 431l1 0"/>
<path stroke="red" d="M500 433l0 -2M500 433l1 1M501 437l0 -3M501 437l1 0M502 440l0 -3M502 440l1 0M503 445l0 -5M503 445l1 0M504 451l0 -6M504 451l1 0M505 457l0 -6M505 457l1 1M506 465l0 -7M506 465l1 0M507 474l0 -9M507 474l1 0M508 484l0 -10M508 484l1 0"/>
<path stroke="red" d="M509 494l0 -10M509 494l1 1M510 506l0 -11M510 506l1 1M511 519l0 -12M511 519l1 1M512 533l0 -13M512 533l1 0M513 547l0 -14M513 547l1 1M514 562l0 -14M514 562l1 1M515 576l0 -13M515 576l1 1M516 591l0 -14M516 591l1 1M517 605l0 -13"/>
<path stroke="red" d="M517 605l1 1M518 618l0 -12M518 618l1 1M519 631l0 -12M519 631l1 1M520 643l0 -11M520 643l1 1M521 654l0 -10M521 654l1 0M522 662l0 -8M522 662l1 0M523 669l0 -7M523 669l1 0M524 674l0 -5M524 674l1 0M525 677l0 -3M525 677l1 0M526 679l0 -2"/>
<path stroke="red" d="M526 679l1 0 0 -1 1 0 0 -3 1 -1 0 -4 1 -1 0 -6 1 -1 0 -8 1 0 0 -10 1 -1 0 -11 1 0 0 -12 1 0 0 -13 1 -1 0 -14 1 -1 0 -13 1 -1 0 -14 1 -1 0 -14 1 0 0 -13 1 -1 0 -13 1 -1 0 -12 1 -1 0 -11 1 -1 0 -11 1 0 0 -9 1 -1 0 -8 1 -1"/>
<path stroke="red" d="M547 465l0 -7 1 -1 0 -6 1 0 0 -6 1 0 0 -4 1 0 0 -4 1 0 0 -3 1 0 0 -3 1 0 0 -2 1 0 0 -2 1 0 0 -2 1 0 0 -1 1 0 0 -2 1 0 0 -2 1 0 0 -2 1 -1 0 -2 1 0 0 -3 1 0 0 -3 1 -1 0 -3 1 0 0 -4 1 0 0 -5 1 0 0 -4 1 0 0 -5 1 0 0 -5 1 0 0 -4"/>
<path stroke="red" d="M570 378l1 -1 0 -4 1 0 0 -4 1 0 0 -4 1 0 0 -4 1 0 0 -3 1 0 0 -3 1 0 0 -3 1 0 0 -2 1 0 0 -2 1 0 0 -2 1 0 0 -1 1 -1 0 -1 1 0 0 -2 1 0 0 -2 1 0 0 -3 1 0 0 -3 1 0 0 -4 1 0 0 -5 1 0 0 -6 1 0 0 -7 1 0 0 -7 1 -1 0 -8 1 -1 0 -10"/>
<path stroke="red" d="M593 284l1 0 0 -10 1 -1 0 -12 1 0 0 -13 1 -1 0 -12 1 -1 0 -14 1 0 0 -14 1 -1 0 -13 1 -1 0 -14 1 -1 0 -14 1 0 0 -13 1 0 0 -12 1 -1 0 -11 1 -1 0 -9 1 -1 0 -7 1 -1 0 -6 1 0 0 -5 1 0 0 -3 1 0 0 -1M611 92l1 0M612 93l0 -1M612 93l1 0"/>
<path stroke="red" d="M613 96l0 -3M613 96l1 0M614 102l0 -6M614 102l1 0M615 108l0 -6M615 108l1 1M616 118l0 -9M616 118l1 0M617 128l0 -10M617 128l1 0M618 139l0 -11M618 139l1 1M619 152l0 -12M619 152l1 1M620 166l0 -13M620 166l1 1M621 180l0 -13M621 180l1 1"/>
<path stroke="red" d="M622 195l0 -14M622 195l1 1M623 210l0 -14M623 210l1 0M624 224l0 -14M624 224l1 1M625 238l0 -13M625 238l1 1M626 251l0 -12M626 251l1 1M627 264l0 -12M627 264l1 1M628 277l0 -12M628 277l1 0M629 287l0 -10M629 287l1 1M630 297l0 -9"/>
<path stroke="red" d="M630 297l1 1M631 306l0 -8M631 306l1 0M632 313l0 -7M632 313l1 1M633 320l0 -6M633 320l1 0M634 325l0 -5M634 325l1 1M635 330l0 -4M635 330l1 0M636 334l0 -4M636 334l1 0M637 337l0 -3M637 337l1 0M638 339l0 -2M638 339l1 0M639 341l0 -2"/>
<path stroke="red" d="M639 341l1 0M640 343l0 -2M640 343l1 0M641 345l0 -2M641 345l1 0M642 347l0 -2M642 347l1 0M643 348l0 -1M643 348l1 1M644 351l0 -2M644 351l1 0M645 353l0 -2M645 353l1 0M646 355l0 -2M646 355l1 1M647 359l0 -3M647 359l1 0M648 362l0 -3"/>
<path stroke="red" d="M648 362l1 0M649 366l0 -4M649 366l1 0M650 370l0 -4M650 370l1 0M651 374l0 -4M651 374l1 0M652 379l0 -5M652 379l1 0M653 384l0 -5M653 384l1 0M654 388l0 -4M654 388l1 0M655 393l0 -5M655 393l1 0M656 398l0 -5M656 398l1 0M657 402l0 -4"/>
<path stroke="red" d="M657 402l1 0M658 406l0 -4M658 406l1 0M659 410l0 -4M659 410l1 0M660 413l0 -3M660 413l1 0M661 416l0 -3M661 416l1 0M662 418l0 -2M662 418l1 0M663 420l0 -2M663 420l1 1M664 422l0 -1M664 422l1 0M665 424l0 -2M665 424l1 0M666 426l0 -2"/>
<path stroke="red" d="M666 426l1 0M667 428l0 -2M667 428l1 0M668 429l0 -1M668 429l1 1M669 432l0 -2M669 432l1 0M670 434l0 -2M670 434l1 1M671 438l0 -3M671 438l1 0M672 442l0 -4M672 442l1 0M673 447l0 -5M673 447l1 0M674 453l0 -6M674 453l1 0M675 460l0 -7"/>
<path stroke="red" d="M675 460l1 0M676 468l0 -8M676 468l1 0M677 477l0 -9M677 477l1 0M678 487l0 -10M678 487l1 1M679 499l0 -11M679 499l1 1M680 511l0 -11M680 511l1 0M681 524l0 -13M681 524l1 1M682 538l0 -13M682 538l1 0M683 552l0 -14M683 552l1 1M684 567l0 -14"/>
<path stroke="red" d="M684 567l1 1M685 581l0 -13M685 581l1 1M686 596l0 -14M686 596l1 1M687 610l0 -13M687 610l1 1M688 623l0 -12M688 623l1 1M689 636l0 -12M689 636l1 1M690 647l0 -10M690 647l1 0M691 657l0 -10M691 657l1 0M692 665l0 -8M692 665l1 0"/>
<path stroke="red" d="M693 671l0 -6M693 671l1 0M694 676l0 -5M694 676l1 0M695 678l0 -2M695 678l1 0M696 679l0 -1 1 0 0 -1 1 0 0 -4 1 0 0 -6 1 0 0 -7 1 -1 0 -8 1 -1 0 -10 1 0 0 -12 1 -1 0 -12 1 -1 0 -12 1 -1 0 -14 1 -1 0 -14 1 -1 0 -13 1 -1 0 -13"/>
<path stroke="red" d="M709 544l1 -1 0 -14 1 -1 0 -12 1 -1 0 -12 1 0 0 -11 1 -1 0 -10 1 -1 0 -8 1 -1 0 -8 1 -1 0 -7 1 0 0 -6 1 0 0 -5 1 0 0 -5 1 0 0 -3 1 -1 0 -2 1 0 0 -3 1 0 0 -2 1 0 0 -1 1 -1 0 -1 1 0 0 -2 1 0 0 -2 1 0 0 -2 1 0 0 -2 1 0 0 -3"/>
<path stroke="red" d="M731 414l1 0 0 -3 1 0 0 -4 1 0 0 -4 1 0 0 -4 1 0 0 -4 1 0 0 -5 1 0 0 -5 1 0 0 -4 1 -1 0 -4 1 0 0 -4 1 -1 0 -4 1 0 0 -3 1 -1 0 -3 1 0 0 -3 1 -1 0 -2 1 0 0 -3 1 0 0 -2 1 0 0 -2 1 0 0 -1 1 0 0 -2 1 0 0 -2 1 0 0 -2 1 0 0 -2"/>
<path stroke="red" d="M754 338l1 0 0 -3 1 0 0 -4 1 0 0 -4 1 0 0 -5 1 0 0 -6 1 0 0 -7 1 0 0 -8 1 -1 0 -9 1 0 0 -10 1 -1 0 -11 1 -1 0 -11 1 -1 0 -12 1 -1 0 -14 1 0 0 -13 1 -1 0 -14 1 -1 0 -14 1 -1 0 -13 1 -1 0 -13 1 -1 0 -13 1 0 0 -12 1 -1 0 -9"/>
<path stroke="red" d="M775 122l1 -1 0 -9 1 -1 0 -7 1 -1 0 -5 1 0 0 -4 1 0 0 -2 1 0 0 -1M781 92l1 0M782 94l0 -2M782 94l1 0M783 98l0 -4M783 98l1 0M784 104l0 -6M784 104l1 0M785 111l0 -7M785 111l1 1M786 121l0 -9M786 121l1 1M787 132l0 -10M787 132l1 0"/>
<path stroke="red" d="M788 144l0 -12M788 144l1 1M789 157l0 -12M789 157l1 1M790 171l0 -13M790 171l1 0M791 185l0 -14M791 185l1 1M792 200l0 -14M792 200l1 1M793 215l0 -14M793 215l1 1M794 229l0 -13M794 229l1 1M795 243l0 -13M795 243l1 1M796 257l0 -13"/>
<path stroke="red" d="M796 257l1 0M797 269l0 -12M797 269l1 0M798 280l0 -11M798 280l1 1M799 291l0 -10M799 291l1 1M800 300l0 -8M800 300l1 1M801 309l0 -8M801 309l1 0M802 316l0 -7M802 316l1 0M803 322l0 -6M803 322l1 0M804 327l0 -5M804 327l1 0M805 331l0 -4"/>
<path stroke="red" d="M805 331l1 1M806 335l0 -3M806 335l1 0M807 338l0 -3M807 338l1 0M808 340l0 -2M808 340l1 0M809 342l0 -2M809 342l1 0M810 344l0 -2M810 344l1 0M811 346l0 -2M811 346l1 0M812 347l0 -1M812 347l1 0M813 349l0 -2M813 349l1 0M814 351l0 -2"/>
<path stroke="red" d="M814 351l1 0M815 354l0 -3M815 354l1 0M816 356l0 -2M816 356l1 1M817 360l0 -3M817 360l1 0M818 363l0 -3M818 363l1 1M819 367l0 -3M819 367l1 0M820 371l0 -4M820 371l1 1M821 376l0 -4M821 376l1 0M822 380l0 -4M822 380l1 1M823 385l0 -4"/>
<path stroke="red" d="M823 385l1 1M824 390l0 -4M824 390l1 0M825 395l0 -5M825 395l1 0M826 399l0 -4M826 399l1 0M827 403l0 -4M827 403l1 1M828 407l0 -3M828 407l1 0M829 411l0 -4M829 411l1 0M830 414l0 -3M830 414l1 0M831 417l0 -3M831 417l1 0M832 419l0 -2"/>
<path stroke="red" d="M832 419l1 0M833 421l0 -2M833 421l1 0M834 423l0 -2M834 423l1 0M835 425l0 -2M835 425l1 0M836 426l0 -1M836 426l1 1M837 428l0 -1M837 428l1 0M838 430l0 -2M838 430l1 0M839 433l0 -3M839 433l1 0M840 436l0 -3M840 436l1 0M841 439l0 -3"/>
<path stroke="red" d="M841 439l1 0M842 443l0 -4M842 443l1 1M843 449l0 -5M843 449l1 0M844 455l0 -6M844 455l1 0M845 463l0 -8M845 463l1 0M846 471l0 -8M846 471l1 0M847 481l0 -10M847 481l1 0M848 491l0 -10M848 491l1 1M849 503l0 -11M849 503l1 0M850 515l0 -12"/>
<path stroke="red" d="M850 515l1 1M851 529l0 -13M851 529l1 1M852 543l0 -13M852 543l1 1M853 557l0 -13M853 557l1 1M854 572l0 -14M854 572l1 1M855 586l0 -13M855 586l1 1M856 601l0 -14M856 601l1 1M857 615l0 -13M857 615l1 1M858 627l0 -11M858 627l1 1"/>
<path stroke="red" d="M859 640l0 -12M859 640l1 1M860 650l0 -9M860 650l1 1M861 660l0 -9M861 660l1 0M862 667l0 -7M862 667l1 1M863 673l0 -5M863 673l1 0M864 677l0 -4M864 677l1 0M865 678l0 -1M865 678l1 0M866 679l0 -1 1 0 0 -2 1 0 0 -5 1 0 0 -6 1 -1"/>
<path stroke="red" d="M870 664l0 -7 1 0 0 -10 1 0 0 -11 1 -1 0 -11 1 -1 0 -12 1 -1 0 -14 1 0 0 -14 1 0 0 -14 1 -1 0 -14 1 -1 0 -14 1 -1 0 -12 1 -1 0 -13 1 0 0 -12 1 -1 0 -10 1 -1 0 -9 1 -1 0 -9 1 0 0 -8 1 -1 0 -6 1 0 0 -6 1 0 0 -5 1 0 0 -4 1 0"/>
<path stroke="red" d="M891 438l0 -3 1 -1 0 -2 1 0 0 -2 1 -1 0 -1 1 0 0 -2 1 0 0 -2 1 0 0 -2 1 0 0 -1 1 -1 0 -2 1 0 0 -2 1 0 0 -3 1 0 0 -3 1 0 0 -4 1 0 0 -4 1 0 0 -4 1 -1 0 -4 1 0 0 -4 1 -1 0 -3"/>
<path stroke="blue" d="M60 23l45 0"/>
<text stroke="none" fill="white" font-size="16" x="115" y="32">
dynamo_v
</text>
<path stroke="blue" d="M60 385l0 -2 1 0 0 -4 1 0 0 -3 1 0 0 -4 1 0 0 -3 1 0 0 -3 1 0 0 -3 1 0 0 -2 1 0 0 -2 1 0 0 -2 1 0 0 -2 1 0 0 -1 1 0 0 -1 1 0 0 -2 1 0 0 -1 1 0 0 -2 1 0 0 -2 1 0 0 -3 1 0 0 -3 1 0 0 -3 1 -1 0 -4 1 0 0 -5 1 -1 0 -6 1 0 0 -7"/>
<path stroke="blue" d="M83 313l1 0 0 -8 1 0 0 -9 1 0 0 -9 1 -1 0 -10 1 0 0 -11 1 0 0 -11 1 0 0 -12 1 0 0 -12 1 0 0 -11 1 0 0 -11 1 -1 0 -10 1 -1 0 -9 1 -1 0 -8 1 -1 0 -8 1 0 0 -6 1 -1 0 -5 1 0 0 -4 1 0 0 -2 1 0 0 -1 1 0M103 151l0 -1M103 151l1 0"/>
<path stroke="blue" d="M104 154l0 -3M104 154l1 0M105 158l0 -4M105 158l1 0M106 163l0 -5M106 163l1 1M107 171l0 -7M107 171l1 0M108 179l0 -8M108 179l1 0M109 188l0 -9M109 188l1 1M110 198l0 -9M110 198l1 1M111 209l0 -10M111 209l1 1M112 220l0 -10M112 220l1 1"/>
<path stroke="blue" d="M113 232l0 -11M113 232l1 1M114 244l0 -11M114 244l1 0M115 255l0 -11M115 255l1 1M116 267l0 -11M116 267l1 1M117 277l0 -9M117 277l1 1M118 288l0 -10M118 288l1 0M119 298l0 -10M119 298l1 0M120 306l0 -8M120 306l1 1M121 314l0 -7"/>
<path stroke="blue" d="M121 314l1 1M122 321l0 -6M122 321l1 1M123 327l0 -5M123 327l1 1M124 333l0 -5M124 333l1 0M125 337l0 -4M125 337l1 0M126 341l0 -4M126 341l1 0M127 344l0 -3M127 344l1 0M128 346l0 -2M128 346l1 0M129 348l0 -2M129 348l1 0M130 350l0 -2"/>
<path stroke="blue" d="M130 350l1 0M131 351l0 -1M131 351l1 1M132 353l0 -1M132 353l1 0M133 354l0 -1M133 354l1 0M134 356l0 -2M134 356l1 0M135 357l0 -1M135 357l1 0M136 359l0 -2M136 359l1 0M137 361l0 -2M137 361l1 0M138 364l0 -3M138 364l1 0M139 366l0 -2"/>
<path stroke="blue" d="M139 366l1 1M140 369l0 -2M140 369l1 1M141 373l0 -3M141 373l1 0M142 376l0 -3M142 376l1 0M143 380l0 -4M143 380l1 0M144 384l0 -4M144 384l1 0M145 388l0 -4M145 388l1 0M146 391l0 -3M146 391l1 0M147 395l0 -4M147 395l1 0M148 398l0 -3"/>
<path stroke="blue" d="M148 398l1 1M149 401l0 -2M149 401l1 1M150 404l0 -2M150 404l1 1M151 407l0 -2M151 407l1 0M152 409l0 -2M152 409l1 1M153 411l0 -1M153 411l1 1M154 413l0 -1M154 413l1 0M155 415l0 -2M155 415l1 0M156 416l0 -1M156 416l1 0M157 418l0 -2"/>
<path stroke="blue" d="M157 418l1 0M158 419l0 -1M158 419l1 0M159 420l0 -1M159 420l1 1M160 422l0 -1M160 422l1 0M161 424l0 -2M161 424l1 0M162 427l0 -3M162 427l1 0M163 430l0 -3M163 430l1 0M164 434l0 -4M164 434l1 1M165 439l0 -4M165 439l1 0M166 444l0 -5"/>
<path stroke="blue" d="M166 444l1 1M167 451l0 -6M167 451l1 0M168 458l0 -7M168 458l1 0M169 466l0 -8M169 466l1 1M170 475l0 -8M170 475l1 1M171 485l0 -9M171 485l1 0M172 496l0 -11M172 496l1 0M173 507l0 -11M173 507l1 0M174 518l0 -11M174 518l1 0M175 530l0 -12"/>
<path stroke="blue" d="M175 530l1 0M176 542l0 -12M176 542l1 0M177 553l0 -11M177 553l1 0M178 564l0 -11M178 564l1 1M179 575l0 -10M179 575l1 1M180 585l0 -9M180 585l1 0M181 594l0 -9M181 594l1 0M182 602l0 -8M182 602l1 0M183 609l0 -7M183 609l1 0M184 614l0 -5"/>
<path stroke="blue" d="M184 614l1 0M185 617l0 -3M185 617l1 0M186 619l0 -2M186 619l1 0M187 620l0 -1M187 620l1 0 0 -1 1 -1 0 -2 1 -1 0 -4 1 0 0 -6 1 0 0 -7 1 0 0 -8 1 -1 0 -9 1 0 0 -10 1 -1 0 -10 1 0 0 -11 1 -1 0 -11 1 -1 0 -11 1 0 0 -11 1 -1 0 -11"/>
<path stroke="blue" d="M201 501l1 0 0 -10 1 -1 0 -10 1 0 0 -9 1 -1 0 -8 1 0 0 -7 1 -1 0 -6 1 -1 0 -5 1 -1 0 -4 1 -1 0 -4 1 0 0 -3 1 -1 0 -2 1 0 0 -3 1 0 0 -2 1 0 0 -1 1 0 0 -2 1 0 0 -1 1 0 0 -1 1 0 0 -2 1 0 0 -2 1 0 0 -1 1 -1 0 -2 1 0 0 -2 1 0"/>
<path stroke="blue" d="M224 406l0 -3 1 0 0 -3 1 0 0 -3 1 -1 0 -3 1 0 0 -4 1 0 0 -3 1 -1 0 -3 1 0 0 -4 1 0 0 -3 1 -1 0 -3 1 0 0 -3 1 0 0 -3 1 0 0 -3 1 0 0 -2 1 0 0 -2 1 0 0 -2 1 0 0 -1 1 0 0 -1 1 -1 0 -1 1 0 0 -1 1 0 0 -2 1 0 0 -2 1 0 0 -2 1 0"/>
<path stroke="blue" d="M247 345l0 -3 1 0 0 -3 1 0 0 -4 1 0 0 -5 1 0M251 359l0 -67M251 351l1 -21M252 354l0 -66M252 298l1 23M253 346l0 -63M253 305l1 -19M254 335l0 -58M254 326l1 -10M255 325l0 -55M255 294l1 17M256 315l0 -53M256 284l1 15M257 304l0 -51"/>
<path stroke="blue" d="M257 258l1 15M258 291l0 -48M258 249l1 14M259 279l0 -46M259 238l1 12M260 265l0 -42 1 5M261 252l0 -38M261 219l1 -6M262 239l0 -35M262 226l1 -1M263 226l0 -32M263 200l1 -7M264 214l0 -30 1 3M265 202l0 -26M265 181l1 -5M266 191l0 -23"/>
<path stroke="blue" d="M266 173l1 5M267 181l0 -19 1 -1M268 172l0 -16M268 157l1 1M269 165l0 -12 1 2M270 159l0 -8M270 153l1 0 0 -2 1 -1M272 166l0 -16M272 156l16 0 1 1 5 0M294 158l0 -1M294 158l4 0M298 159l0 -1M298 159l4 0M302 160l0 -1M302 160l2 0"/>
<path stroke="blue" d="M304 161l0 -1M304 161l3 0M307 162l0 -1M307 162l2 0M309 163l0 -1M309 163l2 0M311 164l0 -1M311 164l2 0M313 165l0 -1M313 165l2 0M315 166l0 -1M315 166l2 0M317 167l0 -1M317 167l2 0M319 168l0 -1M319 168l1 0M320 169l0 -1M320 169l2 0"/>
<path stroke="blue" d="M322 170l0 -1M322 170l2 0M324 171l0 -1M324 171l1 0M325 172l0 -1M325 172l1 0M326 173l0 -1M326 173l2 0M328 174l0 -1M328 174l1 0M329 175l0 -1M329 175l1 0M330 176l0 -1M330 176l2 0M332 177l0 -1M332 177l1 0M333 178l0 -1M333 178l1 0"/>
<path stroke="blue" d="M334 179l0 -1M334 179l1 0M335 180l0 -1M335 180l1 0M336 397l0 -217M336 388l21 0M357 600l0 -212M357 598l1 0M358 599l0 -1M358 599l1 0M359 600l0 -1M359 600l2 0M361 601l0 -1M361 601l1 0M362 602l0 -1M362 602l1 0M363 603l0 -1"/>
<path stroke="blue" d="M363 603l1 0M364 604l0 -1M364 604l2 0M366 605l0 -1M366 605l1 0M367 606l0 -1M367 606l1 0M368 607l0 -1M368 607l2 0M370 608l0 -1M370 608l1 0M371 609l0 -1M371 609l2 0M373 610l0 -1M373 610l1 0 1 1 1 0M376 612l0 -1M376 612l2 0"/>
<path stroke="blue" d="M378 613l0 -1M378 613l2 0M380 614l0 -1M380 614l3 0M383 615l0 -1M383 615l3 0M386 616l0 -1M386 616l4 0M390 617l0 -1M390 617l13 0 0 -1 4 0 0 -1 4 0 0 -1 3 0 0 -1 3 0 0 -1 2 0 0 -1 1 0 0 -237M420 384l13 0 0 -1 9 0 0 -230M442 155l1 0"/>
<path stroke="blue" d="M443 155l0 -1 2 0 0 -1 1 0 1 -1 2 0 0 -1 2 0 0 -1 4 0 0 -1 6 0 0 -1 5 0 1 1 7 0M474 150l0 -1M474 150l4 0M478 151l0 -1M478 151l3 0M481 152l0 -1M481 152l3 0M484 153l0 -1M484 153l3 0M487 154l0 -1M487 154l3 0M490 155l0 -1M490 155l2 0"/>
<path stroke="blue" d="M492 156l0 -1M492 156l2 0M494 157l0 -1M494 157l2 0M496 158l0 -1M496 158l2 0 1 1 1 0M500 160l0 -1M500 160l2 0M502 161l0 -1M502 161l2 0M504 162l0 -1M504 162l1 0M505 397l0 -235M505 387l22 0M527 615l0 -228M527 614l2 0M529 615l0 -1"/>
<path stroke="blue" d="M529 615l1 0M530 616l0 -1M530 616l2 0M532 617l0 -1M532 617l1 0 1 1 1 0M535 619l0 -1M535 619l2 0M537 620l0 -1M537 620l3 0M540 621l0 -1M540 621l3 0M543 622l0 -1M543 622l6 0M549 623l0 -1M549 623l5 0 1 -1 7 0 0 -1 4 0 0 -1"/>
<path stroke="blue" d="M566 620l3 0 0 -1 3 0 0 -1 2 0 1 -1 2 0 0 -1 2 0 0 -1 2 0 0 -1 2 0 1 -1 2 0 0 -1 1 0 1 -1 1 0 0 -1 1 0 0 -237M590 383l21 0 0 -230M611 155l1 0 0 -1 2 0 0 -1 1 0 0 -1 2 0 0 -1 2 0 0 -1 3 0 0 -1 2 0 1 -1 4 0 0 -1 11 0M640 148l0 -1"/>
<path stroke="blue" d="M640 148l6 0M646 149l0 -1M646 149l4 0M650 150l0 -1M650 150l3 0M653 151l0 -1M653 151l3 0M656 152l0 -1M656 152l2 0M658 153l0 -1M658 153l3 0M661 154l0 -1M661 154l2 0M663 155l0 -1M663 155l2 0M665 156l0 -1M665 156l2 0M667 157l0 -1"/>
<path stroke="blue" d="M667 157l2 0M669 158l0 -1M669 158l2 0M671 159l0 -1M671 159l2 0M673 160l0 -1M673 160l2 0M675 397l0 -237M675 387l21 0M696 617l0 -230M696 615l2 0M698 616l0 -1M698 616l1 0M699 617l0 -1M699 617l2 0M701 618l0 -1M701 618l2 0M703 619l0 -1"/>
<path stroke="blue" d="M703 619l2 0M705 620l0 -1M705 620l2 0M707 621l0 -1M707 621l3 0M710 622l0 -1M710 622l4 0M714 623l0 -1M714 623l12 0 0 -1 5 0 0 -1 4 0 0 -1 3 0 0 -1 3 0 0 -1 3 0 0 -1 2 0 0 -1 2 0 0 -1 2 0 1 -1 2 0 0 -1 2 0 0 -1 1 0 1 -1 1 0"/>
<path stroke="blue" d="M758 611l0 -1 2 0 0 -237M760 383l21 0 0 -230M781 155l1 0 0 -1 2 0 0 -1 1 0 0 -1 2 0 0 -1 2 0 0 -1 2 0 1 -1 2 0 0 -1 5 0 0 -1 12 0M811 148l0 -1M811 148l5 0M816 149l0 -1M816 149l4 0M820 150l0 -1M820 150l3 0M823 151l0 -1M823 151l3 0"/>
<path stroke="blue" d="M826 152l0 -1M826 152l2 0M828 153l0 -1M828 153l3 0M831 154l0 -1M831 154l2 0M833 155l0 -1M833 155l2 0M835 156l0 -1M835 156l2 0M837 157l0 -1M837 157l2 0M839 158l0 -1M839 158l2 0M841 159l0 -1M841 159l2 0M843 160l0 -1M843 160l2 0"/>
<path stroke="blue" d="M845 397l0 -237M845 387l21 0M866 617l0 -230M866 615l1 0M867 616l0 -1M867 616l2 0M869 617l0 -1M869 617l1 0M870 618l0 -1M870 618l2 0M872 619l0 -1M872 619l2 0M874 620l0 -1M874 620l2 0M876 621l0 -1M876 621l3 0M879 622l0 -1"/>
<path stroke="blue" d="M879 622l5 0M884 623l0 -1M884 623l11 0 0 -1 6 0 0 -1 4 0 0 -1 3 0 0 -1"/>
<path stroke="#FFA500" d="M450 39l45 0"/>
<text stroke="none" fill="white" font-size="16" x="505" y="48">
dynamo_i_x10
</text>
<path stroke="#FFA500" d="M60 385l218 0M278 386l0 -1M278 386l1 0M279 387l0 -1M279 387l1 0M280 388l0 -1M280 388l1 0M281 389l0 -1M281 389l1 0M282 391l0 -2M282 391l1 0M283 393l0 -2M283 393l1 0M284 395l0 -2M284 395l1 1M285 398l0 -2M285 398l1 0M286 401l0 -3"/>
<path stroke="#FFA500" d="M286 401l1 0M287 404l0 -3M287 404l1 0M288 408l0 -4M288 408l1 0M289 411l0 -3M289 411l1 1M290 415l0 -3M290 415l1 1M291 419l0 -3M291 419l1 1M292 424l0 -4M292 424l1 0M293 428l0 -4M293 428l1 0M294 433l0 -5M294 433l1 0M295 437l0 -4"/>
<path stroke="#FFA500" d="M295 437l1 0M296 442l0 -5M296 442l1 0M297 446l0 -4M297 446l1 0M298 451l0 -5M298 451l1 0M299 455l0 -4M299 455l1 1M300 460l0 -4M300 460l1 0M301 465l0 -5M301 465l1 0M302 469l0 -4M302 469l1 0M303 474l0 -5M303 474l1 0M304 478l0 -4"/>
<path stroke="#FFA500" d="M304 478l1 1M305 483l0 -4M305 483l1 0M306 487l0 -4M306 487l1 0M307 492l0 -5M307 492l1 0M308 496l0 -4M308 496l1 0M309 501l0 -5M309 501l1 0M310 505l0 -4M310 505l1 1M311 510l0 -4M311 510l1 0M312 514l0 -4M312 514l1 1M313 519l0 -4"/>
<path stroke="#FFA500" d="M313 519l1 0M314 524l0 -5M314 524l1 0M315 528l0 -4M315 528l1 1M316 533l0 -4M316 533l1 0M317 538l0 -5M317 538l1 0M318 543l0 -5M318 543l1 0M319 548l0 -5M319 548l1 0M320 552l0 -4M320 552l1 1M321 557l0 -4M321 557l1 0M322 562l0 -5"/>
<path stroke="#FFA500" d="M322 562l1 0M323 567l0 -5M323 567l1 0M324 572l0 -5M324 572l1 0M325 576l0 -4M325 576l1 1M326 581l0 -4M326 581l1 1M327 586l0 -4M327 586l1 0M328 591l0 -5M328 591l1 0M329 595l0 -4M329 595l1 0M330 600l0 -5M330 600l1 0M331 604l0 -4"/>
<path stroke="#FFA500" d="M331 604l1 1M332 609l0 -4M332 609l1 0M333 614l0 -5M333 614l1 0M334 618l0 -4M334 618l1 1M335 623l0 -4M335 623l1 0M336 624l0 -1 1 0 0 -1 1 0 0 -1 5 0M343 622l0 -1M343 622l1 0M344 623l0 -1M344 623l1 0M345 624l0 -1M345 624l1 0"/>
<path stroke="#FFA500" d="M346 626l0 -2M346 626l1 0M347 627l0 -1M347 627l1 1M348 630l0 -2M348 630l1 0M349 632l0 -2M349 632l1 0M350 635l0 -3M350 635l1 0M351 638l0 -3M351 638l1 0M352 641l0 -3M352 641l1 0M353 644l0 -3M353 644l1 1M354 648l0 -3M354 648l1 0"/>
<path stroke="#FFA500" d="M355 651l0 -3M355 651l1 1M356 655l0 -3M356 655l1 0M357 656l0 -1 1 0 0 -3 1 0 0 -2 1 0 0 -3 1 0 0 -3 1 0 0 -3 1 0 0 -3 1 0 0 -3 1 -1 0 -3 1 0 0 -4 1 0 0 -4 1 -1 0 -4 1 0 0 -5 1 0 0 -5 1 0 0 -6 1 0 0 -6 1 0 0 -6 1 0 0 -6"/>
<path stroke="#FFA500" d="M374 584l1 0 0 -6 1 -1 0 -6 1 0 0 -6 1 -1 0 -6 1 -1 0 -6 1 -1 0 -7 1 0 0 -6 1 -1 0 -6 1 -1 0 -7 1 0 0 -7 1 0 0 -6 1 -1 0 -6 1 -1 0 -7 1 0 0 -7 1 0 0 -6 1 -1 0 -6 1 -1 0 -6 1 0 0 -7 1 0 0 -7 1 0 0 -7 1 0 0 -6 1 0 0 -7"/>
<path stroke="#FFA500" d="M396 433l1 0 0 -7 1 0 0 -7 1 0 0 -7 1 0 0 -7 1 0 0 -7 1 0 0 -7 1 0 0 -7 1 0 0 -7 1 0 0 -7 1 0 0 -7 1 0 0 -7 1 0 0 -7 1 0 0 -6 1 -1 0 -6 1 -1 0 -6 1 -1 0 -6 1 -1 0 -6 1 0 0 -6 1 -1 0 -6 1 -1 0 -6 1 0 0 -6 1 -1 0 -6 1 0"/>
<path stroke="#FFA500" d="M419 282l0 -7 1 0 0 -6 1 0 0 -1 2 0 0 -1 1 0 0 -1 1 0 0 -1 1 0 0 -2 1 0 0 -1 1 0 0 -2 1 -1 0 -2 1 0 0 -2 1 0 0 -3 1 0 0 -4 1 0 0 -3 1 0 0 -4 1 0 0 -4 1 0 0 -4 1 0 0 -4 1 -1 0 -4 1 0 0 -4 1 -1 0 -4 1 0 0 -5 1 0M442 211l0 -2"/>
<path stroke="#FFA500" d="M442 211l1 0M443 213l0 -2M443 213l1 0M444 215l0 -2M444 215l1 0M445 217l0 -2M445 217l1 0M446 219l0 -2M446 219l1 0M447 221l0 -2M447 221l1 0M448 224l0 -3M448 224l1 0M449 227l0 -3M449 227l1 0M450 230l0 -3M450 230l1 0M451 233l0 -3"/>
<path stroke="#FFA500" d="M451 233l1 1M452 237l0 -3M452 237l1 1M453 241l0 -3M453 241l1 1M454 246l0 -4M454 246l1 0M455 250l0 -4M455 250l1 1M456 255l0 -4M456 255l1 1M457 260l0 -4M457 260l1 1M458 266l0 -5M458 266l1 0M459 272l0 -6M459 272l1 0M460 277l0 -5"/>
<path stroke="#FFA500" d="M460 277l1 1M461 283l0 -5M461 283l1 1M462 289l0 -5M462 289l1 1M463 296l0 -6M463 296l1 0M464 302l0 -6M464 302l1 0M465 308l0 -6M465 308l1 1M466 315l0 -6M466 315l1 0M467 321l0 -6M467 321l1 0M468 327l0 -6M468 327l1 1M469 334l0 -6"/>
<path stroke="#FFA500" d="M469 334l1 0M470 340l0 -6M470 340l1 0M471 346l0 -6M471 346l1 0M472 352l0 -6M472 352l1 1M473 358l0 -5M473 358l1 1M474 365l0 -6M474 365l1 0M475 371l0 -6M475 371l1 0M476 377l0 -6M476 377l1 0M477 383l0 -6M477 383l1 0M478 389l0 -6"/>
<path stroke="#FFA500" d="M478 389l1 0M479 395l0 -6M479 395l1 0M480 401l0 -6M480 401l1 0M481 407l0 -6M481 407l1 1M482 414l0 -6M482 414l1 0M483 419l0 -5M483 419l1 1M484 426l0 -6M484 426l1 0M485 432l0 -6M485 432l1 0M486 438l0 -6M486 438l1 0M487 444l0 -6"/>
<path stroke="#FFA500" d="M487 444l1 1M488 451l0 -6M488 451l1 0M489 457l0 -6M489 457l1 0M490 463l0 -6M490 463l1 1M491 470l0 -6M491 470l1 0M492 476l0 -6M492 476l1 0M493 482l0 -6M493 482l1 0M494 488l0 -6M494 488l1 1M495 494l0 -5M495 494l1 1M496 500l0 -5"/>
<path stroke="#FFA500" d="M496 500l1 1M497 507l0 -6M497 507l1 0M498 512l0 -5M498 512l1 1M499 518l0 -5M499 518l1 1M500 524l0 -5M500 524l1 1M501 531l0 -6M501 531l1 0M502 536l0 -5M502 536l1 1M503 542l0 -5M503 542l1 1M504 548l0 -5M504 548l1 1M505 553l0 -4"/>
<path stroke="#FFA500" d="M505 553l5 0M510 554l0 -1M510 554l1 0M511 555l0 -1M511 555l1 0M512 556l0 -1M512 556l1 0M513 558l0 -2M513 558l1 0M514 560l0 -2M514 560l1 0M515 562l0 -2M515 562l1 0M516 564l0 -2M516 564l1 0M517 567l0 -3M517 567l1 0M518 570l0 -3"/>
<path stroke="#FFA500" d="M518 570l1 0M519 573l0 -3M519 573l1 0M520 577l0 -4M520 577l1 0M521 581l0 -4M521 581l1 0M522 584l0 -3M522 584l1 1M523 588l0 -3M523 588l1 1M524 593l0 -4M524 593l1 0M525 597l0 -4M525 597l1 0M526 601l0 -4M526 601l1 0 0 -2"/>
<path stroke="#FFA500" d="M527 599l1 0 0 -2 1 0 0 -3 1 0 0 -2 1 0 0 -3 1 0 0 -3 1 0 0 -3 1 0 0 -3 1 0 0 -4 1 0 0 -4 1 0 0 -4 1 0 0 -5 1 0 0 -4 1 -1 0 -4 1 -1 0 -5 1 0 0 -5 1 -1 0 -5 1 -1 0 -5 1 -1 0 -5 1 -1 0 -6 1 0 0 -6 1 -1 0 -6 1 0 0 -7 1 0"/>
<path stroke="#FFA500" d="M550 498l0 -6 1 -1 0 -6 1 0 0 -7 1 0 0 -6 1 -1 0 -6 1 -1 0 -6 1 0 0 -7 1 0 0 -6 1 0 0 -7 1 0 0 -6 1 -1 0 -6 1 0 0 -6 1 0 0 -6 1 -1 0 -6 1 0 0 -6 1 -1 0 -6 1 0 0 -6 1 -1 0 -6 1 0 0 -6 1 0 0 -7 1 0 0 -6 1 -1 0 -6 1 0 0 -6"/>
<path stroke="#FFA500" d="M572 348l1 -1 0 -6 1 0 0 -7 1 0 0 -6 1 0 0 -7 1 0 0 -6 1 -1 0 -6 1 0 0 -6 1 -1 0 -6 1 0 0 -6 1 0 0 -6 1 -1 0 -6 1 0 0 -6 1 0 0 -6 1 -1 0 -5 1 -1 0 -6 1 0 0 -6 1 0 0 -6 1 -1 0 -3 3 0 0 -1 1 0 0 -1 2 0 0 -2 1 0 0 -1 1 0"/>
<path stroke="#FFA500" d="M598 230l0 -2 1 0 0 -2 1 0 0 -2 1 0 0 -3 1 0 0 -3 1 0 0 -3 1 0 0 -4 1 0 0 -3 1 -1 0 -3 1 -1 0 -3 1 -1 0 -4 1 0 0 -4 1 0 0 -4 1 -1 0 -3 1 0M612 185l0 -2M612 185l1 0M613 187l0 -2M613 187l1 1M614 190l0 -2M614 190l1 0M615 192l0 -2"/>
<path stroke="#FFA500" d="M615 192l1 0M616 195l0 -3M616 195l1 0M617 198l0 -3M617 198l1 0M618 201l0 -3M618 201l1 0M619 204l0 -3M619 204l1 0M620 208l0 -4M620 208l1 0M621 211l0 -3M621 211l1 1M622 216l0 -4M622 216l1 0M623 220l0 -4M623 220l1 0M624 225l0 -5"/>
<path stroke="#FFA500" d="M624 225l1 0M625 230l0 -5M625 230l1 0M626 235l0 -5M626 235l1 0M627 241l0 -6M627 241l1 0M628 247l0 -6M628 247l1 0M629 252l0 -5M629 252l1 1M630 259l0 -6M630 259l1 0M631 265l0 -6M631 265l1 0M632 271l0 -6M632 271l1 0M633 278l0 -7"/>
<path stroke="#FFA500" d="M633 278l1 0M634 284l0 -6M634 284l1 1M635 291l0 -6M635 291l1 0M636 297l0 -6M636 297l1 1M637 304l0 -6M637 304l1 0M638 311l0 -7M638 311l1 0M639 317l0 -6M639 317l1 0M640 324l0 -7M640 324l1 0M641 330l0 -6M641 330l1 1M642 337l0 -6"/>
<path stroke="#FFA500" d="M642 337l1 0M643 343l0 -6M643 343l1 0M644 350l0 -7M644 350l1 0M645 356l0 -6M645 356l1 0M646 362l0 -6M646 362l1 0M647 369l0 -7M647 369l1 0M648 375l0 -6M648 375l1 0M649 381l0 -6M649 381l1 0M650 387l0 -6M650 387l1 1M651 394l0 -6"/>
<path stroke="#FFA500" d="M651 394l1 0M652 400l0 -6M652 400l1 0M653 407l0 -7M653 407l1 0M654 413l0 -6M654 413l1 0M655 419l0 -6M655 419l1 1M656 426l0 -6M656 426l1 0M657 432l0 -6M657 432l1 1M658 439l0 -6M658 439l1 0M659 445l0 -6M659 445l1 1M660 452l0 -6"/>
<path stroke="#FFA500" d="M660 452l1 0M661 458l0 -6M661 458l1 0M662 465l0 -7M662 465l1 0M663 471l0 -6M663 471l1 1M664 477l0 -5M664 477l1 1M665 484l0 -6M665 484l1 0M666 490l0 -6M666 490l1 0M667 496l0 -6M667 496l1 0M668 502l0 -6M668 502l1 1M669 509l0 -6"/>
<path stroke="#FFA500" d="M669 509l1 0M670 515l0 -6M670 515l1 0M671 521l0 -6M671 521l1 0M672 527l0 -6M672 527l1 0M673 533l0 -6M673 533l1 0M674 539l0 -6M674 539l1 0M675 542l0 -3M675 542l3 0M678 543l0 -1M678 543l2 0M680 544l0 -1M680 544l1 0M681 545l0 -1"/>
<path stroke="#FFA500" d="M681 545l1 0M682 547l0 -2M682 547l1 0M683 548l0 -1M683 548l1 1M684 551l0 -2M684 551l1 0M685 553l0 -2M685 553l1 0M686 555l0 -2M686 555l1 1M687 558l0 -2M687 558l1 1M688 562l0 -3M688 562l1 0M689 565l0 -3M689 565l1 0M690 569l0 -4"/>
<path stroke="#FFA500" d="M690 569l1 0M691 573l0 -4M691 573l1 0M692 577l0 -4M692 577l1 0M693 581l0 -4M693 581l1 0M694 585l0 -4M694 585l1 0M695 590l0 -5M695 590l1 0M696 593l0 -3M696 592l1 0 0 -2 1 0 0 -3 1 0 0 -2 1 0 0 -3 1 0 0 -2 1 0 0 -3 1 0"/>
<path stroke="#FFA500" d="M703 577l0 -3 1 0 0 -4 1 0 0 -3 1 0 0 -4 1 -1 0 -4 1 0 0 -4 1 0 0 -5 1 0 0 -5 1 0 0 -6 1 0 0 -5 1 0 0 -6 1 0 0 -6 1 0 0 -6 1 0 0 -7 1 0 0 -6 1 0 0 -7 1 0 0 -6 1 0 0 -7 1 0 0 -7 1 0 0 -6 1 0 0 -7 1 0 0 -6 1 -1 0 -6 1 0"/>
<path stroke="#FFA500" d="M726 449l0 -6 1 -1 0 -6 1 0 0 -7 1 0 0 -6 1 0 0 -6 1 -1 0 -6 1 0 0 -6 1 0 0 -6 1 -1 0 -6 1 0 0 -6 1 0 0 -6 1 -1 0 -6 1 0 0 -6 1 -1 0 -6 1 0 0 -6 1 0 0 -7 1 0 0 -6 1 -1 0 -6 1 0 0 -6 1 -1 0 -6 1 0 0 -6 1 -1 0 -6 1 0 0 -6"/>
<path stroke="#FFA500" d="M748 301l1 -1 0 -6 1 0 0 -6 1 0 0 -6 1 -1 0 -6 1 0 0 -6 1 0 0 -6 1 0 0 -6 1 0 0 -6 1 -1 0 -5 1 -1 0 -6 1 0 0 -6 1 0 0 -2 4 0 0 -1 1 0 0 -1 1 0 0 -1 1 0 0 -2 1 0 0 -1 1 -1 0 -2 1 0 0 -2 1 0 0 -3 1 0 0 -3 1 0 0 -3 1 0"/>
<path stroke="#FFA500" d="M774 210l0 -4 1 0 0 -3 1 -1 0 -3 1 -1 0 -4 1 0 0 -4 1 0 0 -4 1 0 0 -4 1 -1 0 -2M781 180l1 1M782 183l0 -2M782 183l1 0M783 185l0 -2M783 185l1 0M784 187l0 -2M784 187l1 0M785 190l0 -3M785 190l1 0M786 193l0 -3M786 193l1 0"/>
<path stroke="#FFA500" d="M787 195l0 -2M787 195l1 1M788 199l0 -3M788 199l1 0M789 202l0 -3M789 202l1 0M790 206l0 -4M790 206l1 0M791 210l0 -4M791 210l1 0M792 214l0 -4M792 214l1 0M793 219l0 -5M793 219l1 0M794 224l0 -5M794 224l1 0M795 229l0 -5M795 229l1 0"/>
<path stroke="#FFA500" d="M796 234l0 -5M796 234l1 1M797 240l0 -5M797 240l1 0M798 246l0 -6M798 246l1 0M799 252l0 -6M799 252l1 0M800 258l0 -6M800 258l1 0M801 264l0 -6M801 264l1 1M802 271l0 -6M802 271l1 0M803 277l0 -6M803 277l1 1M804 284l0 -6M804 284l1 0"/>
<path stroke="#FFA500" d="M805 291l0 -7M805 291l1 0M806 297l0 -6M806 297l1 0M807 304l0 -7M807 304l1 0M808 310l0 -6M808 310l1 1M809 317l0 -6M809 317l1 0M810 323l0 -6M810 323l1 1M811 330l0 -6M811 330l1 0M812 337l0 -7M812 337l1 0M813 343l0 -6M813 343l1 0"/>
<path stroke="#FFA500" d="M814 349l0 -6M814 349l1 1M815 356l0 -6M815 356l1 0M816 362l0 -6M816 362l1 0M817 368l0 -6M817 368l1 1M818 375l0 -6M818 375l1 0M819 381l0 -6M819 381l1 0M820 387l0 -6M820 387l1 1M821 394l0 -6M821 394l1 0M822 400l0 -6M822 400l1 0"/>
<path stroke="#FFA500" d="M823 407l0 -7M823 407l1 0M824 413l0 -6M824 413l1 1M825 419l0 -5M825 419l1 1M826 426l0 -6M826 426l1 0M827 433l0 -7M827 433l1 0M828 439l0 -6M828 439l1 0M829 446l0 -7M829 446l1 0M830 452l0 -6M830 452l1 1M831 459l0 -6M831 459l1 0"/>
<path stroke="#FFA500" d="M832 465l0 -6M832 465l1 0M833 471l0 -6M833 471l1 1M834 478l0 -6M834 478l1 0M835 484l0 -6M835 484l1 0M836 490l0 -6M836 490l1 1M837 497l0 -6M837 497l1 0M838 503l0 -6M838 503l1 0M839 509l0 -6M839 509l1 0M840 515l0 -6M840 515l1 1"/>
<path stroke="#FFA500" d="M841 521l0 -5M841 521l1 1M842 527l0 -5M842 527l1 1M843 534l0 -6M843 534l1 0M844 540l0 -6M844 540l1 0M845 541l0 -1M845 541l4 0M849 542l0 -1M849 542l1 0M850 543l0 -1M850 543l1 0M851 544l0 -1M851 544l1 0M852 546l0 -2M852 546l1 0"/>
<path stroke="#FFA500" d="M853 548l0 -2M853 548l1 0M854 550l0 -2M854 550l1 0M855 552l0 -2M855 552l1 0M856 555l0 -3M856 555l1 0M857 558l0 -3M857 558l1 0M858 561l0 -3M858 561l1 1M859 565l0 -3M859 565l1 0M860 569l0 -4M860 569l1 0M861 573l0 -4M861 573l1 0"/>
<path stroke="#FFA500" d="M862 577l0 -4M862 577l1 0M863 581l0 -4M863 581l1 0M864 586l0 -5M864 586l1 0M865 590l0 -4M865 590l1 0M866 591l0 -1 1 0 0 -2 1 0 0 -3 1 0 0 -2 1 0 0 -3 1 0 0 -2 1 -1 0 -2 1 -1 0 -2 1 -1 0 -3 1 0 0 -4 1 0 0 -4 1 0 0 -4"/>
<path stroke="#FFA500" d="M877 556l1 0 0 -5 1 0 0 -5 1 0 0 -5 1 0 0 -6 1 0 0 -5 1 -1 0 -5 1 0 0 -6 1 0 0 -6 1 -1 0 -6 1 0 0 -6 1 -1 0 -6 1 0 0 -7 1 0 0 -6 1 0 0 -7 1 0 0 -6 1 -1 0 -6 1 0 0 -6 1 -1 0 -6 1 0 0 -7 1 0 0 -6 1 -1 0 -5 1 -1 0 -6 1 0"/>
<path stroke="#FFA500" d="M900 420l0 -6 1 -1 0 -6 1 0 0 -6 1 0 0 -6 1 -1 0 -6 1 0 0 -6 1 -1 0 -5 1 -1 0 -6 1 0 0 -5"/>
<path stroke="green" d="M60 39l45 0"/>
<text stroke="none" fill="white" font-size="16" x="115" y="48">
load_i_x10
</text>
<path stroke="green" d="M60 385l327 0 0 -3 1 0 0 -3 1 -1 0 -2 1 0 0 -3 1 0 0 -3 1 0 0 -2 1 0 0 -1 1 0 0 -2 1 0 0 -1 1 0 0 -1 1 0 0 -1 2 0 0 -1 2 0M401 362l0 -1M401 362l2 0M403 363l0 -1M403 363l1 0M404 364l0 -1M404 364l1 0M405 365l0 -1M405 365l1 0"/>
<path stroke="green" d="M406 366l0 -1M406 366l1 0M407 367l0 -1M407 367l1 0M408 369l0 -2M408 369l1 0M409 371l0 -2M409 371l1 0M410 373l0 -2M410 373l1 0M411 375l0 -2M411 375l1 0M412 377l0 -2M412 377l1 0M413 380l0 -3M413 380l1 0M414 382l0 -2M414 382l1 0"/>
<path stroke="green" d="M415 385l0 -3M415 385l30 0 0 -5 1 0 0 -5 1 -1 0 -4 1 -1 0 -4 1 0 0 -5 1 0 0 -4 1 0 0 -4 1 0 0 -4 1 0 0 -4 1 0 0 -3 1 0 0 -3 1 0 0 -3 1 0 0 -2 1 0 0 -2 1 -1 0 -1 1 -1 0 -1 1 0 0 -2 1 0 0 -1 1 0 0 -1 1 0 0 -1 2 0 0 -1 3 0"/>
<path stroke="green" d="M469 322l0 -1M469 322l2 0M471 323l0 -1M471 323l1 0M472 324l0 -1M472 324l1 0M473 325l0 -1M473 325l1 0M474 326l0 -1M474 326l1 0M475 327l0 -1M475 327l1 0M476 329l0 -2M476 329l1 0M477 330l0 -1M477 330l1 0M478 332l0 -2M478 332l1 0"/>
<path stroke="green" d="M479 334l0 -2M479 334l1 0M480 336l0 -2M480 336l1 0M481 339l0 -3M481 339l1 0M482 341l0 -2M482 341l1 0M483 343l0 -2M483 343l1 0M484 346l0 -3M484 346l1 0M485 349l0 -3M485 349l1 0M486 351l0 -2M486 351l1 1M487 354l0 -2M487 354l1 1"/>
<path stroke="green" d="M488 358l0 -3M488 358l1 0M489 361l0 -3M489 361l1 0M490 364l0 -3M490 364l1 0M491 367l0 -3M491 367l1 1M492 371l0 -3M492 371l1 0M493 374l0 -3M493 374l1 0M494 378l0 -4M494 378l1 0M495 382l0 -4M495 382l1 0M496 385l0 -3M496 385l37 0"/>
<path stroke="green" d="M533 385l0 -6 1 0 0 -6 1 0 0 -6 1 0 0 -6 1 0 0 -5 1 0 0 -5 1 0 0 -5 1 0 0 -4 1 0 0 -4 1 0 0 -4 1 0 0 -3 1 0 0 -3 1 0 0 -3 1 0 0 -2 1 -1 0 -2 1 0 0 -2 1 0 0 -1 1 0 0 -2 1 0 0 -1 1 0 0 -1 3 0 0 -1 1 0M556 313l0 -1M556 313l3 0"/>
<path stroke="green" d="M559 314l0 -1M559 314l1 0M560 315l0 -1M560 315l1 0M561 316l0 -1M561 316l1 0M562 317l0 -1M562 317l1 0M563 319l0 -2M563 319l1 0M564 320l0 -1M564 320l1 0M565 322l0 -2M565 322l1 0M566 324l0 -2M566 324l1 0M567 326l0 -2M567 326l1 0"/>
<path stroke="green" d="M568 328l0 -2M568 328l1 0M569 330l0 -2M569 330l1 1M570 333l0 -2M570 333l1 0M571 336l0 -3M571 336l1 0M572 338l0 -2M572 338l1 0M573 341l0 -3M573 341l1 0M574 344l0 -3M574 344l1 0M575 347l0 -3M575 347l1 0M576 350l0 -3M576 350l1 1"/>
<path stroke="green" d="M577 354l0 -3M577 354l1 0M578 357l0 -3M578 357l1 0M579 361l0 -4M579 361l1 0M580 364l0 -3M580 364l1 1M581 368l0 -3M581 368l1 0M582 372l0 -4M582 372l1 0M583 376l0 -4M583 376l1 0M584 380l0 -4M584 380l1 0M585 384l0 -4M585 384l1 0"/>
<path stroke="green" d="M586 385l0 -1M586 385l28 0 0 -1 1 0 0 -6 1 0 0 -6 1 0 0 -6 1 0 0 -5 1 -1 0 -5 1 0 0 -4 1 -1 0 -4 1 0 0 -4 1 -1 0 -3 1 -1 0 -3 1 0 0 -4 1 0 0 -3 1 0 0 -3 1 0 0 -3 1 0 0 -2 1 0 0 -2 1 0 0 -2 1 0 0 -1 1 0 0 -2 1 0 0 -1 2 0"/>
<path stroke="green" d="M636 311l0 -1 5 0M641 311l0 -1M641 311l1 0 1 1 1 0M644 314l0 -2M644 314l1 0M645 315l0 -1M645 315l1 0M646 316l0 -1M646 316l1 0M647 318l0 -2M647 318l1 0M648 320l0 -2M648 320l1 0M649 322l0 -2M649 322l1 0M650 324l0 -2M650 324l1 0"/>
<path stroke="green" d="M651 326l0 -2M651 326l1 0M652 328l0 -2M652 328l1 0M653 331l0 -3M653 331l1 0M654 333l0 -2M654 333l1 0M655 336l0 -3M655 336l1 0M656 339l0 -3M656 339l1 0M657 342l0 -3M657 342l1 0M658 345l0 -3M658 345l1 0M659 348l0 -3M659 348l1 0"/>
<path stroke="green" d="M660 351l0 -3M660 351l1 1M661 355l0 -3M661 355l1 0M662 358l0 -3M662 358l1 0M663 362l0 -4M663 362l1 0M664 365l0 -3M664 365l1 1M665 369l0 -3M665 369l1 0M666 373l0 -4M666 373l1 0M667 377l0 -4M667 377l1 0M668 381l0 -4M668 381l1 0"/>
<path stroke="green" d="M669 385l0 -4M669 385l31 0 0 -3 1 -1 0 -5 1 -1 0 -6 1 0 0 -5 1 -1 0 -5 1 0 0 -5 1 0 0 -5 1 0 0 -4 1 -1 0 -3 1 -1 0 -3 1 -1 0 -3 1 0 0 -4 1 0 0 -3 1 0 0 -2 1 -1 0 -2 1 0 0 -2 1 0 0 -2 1 0 0 -2 1 0 0 -1 1 0 0 -1 1 0 0 -1"/>
<path stroke="green" d="M720 311l1 0 0 -1 6 0M727 311l0 -1M727 311l1 0M728 312l0 -1M728 312l1 0M729 313l0 -1M729 313l1 0M730 314l0 -1M730 314l1 0M731 316l0 -2M731 316l1 0M732 317l0 -1M732 317l1 0M733 319l0 -2M733 319l1 0M734 321l0 -2M734 321l1 0"/>
<path stroke="green" d="M735 323l0 -2M735 323l1 0M736 325l0 -2M736 325l1 0M737 327l0 -2M737 327l1 0M738 330l0 -3M738 330l1 0M739 332l0 -2M739 332l1 0M740 335l0 -3M740 335l1 0M741 338l0 -3M741 338l1 0M742 341l0 -3M742 341l1 0M743 343l0 -2M743 343l1 1"/>
<path stroke="green" d="M744 347l0 -3M744 347l1 0M745 350l0 -3M745 350l1 0M746 353l0 -3M746 353l1 1M747 357l0 -3M747 357l1 0M748 360l0 -3M748 360l1 1M749 364l0 -3M749 364l1 0M750 368l0 -4M750 368l1 0M751 372l0 -4M751 372l1 0M752 376l0 -4M752 376l1 0"/>
<path stroke="green" d="M753 380l0 -4M753 380l1 0M754 384l0 -4M754 384l1 0M755 385l0 -1M755 385l30 0 0 -7 1 0 0 -6 1 0 0 -5 1 -1 0 -5 1 0 0 -5 1 -1 0 -4 1 0 0 -5 1 0 0 -4 1 -1 0 -4 1 0 0 -3 1 -1 0 -3 1 0 0 -3 1 0 0 -3 1 0 0 -3 1 0 0 -2 1 0 0 -2"/>
<path stroke="green" d="M800 317l1 0 0 -2 1 0 0 -2 1 0 0 -1 1 0 0 -1 1 0 0 -1 2 0 0 -1 2 0M809 310l0 -1M809 310l3 0M812 311l0 -1M812 311l1 0M813 312l0 -1M813 312l1 0M814 313l0 -1M814 313l1 0M815 315l0 -2M815 315l1 0M816 316l0 -1M816 316l1 0M817 318l0 -2"/>
<path stroke="green" d="M817 318l1 0M818 319l0 -1M818 319l1 1M819 321l0 -1M819 321l1 0M820 323l0 -2M820 323l1 0M821 326l0 -3M821 326l1 0M822 328l0 -2M822 328l1 0M823 330l0 -2M823 330l1 1M824 333l0 -2M824 333l1 0M825 336l0 -3M825 336l1 0M826 339l0 -3"/>
<path stroke="green" d="M826 339l1 0M827 342l0 -3M827 342l1 0M828 345l0 -3M828 345l1 0M829 348l0 -3M829 348l1 0M830 351l0 -3M830 351l1 0M831 355l0 -4M831 355l1 0M832 358l0 -3M832 358l1 0M833 362l0 -4M833 362l1 0M834 366l0 -4M834 366l1 0M835 369l0 -3"/>
<path stroke="green" d="M835 369l1 0M836 373l0 -4M836 373l1 0M837 377l0 -4M837 377l1 0M838 381l0 -4M838 381l1 0M839 385l0 -4M839 385l30 0 0 -1 1 0 0 -6 1 0 0 -6 1 0 0 -6 1 0 0 -5 1 -1 0 -5 1 0 0 -5 1 0 0 -4 1 0 0 -5 1 0 0 -4 1 0 0 -4 1 0 0 -3"/>
<path stroke="green" d="M880 330l1 0 0 -3 1 -1 0 -2 1 0 0 -3 1 0 0 -2 1 0 0 -2 1 0 0 -2 1 0 0 -2 1 0 0 -1 1 0 0 -1 1 0 0 -1 2 0 0 -1 2 0M894 310l0 -1M894 310l2 0M896 311l0 -1M896 311l2 0M898 312l0 -1M898 312l1 0M899 313l0 -1M899 313l1 0M900 315l0 -2"/>
<path stroke="green" d="M900 315l1 0M901 316l0 -1M901 316l1 0M902 318l0 -2M902 318l1 0M903 320l0 -2M903 320l1 0M904 322l0 -2M904 322l1 0M905 324l0 -2M905 324l1 0M906 326l0 -2M906 326l1 0M907 328l0 -2M907 328l1 0M908 330l0 -2"/>
</svg>
