<?xml version="1.0" standalone="no"?>
 <!DOCTYPE svg PUBLIC "-//W3C//DTD SVG 1.1//EN" 
 "http://www.w3.org/Graphics/SVG/1.1/DTD/svg11.dtd"> 
<svg
  xmlns:svg="http://www.w3.org/2000/svg"
  xmlns="http://www.w3.org/2000/svg"
  xmlns:xlink="http://www.w3.org/1999/xlink"
  version="1.1"
  width="29.700220cm" height="21.000720cm" viewBox="0 0 116930 82680">
<title>SVG Picture created as kicad_mixed.svg date 2023/10/15 15:01:12 </title>
  <desc>Picture generated by Eeschema-SVG </desc>
<g style="fill:#000000; fill-opacity:1.000000;stroke:#000000; stroke-opacity:1.000000;
stroke-linecap:round; stroke-linejoin:round;"
 transform="translate(0 0) scale(1 1)">
</g>
<g style="fill:#000000; fill-opacity:0.0; 
stroke:#000000; stroke-width:60.000000; stroke-opacity:1; 
stroke-linecap:round; stroke-linejoin:round;">
<g >
</g>
<g style="fill:#840000; fill-opacity:0.0; 
stroke:#840000; stroke-width:60.000000; stroke-opacity:1; 
stroke-linecap:round; stroke-linejoin:round;">
</g>
<g style="fill:#840000; fill-opacity:0.0; 
stroke:#840000; stroke-width:100.000000; stroke-opacity:1; 
stroke-linecap:round; stroke-linejoin:round;">
<rect x="34100.000000" y="33500.000000" width="800.000000" height="2000.000000" rx="0.000000" />
</g>
<g style="fill:#840000; fill-opacity:0.0; 
stroke:#840000; stroke-width:60.000000; stroke-opacity:1; 
stroke-linecap:round; stroke-linejoin:round;">
<path d="M34500 33500
L34500 33000
" />
<path d="M34500 35500
L34500 36000
" />
</g>
<g style="fill:#006464; fill-opacity:0.0; 
stroke:#006464; stroke-width:60.000000; stroke-opacity:1; 
stroke-linecap:round; stroke-linejoin:round;">
<text x="36019.330709" y="34249.921260"
textLength="1106.181102" font-size="666.653543" lengthAdjust="spacingAndGlyphs"
text-anchor="middle" opacity="0">R3</text>
<g class="stroked-text"><desc>R3</desc>
<path d="M35935 34226
L35769 33987
" />
<path d="M35650 34226
L35650 33726
L35840 33726
L35888 33749
L35912 33773
L35935 33821
L35935 33892
L35912 33940
L35888 33964
L35840 33987
L35650 33987
" />
<path d="M36102 33726
L36412 33726
L36245 33916
L36316 33916
L36364 33940
L36388 33964
L36412 34011
L36412 34130
L36388 34178
L36364 34202
L36316 34226
L36174 34226
L36126 34202
L36102 34178
" />
</g><text x="36209.803150" y="35249.921260"
textLength="1417.125984" font-size="666.653543" lengthAdjust="spacingAndGlyphs"
text-anchor="middle" opacity="0">89k</text>
<g class="stroked-text"><desc>89k</desc>
<path d="M35721 34940
L35674 34916
L35650 34892
L35626 34845
L35626 34821
L35650 34773
L35674 34749
L35721 34726
L35816 34726
L35864 34749
L35888 34773
L35912 34821
L35912 34845
L35888 34892
L35864 34916
L35816 34940
L35721 34940
L35674 34964
L35650 34987
L35626 35035
L35626 35130
L35650 35178
L35674 35202
L35721 35226
L35816 35226
L35864 35202
L35888 35178
L35912 35130
L35912 35035
L35888 34987
L35864 34964
L35816 34940
" />
<path d="M36150 35226
L36245 35226
L36293 35202
L36316 35178
L36364 35107
L36388 35011
L36388 34821
L36364 34773
L36340 34749
L36293 34726
L36197 34726
L36150 34749
L36126 34773
L36102 34821
L36102 34940
L36126 34987
L36150 35011
L36197 35035
L36293 35035
L36340 35011
L36364 34987
L36388 34940
" />
<path d="M36602 35226
L36602 34726
" />
<path d="M36650 35035
L36793 35226
" />
<path d="M36793 34892
L36602 35083
" />
</g></g>
</g>
<g style="fill:#006464; fill-opacity:0.0; 
stroke:#006464; stroke-width:60.000000; stroke-opacity:1; 
stroke-linecap:round; stroke-linejoin:round;">
<g >
</g>
<g style="fill:#840000; fill-opacity:0.0; 
stroke:#840000; stroke-width:60.000000; stroke-opacity:1; 
stroke-linecap:round; stroke-linejoin:round;">
<path style="fill:#840000; fill-opacity:0.0; 
stroke:#840000; stroke-width:60.000000; stroke-opacity:1; 
stroke-linecap:round; stroke-linejoin:round;fill:none"
d="M 25900.000000,22500.000000
27000.000000,22500.000000
" /> 
</g>
<g style="fill:#840000; fill-opacity:0.0; 
stroke:#840000; stroke-width:100.000000; stroke-opacity:1; 
stroke-linecap:round; stroke-linejoin:round;">
<path style="fill:#840000; fill-opacity:0.0; 
stroke:#840000; stroke-width:100.000000; stroke-opacity:1; 
stroke-linecap:round; stroke-linejoin:round;fill:none"
d="M 25900.000000,23250.000000
25900.000000,21750.000000
" /> 
<path style="fill:#840000; fill-opacity:0.0; 
stroke:#840000; stroke-width:100.000000; stroke-opacity:1; 
stroke-linecap:round; stroke-linejoin:round;fill:none"
d="M 25700.000000,22000.000000
25700.000000,21600.000000
" /> 
<path style="fill:#840000; fill-opacity:0.0; 
stroke:#840000; stroke-width:100.000000; stroke-opacity:1; 
stroke-linecap:round; stroke-linejoin:round;fill:none"
d="M 25700.000000,22700.000000
25700.000000,22300.000000
" /> 
<path style="fill:#840000; fill-opacity:0.0; 
stroke:#840000; stroke-width:100.000000; stroke-opacity:1; 
stroke-linecap:round; stroke-linejoin:round;fill:none"
d="M 25700.000000,23400.000000
25700.000000,23000.000000
" /> 
</g>
<g style="fill:#840000; fill-opacity:0.0; 
stroke:#840000; stroke-width:60.000000; stroke-opacity:1; 
stroke-linecap:round; stroke-linejoin:round;">
<path style="fill:#840000; fill-opacity:0.0; 
stroke:#840000; stroke-width:60.000000; stroke-opacity:1; 
stroke-linecap:round; stroke-linejoin:round;fill:none"
d="M 25000.000000,23500.000000
25000.000000,23200.000000
" /> 
<path style="fill:#840000; fill-opacity:0.0; 
stroke:#840000; stroke-width:60.000000; stroke-opacity:1; 
stroke-linecap:round; stroke-linejoin:round;fill:none"
d="M 25000.000000,21500.000000
25000.000000,22500.000000
25700.000000,22500.000000
" /> 
<path style="fill:#840000; fill-opacity:0.0; 
stroke:#840000; stroke-width:60.000000; stroke-opacity:1; 
stroke-linecap:round; stroke-linejoin:round;fill:none"
d="M 25700.000000,23200.000000
24700.000000,23200.000000
24700.000000,21800.000000
25700.000000,21800.000000
" /> 
</g>
<g style="fill:#840000; fill-opacity:1.0; 
stroke:#840000; stroke-width:60.000000; stroke-opacity:1; 
stroke-linecap:round; stroke-linejoin:round;">
<path style="fill:#840000; fill-opacity:1.0; 
stroke:#840000; stroke-width:60.000000; stroke-opacity:1; 
stroke-linecap:round; stroke-linejoin:round;fill-rule:evenodd;"
d="M 25100.000000,22500.000000
25500.000000,22650.000000
25500.000000,22350.000000
Z" /> 
</g>
<g style="fill:#840000; fill-opacity:0.0; 
stroke:#840000; stroke-width:60.000000; stroke-opacity:1; 
stroke-linecap:round; stroke-linejoin:round;">
<path style="fill:#840000; fill-opacity:0.0; 
stroke:#840000; stroke-width:60.000000; stroke-opacity:1; 
stroke-linecap:round; stroke-linejoin:round;fill:none"
d="M 24900.000000,22300.000000
24850.000000,22350.000000
24550.000000,22350.000000
24500.000000,22400.000000
" /> 
<path style="fill:#840000; fill-opacity:0.0; 
stroke:#840000; stroke-width:60.000000; stroke-opacity:1; 
stroke-linecap:round; stroke-linejoin:round;fill:none"
d="M 24700.000000,22350.000000
24850.000000,22600.000000
24550.000000,22600.000000
Z" /> 
</g>
<g style="fill:#840000; fill-opacity:0.0; 
stroke:#840000; stroke-width:100.000000; stroke-opacity:1; 
stroke-linecap:round; stroke-linejoin:round;">
<circle cx="25350.000000" cy="22500.000000" r="1100.000000" /> 
</g>
<g style="fill:#840000; fill-opacity:1.0; 
stroke:#840000; stroke-width:60.000000; stroke-opacity:1; 
stroke-linecap:round; stroke-linejoin:round;">
<circle cx="25000.000000" cy="21800.000000" r="100.000000" /> 
<circle cx="25000.000000" cy="23200.000000" r="100.000000" /> 
</g>
<g style="fill:#840000; fill-opacity:0.0; 
stroke:#840000; stroke-width:60.000000; stroke-opacity:1; 
stroke-linecap:round; stroke-linejoin:round;">
<path d="M25000 23500
L25000 24500
" />
</g>
<g style="fill:#A90000; fill-opacity:0.0; 
stroke:#A90000; stroke-width:60.000000; stroke-opacity:1; 
stroke-linecap:round; stroke-linejoin:round;">
<g transform="rotate(-90.000000 25100.000000 24000.000000)">
<text x="25100.000000" y="24500.000000"
textLength="536.181102" font-size="666.653543" lengthAdjust="spacingAndGlyphs"
text-anchor="middle" opacity="0">1</text>
</g>
<g class="stroked-text"><desc>1</desc>
<path d="M25576 23857
L25576 24142
" />
<path d="M25576 24000
L25076 24000
L25147 24047
L25195 24095
L25219 24142
" />
</g></g>
<g style="fill:#840000; fill-opacity:0.0; 
stroke:#840000; stroke-width:60.000000; stroke-opacity:1; 
stroke-linecap:round; stroke-linejoin:round;">
<path d="M27000 22500
L28000 22500
" />
</g>
<g style="fill:#A90000; fill-opacity:0.0; 
stroke:#A90000; stroke-width:60.000000; stroke-opacity:1; 
stroke-linecap:round; stroke-linejoin:round;">
<text x="27500.000000" y="23100.000000"
textLength="536.181102" font-size="666.653543" lengthAdjust="spacingAndGlyphs"
text-anchor="middle" opacity="0">2</text>
<g class="stroked-text"><desc>2</desc>
<path d="M27357 22623
L27380 22600
L27428 22576
L27547 22576
L27595 22600
L27619 22623
L27642 22671
L27642 22719
L27619 22790
L27333 23076
L27642 23076
" />
</g></g>
<g style="fill:#840000; fill-opacity:0.0; 
stroke:#840000; stroke-width:60.000000; stroke-opacity:1; 
stroke-linecap:round; stroke-linejoin:round;">
<path d="M25000 21500
L25000 20500
" />
</g>
<g style="fill:#A90000; fill-opacity:0.0; 
stroke:#A90000; stroke-width:60.000000; stroke-opacity:1; 
stroke-linecap:round; stroke-linejoin:round;">
<g transform="rotate(-90.000000 25100.000000 21000.000000)">
<text x="25100.000000" y="21500.000000"
textLength="536.181102" font-size="666.653543" lengthAdjust="spacingAndGlyphs"
text-anchor="middle" opacity="0">3</text>
</g>
<g class="stroked-text"><desc>3</desc>
<path d="M25076 21166
L25076 20857
L25266 21023
L25266 20952
L25290 20904
L25314 20880
L25361 20857
L25480 20857
L25528 20880
L25552 20904
L25576 20952
L25576 21095
L25552 21142
L25528 21166
" />
</g></g>
<g style="fill:#006464; fill-opacity:0.0; 
stroke:#006464; stroke-width:60.000000; stroke-opacity:1; 
stroke-linecap:round; stroke-linejoin:round;">
<text x="22968.740157" y="22249.960630"
textLength="1060.000000" font-size="666.653543" lengthAdjust="spacingAndGlyphs"
text-anchor="middle" opacity="0">Q1</text>
<g class="stroked-text"><desc>Q1</desc>
<path d="M22921 22273
L22873 22249
L22825 22202
L22754 22130
L22706 22107
L22659 22107
" />
<path d="M22682 22226
L22635 22202
L22587 22154
L22563 22059
L22563 21892
L22587 21797
L22635 21749
L22682 21726
L22778 21726
L22825 21749
L22873 21797
L22897 21892
L22897 22059
L22873 22154
L22825 22202
L22778 22226
L22682 22226
" />
<path d="M23373 22226
L23087 22226
" />
<path d="M23230 22226
L23230 21726
L23182 21797
L23135 21845
L23087 21868
" />
</g><text x="21052.047244" y="23249.960630"
textLength="4893.346457" font-size="666.653543" lengthAdjust="spacingAndGlyphs"
text-anchor="middle" opacity="0">Q_PMOS_DGS</text>
<g class="stroked-text"><desc>Q_PMOS_DGS</desc>
<path d="M19087 23273
L19040 23249
L18992 23202
L18921 23130
L18873 23107
L18825 23107
" />
<path d="M18849 23226
L18802 23202
L18754 23154
L18730 23059
L18730 22892
L18754 22797
L18802 22749
L18849 22726
L18944 22726
L18992 22749
L19040 22797
L19063 22892
L19063 23059
L19040 23154
L18992 23202
L18944 23226
L18849 23226
" />
<path d="M19159 23273
L19540 23273
" />
<path d="M19659 23226
L19659 22726
L19849 22726
L19897 22749
L19921 22773
L19944 22821
L19944 22892
L19921 22940
L19897 22964
L19849 22988
L19659 22988
" />
<path d="M20159 23226
L20159 22726
L20325 23083
L20492 22726
L20492 23226
" />
<path d="M20825 22726
L20921 22726
L20968 22749
L21016 22797
L21040 22892
L21040 23059
L21016 23154
L20968 23202
L20921 23226
L20825 23226
L20778 23202
L20730 23154
L20706 23059
L20706 22892
L20730 22797
L20778 22749
L20825 22726
" />
<path d="M21230 23202
L21302 23226
L21421 23226
L21468 23202
L21492 23178
L21516 23130
L21516 23083
L21492 23035
L21468 23011
L21421 22988
L21325 22964
L21278 22940
L21254 22916
L21230 22868
L21230 22821
L21254 22773
L21278 22749
L21325 22726
L21444 22726
L21516 22749
" />
<path d="M21611 23273
L21992 23273
" />
<path d="M22111 23226
L22111 22726
L22230 22726
L22302 22749
L22349 22797
L22373 22845
L22397 22940
L22397 23011
L22373 23107
L22349 23154
L22302 23202
L22230 23226
L22111 23226
" />
<path d="M22873 22749
L22825 22726
L22754 22726
L22682 22749
L22635 22797
L22611 22845
L22587 22940
L22587 23011
L22611 23107
L22635 23154
L22682 23202
L22754 23226
L22802 23226
L22873 23202
L22897 23178
L22897 23011
L22802 23011
" />
<path d="M23087 23202
L23159 23226
L23278 23226
L23325 23202
L23349 23178
L23373 23130
L23373 23083
L23349 23035
L23325 23011
L23278 22988
L23182 22964
L23135 22940
L23111 22916
L23087 22868
L23087 22821
L23111 22773
L23135 22749
L23182 22726
L23302 22726
L23373 22749
" />
</g></g>
</g>
<g style="fill:#006464; fill-opacity:0.0; 
stroke:#006464; stroke-width:60.000000; stroke-opacity:1; 
stroke-linecap:round; stroke-linejoin:round;">
<g >
</g>
<g style="fill:#840000; fill-opacity:0.0; 
stroke:#840000; stroke-width:60.000000; stroke-opacity:1; 
stroke-linecap:round; stroke-linejoin:round;">
</g>
<g style="fill:#840000; fill-opacity:0.0; 
stroke:#840000; stroke-width:100.000000; stroke-opacity:1; 
stroke-linecap:round; stroke-linejoin:round;">
<path style="fill:#840000; fill-opacity:0.0; 
stroke:#840000; stroke-width:100.000000; stroke-opacity:1; 
stroke-linecap:round; stroke-linejoin:round;fill:none"
d="M 16500.000000,26500.000000
15500.000000,26500.000000
" /> 
</g>
<g style="fill:#840000; fill-opacity:0.0; 
stroke:#840000; stroke-width:60.000000; stroke-opacity:1; 
stroke-linecap:round; stroke-linejoin:round;">
<path style="fill:#840000; fill-opacity:0.0; 
stroke:#840000; stroke-width:60.000000; stroke-opacity:1; 
stroke-linecap:round; stroke-linejoin:round;fill:none"
d="M 16000.000000,26500.000000
16000.000000,25500.000000
" /> 
</g>
<g style="fill:#840000; fill-opacity:0.0; 
stroke:#840000; stroke-width:100.000000; stroke-opacity:1; 
stroke-linecap:round; stroke-linejoin:round;">
<path style="fill:#840000; fill-opacity:0.0; 
stroke:#840000; stroke-width:100.000000; stroke-opacity:1; 
stroke-linecap:round; stroke-linejoin:round;fill:none"
d="M 16500.000000,25500.000000
15500.000000,25500.000000
16000.000000,26500.000000
Z" /> 
</g>
<g style="fill:#840000; fill-opacity:0.0; 
stroke:#840000; stroke-width:60.000000; stroke-opacity:1; 
stroke-linecap:round; stroke-linejoin:round;">
<path style="fill:#840000; fill-opacity:0.0; 
stroke:#840000; stroke-width:60.000000; stroke-opacity:1; 
stroke-linecap:round; stroke-linejoin:round;fill:none"
d="M 16300.000000,27200.000000
16900.000000,27800.000000
16900.000000,27500.000000
16900.000000,27800.000000
16600.000000,27800.000000
" /> 
<path style="fill:#840000; fill-opacity:0.0; 
stroke:#840000; stroke-width:60.000000; stroke-opacity:1; 
stroke-linecap:round; stroke-linejoin:round;fill:none"
d="M 16300.000000,26700.000000
16900.000000,27300.000000
16900.000000,27000.000000
16900.000000,27300.000000
16600.000000,27300.000000
" /> 
<path d="M16000 26500
L16000 27500
" />
<path d="M16000 25500
L16000 24500
" />
</g>
<g style="fill:#006464; fill-opacity:0.0; 
stroke:#006464; stroke-width:60.000000; stroke-opacity:1; 
stroke-linecap:round; stroke-linejoin:round;">
<text x="18019.330709" y="26374.960630"
textLength="1036.181102" font-size="666.653543" lengthAdjust="spacingAndGlyphs"
text-anchor="middle" opacity="0">D2</text>
<g class="stroked-text"><desc>D2</desc>
<path d="M17650 26351
L17650 25851
L17769 25851
L17840 25874
L17888 25922
L17912 25970
L17935 26065
L17935 26136
L17912 26232
L17888 26279
L17840 26327
L17769 26351
L17650 26351
" />
<path d="M18126 25898
L18150 25874
L18197 25851
L18316 25851
L18364 25874
L18388 25898
L18412 25946
L18412 25993
L18388 26065
L18102 26351
L18412 26351
" />
</g><text x="18209.803150" y="27374.960630"
textLength="1417.125984" font-size="666.653543" lengthAdjust="spacingAndGlyphs"
text-anchor="middle" opacity="0">LED</text>
<g class="stroked-text"><desc>LED</desc>
<path d="M17888 27351
L17650 27351
L17650 26851
" />
<path d="M18055 27089
L18221 27089
" />
<path d="M18293 27351
L18055 27351
L18055 26851
L18293 26851
" />
<path d="M18507 27351
L18507 26851
L18626 26851
L18697 26874
L18745 26922
L18769 26970
L18793 27065
L18793 27136
L18769 27232
L18745 27279
L18697 27327
L18626 27351
L18507 27351
" />
</g></g>
</g>
<g style="fill:#006464; fill-opacity:0.0; 
stroke:#006464; stroke-width:60.000000; stroke-opacity:1; 
stroke-linecap:round; stroke-linejoin:round;">
<g >
</g>
<g style="fill:#840000; fill-opacity:0.0; 
stroke:#840000; stroke-width:60.000000; stroke-opacity:1; 
stroke-linecap:round; stroke-linejoin:round;">
</g>
<g style="fill:#840000; fill-opacity:0.0; 
stroke:#840000; stroke-width:100.000000; stroke-opacity:1; 
stroke-linecap:round; stroke-linejoin:round;">
<rect x="15600.000000" y="48000.000000" width="800.000000" height="2000.000000" rx="0.000000" />
</g>
<g style="fill:#840000; fill-opacity:0.0; 
stroke:#840000; stroke-width:60.000000; stroke-opacity:1; 
stroke-linecap:round; stroke-linejoin:round;">
<path d="M16000 50000
L16000 50500
" />
<path d="M16000 48000
L16000 47500
" />
</g>
<g style="fill:#006464; fill-opacity:0.0; 
stroke:#006464; stroke-width:60.000000; stroke-opacity:1; 
stroke-linecap:round; stroke-linejoin:round;">
<text x="17519.330709" y="48749.960630"
textLength="1036.181102" font-size="666.653543" lengthAdjust="spacingAndGlyphs"
text-anchor="middle" opacity="0">R1</text>
<g class="stroked-text"><desc>R1</desc>
<path d="M17435 48726
L17269 48488
" />
<path d="M17150 48726
L17150 48226
L17340 48226
L17388 48249
L17412 48273
L17435 48321
L17435 48392
L17412 48440
L17388 48464
L17340 48488
L17150 48488
" />
<path d="M17912 48726
L17626 48726
" />
<path d="M17769 48726
L17769 48226
L17721 48297
L17674 48345
L17626 48368
" />
</g><text x="17626.496063" y="49749.960630"
textLength="1250.472441" font-size="666.653543" lengthAdjust="spacingAndGlyphs"
text-anchor="middle" opacity="0">0.2</text>
<g class="stroked-text"><desc>0.2</desc>
<path d="M17245 49226
L17293 49226
L17340 49249
L17364 49273
L17388 49321
L17412 49416
L17412 49535
L17388 49630
L17364 49678
L17340 49702
L17293 49726
L17245 49726
L17197 49702
L17174 49678
L17150 49630
L17126 49535
L17126 49416
L17150 49321
L17174 49273
L17197 49249
L17245 49226
" />
<path d="M17626 49678
L17650 49702
L17626 49726
L17602 49702
L17626 49678
L17626 49726
" />
<path d="M17840 49273
L17864 49249
L17912 49226
L18031 49226
L18078 49249
L18102 49273
L18126 49321
L18126 49368
L18102 49440
L17816 49726
L18126 49726
" />
</g></g>
</g>
<g style="fill:#006464; fill-opacity:0.0; 
stroke:#006464; stroke-width:60.000000; stroke-opacity:1; 
stroke-linecap:round; stroke-linejoin:round;">
<g >
</g>
<g style="fill:#840000; fill-opacity:0.0; 
stroke:#840000; stroke-width:60.000000; stroke-opacity:1; 
stroke-linecap:round; stroke-linejoin:round;">
</g>
<g style="fill:#840000; fill-opacity:0.0; 
stroke:#840000; stroke-width:100.000000; stroke-opacity:1; 
stroke-linecap:round; stroke-linejoin:round;">
<path style="fill:#840000; fill-opacity:0.0; 
stroke:#840000; stroke-width:100.000000; stroke-opacity:1; 
stroke-linecap:round; stroke-linejoin:round;fill:none"
d="M 16500.000000,18500.000000
15500.000000,18500.000000
" /> 
</g>
<g style="fill:#840000; fill-opacity:0.0; 
stroke:#840000; stroke-width:60.000000; stroke-opacity:1; 
stroke-linecap:round; stroke-linejoin:round;">
<path style="fill:#840000; fill-opacity:0.0; 
stroke:#840000; stroke-width:60.000000; stroke-opacity:1; 
stroke-linecap:round; stroke-linejoin:round;fill:none"
d="M 16000.000000,18500.000000
16000.000000,17500.000000
" /> 
</g>
<g style="fill:#840000; fill-opacity:0.0; 
stroke:#840000; stroke-width:100.000000; stroke-opacity:1; 
stroke-linecap:round; stroke-linejoin:round;">
<path style="fill:#840000; fill-opacity:0.0; 
stroke:#840000; stroke-width:100.000000; stroke-opacity:1; 
stroke-linecap:round; stroke-linejoin:round;fill:none"
d="M 16500.000000,17500.000000
15500.000000,17500.000000
16000.000000,18500.000000
Z" /> 
</g>
<g style="fill:#840000; fill-opacity:0.0; 
stroke:#840000; stroke-width:60.000000; stroke-opacity:1; 
stroke-linecap:round; stroke-linejoin:round;">
<path style="fill:#840000; fill-opacity:0.0; 
stroke:#840000; stroke-width:60.000000; stroke-opacity:1; 
stroke-linecap:round; stroke-linejoin:round;fill:none"
d="M 16300.000000,19200.000000
16900.000000,19800.000000
16900.000000,19500.000000
16900.000000,19800.000000
16600.000000,19800.000000
" /> 
<path style="fill:#840000; fill-opacity:0.0; 
stroke:#840000; stroke-width:60.000000; stroke-opacity:1; 
stroke-linecap:round; stroke-linejoin:round;fill:none"
d="M 16300.000000,18700.000000
16900.000000,19300.000000
16900.000000,19000.000000
16900.000000,19300.000000
16600.000000,19300.000000
" /> 
<path d="M16000 18500
L16000 19500
" />
<path d="M16000 17500
L16000 16500
" />
</g>
<g style="fill:#006464; fill-opacity:0.0; 
stroke:#006464; stroke-width:60.000000; stroke-opacity:1; 
stroke-linecap:round; stroke-linejoin:round;">
<text x="17999.960630" y="18250.000000"
textLength="1036.181102" font-size="666.653543" lengthAdjust="spacingAndGlyphs"
text-anchor="middle" opacity="0">D1</text>
<g class="stroked-text"><desc>D1</desc>
<path d="M17630 18226
L17630 17726
L17749 17726
L17821 17750
L17868 17797
L17892 17845
L17916 17940
L17916 18011
L17892 18107
L17868 18154
L17821 18202
L17749 18226
L17630 18226
" />
<path d="M18392 18226
L18107 18226
" />
<path d="M18249 18226
L18249 17726
L18202 17797
L18154 17845
L18107 17869
" />
</g><text x="17999.960630" y="19250.000000"
textLength="1417.125984" font-size="666.653543" lengthAdjust="spacingAndGlyphs"
text-anchor="middle" opacity="0">LED</text>
<g class="stroked-text"><desc>LED</desc>
<path d="M17678 19226
L17440 19226
L17440 18726
" />
<path d="M17845 18964
L18011 18964
" />
<path d="M18083 19226
L17845 19226
L17845 18726
L18083 18726
" />
<path d="M18297 19226
L18297 18726
L18416 18726
L18488 18750
L18535 18797
L18559 18845
L18583 18940
L18583 19011
L18559 19107
L18535 19154
L18488 19202
L18416 19226
L18297 19226
" />
</g></g>
</g>
<g style="fill:#006464; fill-opacity:0.0; 
stroke:#006464; stroke-width:60.000000; stroke-opacity:1; 
stroke-linecap:round; stroke-linejoin:round;">
<g >
</g>
<g style="fill:#840000; fill-opacity:0.0; 
stroke:#840000; stroke-width:60.000000; stroke-opacity:1; 
stroke-linecap:round; stroke-linejoin:round;">
</g>
<g style="fill:#840000; fill-opacity:0.0; 
stroke:#840000; stroke-width:100.000000; stroke-opacity:1; 
stroke-linecap:round; stroke-linejoin:round;">
<path style="fill:#840000; fill-opacity:0.0; 
stroke:#840000; stroke-width:100.000000; stroke-opacity:1; 
stroke-linecap:round; stroke-linejoin:round;fill:none"
d="M 16500.000000,44000.000000
15500.000000,44000.000000
" /> 
</g>
<g style="fill:#840000; fill-opacity:0.0; 
stroke:#840000; stroke-width:60.000000; stroke-opacity:1; 
stroke-linecap:round; stroke-linejoin:round;">
<path style="fill:#840000; fill-opacity:0.0; 
stroke:#840000; stroke-width:60.000000; stroke-opacity:1; 
stroke-linecap:round; stroke-linejoin:round;fill:none"
d="M 16000.000000,44000.000000
16000.000000,43000.000000
" /> 
</g>
<g style="fill:#840000; fill-opacity:0.0; 
stroke:#840000; stroke-width:100.000000; stroke-opacity:1; 
stroke-linecap:round; stroke-linejoin:round;">
<path style="fill:#840000; fill-opacity:0.0; 
stroke:#840000; stroke-width:100.000000; stroke-opacity:1; 
stroke-linecap:round; stroke-linejoin:round;fill:none"
d="M 16500.000000,43000.000000
15500.000000,43000.000000
16000.000000,44000.000000
Z" /> 
</g>
<g style="fill:#840000; fill-opacity:0.0; 
stroke:#840000; stroke-width:60.000000; stroke-opacity:1; 
stroke-linecap:round; stroke-linejoin:round;">
<path style="fill:#840000; fill-opacity:0.0; 
stroke:#840000; stroke-width:60.000000; stroke-opacity:1; 
stroke-linecap:round; stroke-linejoin:round;fill:none"
d="M 16300.000000,44700.000000
16900.000000,45300.000000
16900.000000,45000.000000
16900.000000,45300.000000
16600.000000,45300.000000
" /> 
<path style="fill:#840000; fill-opacity:0.0; 
stroke:#840000; stroke-width:60.000000; stroke-opacity:1; 
stroke-linecap:round; stroke-linejoin:round;fill:none"
d="M 16300.000000,44200.000000
16900.000000,44800.000000
16900.000000,44500.000000
16900.000000,44800.000000
16600.000000,44800.000000
" /> 
<path d="M16000 44000
L16000 45000
" />
<path d="M16000 43000
L16000 42000
" />
</g>
<g style="fill:#006464; fill-opacity:0.0; 
stroke:#006464; stroke-width:60.000000; stroke-opacity:1; 
stroke-linecap:round; stroke-linejoin:round;">
<text x="18019.330709" y="43874.960630"
textLength="1036.181102" font-size="666.653543" lengthAdjust="spacingAndGlyphs"
text-anchor="middle" opacity="0">D4</text>
<g class="stroked-text"><desc>D4</desc>
<path d="M17650 43851
L17650 43351
L17769 43351
L17840 43374
L17888 43422
L17912 43470
L17935 43565
L17935 43636
L17912 43732
L17888 43779
L17840 43827
L17769 43851
L17650 43851
" />
<path d="M18364 43517
L18364 43851
" />
<path d="M18245 43327
L18126 43684
L18435 43684
" />
</g><text x="18209.803150" y="44874.960630"
textLength="1417.125984" font-size="666.653543" lengthAdjust="spacingAndGlyphs"
text-anchor="middle" opacity="0">LED</text>
<g class="stroked-text"><desc>LED</desc>
<path d="M17888 44851
L17650 44851
L17650 44351
" />
<path d="M18055 44589
L18221 44589
" />
<path d="M18293 44851
L18055 44851
L18055 44351
L18293 44351
" />
<path d="M18507 44851
L18507 44351
L18626 44351
L18697 44374
L18745 44422
L18769 44470
L18793 44565
L18793 44636
L18769 44732
L18745 44779
L18697 44827
L18626 44851
L18507 44851
" />
</g></g>
</g>
<g style="fill:#006464; fill-opacity:0.0; 
stroke:#006464; stroke-width:60.000000; stroke-opacity:1; 
stroke-linecap:round; stroke-linejoin:round;">
<g >
</g>
<g style="fill:#840000; fill-opacity:0.0; 
stroke:#840000; stroke-width:60.000000; stroke-opacity:1; 
stroke-linecap:round; stroke-linejoin:round;">
</g>
<g style="fill:#840000; fill-opacity:0.0; 
stroke:#840000; stroke-width:100.000000; stroke-opacity:1; 
stroke-linecap:round; stroke-linejoin:round;">
<rect x="34100.000000" y="16500.000000" width="800.000000" height="2000.000000" rx="0.000000" />
</g>
<g style="fill:#840000; fill-opacity:0.0; 
stroke:#840000; stroke-width:60.000000; stroke-opacity:1; 
stroke-linecap:round; stroke-linejoin:round;">
<path d="M34500 16500
L34500 16000
" />
<path d="M34500 18500
L34500 19000
" />
</g>
<g style="fill:#006464; fill-opacity:0.0; 
stroke:#006464; stroke-width:60.000000; stroke-opacity:1; 
stroke-linecap:round; stroke-linejoin:round;">
<text x="36019.330709" y="17249.921260"
textLength="1036.181102" font-size="666.653543" lengthAdjust="spacingAndGlyphs"
text-anchor="middle" opacity="0">R2</text>
<g class="stroked-text"><desc>R2</desc>
<path d="M35935 17226
L35769 16987
" />
<path d="M35650 17226
L35650 16726
L35840 16726
L35888 16749
L35912 16773
L35935 16821
L35935 16892
L35912 16940
L35888 16964
L35840 16987
L35650 16987
" />
<path d="M36126 16773
L36150 16749
L36197 16726
L36316 16726
L36364 16749
L36388 16773
L36412 16821
L36412 16868
L36388 16940
L36102 17226
L36412 17226
" />
</g><text x="36209.803150" y="18249.921260"
textLength="1417.125984" font-size="666.653543" lengthAdjust="spacingAndGlyphs"
text-anchor="middle" opacity="0">10k</text>
<g class="stroked-text"><desc>10k</desc>
<path d="M35912 18226
L35626 18226
" />
<path d="M35769 18226
L35769 17726
L35721 17797
L35674 17845
L35626 17868
" />
<path d="M36221 17726
L36269 17726
L36316 17749
L36340 17773
L36364 17821
L36388 17916
L36388 18035
L36364 18130
L36340 18178
L36316 18202
L36269 18226
L36221 18226
L36174 18202
L36150 18178
L36126 18130
L36102 18035
L36102 17916
L36126 17821
L36150 17773
L36174 17749
L36221 17726
" />
<path d="M36602 18226
L36602 17726
" />
<path d="M36650 18035
L36793 18226
" />
<path d="M36793 17892
L36602 18083
" />
</g></g>
</g>
<g style="fill:#006464; fill-opacity:0.0; 
stroke:#006464; stroke-width:60.000000; stroke-opacity:1; 
stroke-linecap:round; stroke-linejoin:round;">
<g >
</g>
<g style="fill:#840000; fill-opacity:0.0; 
stroke:#840000; stroke-width:60.000000; stroke-opacity:1; 
stroke-linecap:round; stroke-linejoin:round;">
</g>
<g style="fill:#840000; fill-opacity:0.0; 
stroke:#840000; stroke-width:100.000000; stroke-opacity:1; 
stroke-linecap:round; stroke-linejoin:round;">
<rect x="34100.000000" y="48000.000000" width="800.000000" height="2000.000000" rx="0.000000" />
</g>
<g style="fill:#840000; fill-opacity:0.0; 
stroke:#840000; stroke-width:60.000000; stroke-opacity:1; 
stroke-linecap:round; stroke-linejoin:round;">
<path d="M34500 48000
L34500 47500
" />
<path d="M34500 50000
L34500 50500
" />
</g>
<g style="fill:#006464; fill-opacity:0.0; 
stroke:#006464; stroke-width:60.000000; stroke-opacity:1; 
stroke-linecap:round; stroke-linejoin:round;">
<text x="36019.330709" y="48749.921260"
textLength="1036.181102" font-size="666.653543" lengthAdjust="spacingAndGlyphs"
text-anchor="middle" opacity="0">R4</text>
<g class="stroked-text"><desc>R4</desc>
<path d="M35935 48726
L35769 48487
" />
<path d="M35650 48726
L35650 48226
L35840 48226
L35888 48249
L35912 48273
L35935 48321
L35935 48392
L35912 48440
L35888 48464
L35840 48487
L35650 48487
" />
<path d="M36364 48392
L36364 48726
" />
<path d="M36245 48202
L36126 48559
L36435 48559
" />
</g><text x="35971.732283" y="49749.921260"
textLength="940.944882" font-size="666.653543" lengthAdjust="spacingAndGlyphs"
text-anchor="middle" opacity="0">1k</text>
<g class="stroked-text"><desc>1k</desc>
<path d="M35912 49726
L35626 49726
" />
<path d="M35769 49726
L35769 49226
L35721 49297
L35674 49345
L35626 49368
" />
<path d="M36126 49726
L36126 49226
" />
<path d="M36174 49535
L36316 49726
" />
<path d="M36316 49392
L36126 49583
" />
</g></g>
</g>
<g style="fill:#006464; fill-opacity:0.0; 
stroke:#006464; stroke-width:60.000000; stroke-opacity:1; 
stroke-linecap:round; stroke-linejoin:round;">
<g >
</g>
<g style="fill:#840000; fill-opacity:0.0; 
stroke:#840000; stroke-width:60.000000; stroke-opacity:1; 
stroke-linecap:round; stroke-linejoin:round;">
<rect x="24100.000000" y="34100.000000" width="1800.000000" height="200.000000" rx="0.000000" />
<path style="fill:#840000; fill-opacity:0.0; 
stroke:#840000; stroke-width:60.000000; stroke-opacity:1; 
stroke-linecap:round; stroke-linejoin:round;fill:none"
d="M 24300.000000,33600.000000
24700.000000,33600.000000
" /> 
<path style="fill:#840000; fill-opacity:0.0; 
stroke:#840000; stroke-width:60.000000; stroke-opacity:1; 
stroke-linecap:round; stroke-linejoin:round;fill:none"
d="M 24500.000000,33400.000000
24500.000000,33800.000000
" /> 
</g>
<g style="fill:#840000; fill-opacity:1.0; 
stroke:#840000; stroke-width:60.000000; stroke-opacity:1; 
stroke-linecap:round; stroke-linejoin:round;">
<rect x="24100.000000" y="34700.000000" width="1800.000000" height="200.000000" rx="0.000000" />
</g>
<g style="fill:#840000; fill-opacity:0.0; 
stroke:#840000; stroke-width:60.000000; stroke-opacity:1; 
stroke-linecap:round; stroke-linejoin:round;">
<path d="M25000 34100
L25000 33000
" />
<path d="M25000 34900
L25000 36000
" />
</g>
<g style="fill:#006464; fill-opacity:0.0; 
stroke:#006464; stroke-width:60.000000; stroke-opacity:1; 
stroke-linecap:round; stroke-linejoin:round;">
<text x="27019.330709" y="33899.921260"
textLength="1036.181102" font-size="666.653543" lengthAdjust="spacingAndGlyphs"
text-anchor="middle" opacity="0">C1</text>
<g class="stroked-text"><desc>C1</desc>
<path d="M26935 33828
L26912 33852
L26840 33876
L26793 33876
L26721 33852
L26674 33804
L26650 33757
L26626 33661
L26626 33590
L26650 33495
L26674 33447
L26721 33399
L26793 33376
L26840 33376
L26912 33399
L26935 33423
" />
<path d="M27412 33876
L27126 33876
" />
<path d="M27269 33876
L27269 33376
L27221 33447
L27174 33495
L27126 33518
" />
</g><text x="27709.803150" y="34899.921260"
textLength="2417.125984" font-size="666.653543" lengthAdjust="spacingAndGlyphs"
text-anchor="middle" opacity="0">2200u</text>
<g class="stroked-text"><desc>2200u</desc>
<path d="M26626 34423
L26650 34399
L26697 34376
L26816 34376
L26864 34399
L26888 34423
L26912 34471
L26912 34518
L26888 34590
L26602 34876
L26912 34876
" />
<path d="M27102 34423
L27126 34399
L27174 34376
L27293 34376
L27340 34399
L27364 34423
L27388 34471
L27388 34518
L27364 34590
L27078 34876
L27388 34876
" />
<path d="M27697 34376
L27745 34376
L27793 34399
L27816 34423
L27840 34471
L27864 34566
L27864 34685
L27840 34780
L27816 34828
L27793 34852
L27745 34876
L27697 34876
L27650 34852
L27626 34828
L27602 34780
L27578 34685
L27578 34566
L27602 34471
L27626 34423
L27650 34399
L27697 34376
" />
<path d="M28174 34376
L28221 34376
L28269 34399
L28293 34423
L28316 34471
L28340 34566
L28340 34685
L28316 34780
L28293 34828
L28269 34852
L28221 34876
L28174 34876
L28126 34852
L28102 34828
L28078 34780
L28055 34685
L28055 34566
L28078 34471
L28102 34423
L28126 34399
L28174 34376
" />
<path d="M28769 34542
L28769 34876
" />
<path d="M28555 34542
L28555 34804
L28578 34852
L28626 34876
L28697 34876
L28745 34852
L28769 34828
" />
</g></g>
</g>
<g style="fill:#006464; fill-opacity:0.0; 
stroke:#006464; stroke-width:60.000000; stroke-opacity:1; 
stroke-linecap:round; stroke-linejoin:round;">
<g >
</g>
<g style="fill:#840000; fill-opacity:0.0; 
stroke:#840000; stroke-width:60.000000; stroke-opacity:1; 
stroke-linecap:round; stroke-linejoin:round;">
</g>
<g style="fill:#840000; fill-opacity:0.0; 
stroke:#840000; stroke-width:100.000000; stroke-opacity:1; 
stroke-linecap:round; stroke-linejoin:round;">
<path style="fill:#840000; fill-opacity:0.0; 
stroke:#840000; stroke-width:100.000000; stroke-opacity:1; 
stroke-linecap:round; stroke-linejoin:round;fill:none"
d="M 16500.000000,35000.000000
15500.000000,35000.000000
" /> 
</g>
<g style="fill:#840000; fill-opacity:0.0; 
stroke:#840000; stroke-width:60.000000; stroke-opacity:1; 
stroke-linecap:round; stroke-linejoin:round;">
<path style="fill:#840000; fill-opacity:0.0; 
stroke:#840000; stroke-width:60.000000; stroke-opacity:1; 
stroke-linecap:round; stroke-linejoin:round;fill:none"
d="M 16000.000000,35000.000000
16000.000000,34000.000000
" /> 
</g>
<g style="fill:#840000; fill-opacity:0.0; 
stroke:#840000; stroke-width:100.000000; stroke-opacity:1; 
stroke-linecap:round; stroke-linejoin:round;">
<path style="fill:#840000; fill-opacity:0.0; 
stroke:#840000; stroke-width:100.000000; stroke-opacity:1; 
stroke-linecap:round; stroke-linejoin:round;fill:none"
d="M 16500.000000,34000.000000
15500.000000,34000.000000
16000.000000,35000.000000
Z" /> 
</g>
<g style="fill:#840000; fill-opacity:0.0; 
stroke:#840000; stroke-width:60.000000; stroke-opacity:1; 
stroke-linecap:round; stroke-linejoin:round;">
<path style="fill:#840000; fill-opacity:0.0; 
stroke:#840000; stroke-width:60.000000; stroke-opacity:1; 
stroke-linecap:round; stroke-linejoin:round;fill:none"
d="M 16300.000000,35700.000000
16900.000000,36300.000000
16900.000000,36000.000000
16900.000000,36300.000000
16600.000000,36300.000000
" /> 
<path style="fill:#840000; fill-opacity:0.0; 
stroke:#840000; stroke-width:60.000000; stroke-opacity:1; 
stroke-linecap:round; stroke-linejoin:round;fill:none"
d="M 16300.000000,35200.000000
16900.000000,35800.000000
16900.000000,35500.000000
16900.000000,35800.000000
16600.000000,35800.000000
" /> 
<path d="M16000 35000
L16000 36000
" />
<path d="M16000 34000
L16000 33000
" />
</g>
<g style="fill:#006464; fill-opacity:0.0; 
stroke:#006464; stroke-width:60.000000; stroke-opacity:1; 
stroke-linecap:round; stroke-linejoin:round;">
<text x="18019.330709" y="34874.960630"
textLength="1036.181102" font-size="666.653543" lengthAdjust="spacingAndGlyphs"
text-anchor="middle" opacity="0">D3</text>
<g class="stroked-text"><desc>D3</desc>
<path d="M17650 34851
L17650 34351
L17769 34351
L17840 34374
L17888 34422
L17912 34470
L17935 34565
L17935 34636
L17912 34732
L17888 34779
L17840 34827
L17769 34851
L17650 34851
" />
<path d="M18102 34351
L18412 34351
L18245 34541
L18316 34541
L18364 34565
L18388 34589
L18412 34636
L18412 34755
L18388 34803
L18364 34827
L18316 34851
L18174 34851
L18126 34827
L18102 34803
" />
</g><text x="18209.803150" y="35874.960630"
textLength="1417.125984" font-size="666.653543" lengthAdjust="spacingAndGlyphs"
text-anchor="middle" opacity="0">LED</text>
<g class="stroked-text"><desc>LED</desc>
<path d="M17888 35851
L17650 35851
L17650 35351
" />
<path d="M18055 35589
L18221 35589
" />
<path d="M18293 35851
L18055 35851
L18055 35351
L18293 35351
" />
<path d="M18507 35851
L18507 35351
L18626 35351
L18697 35374
L18745 35422
L18769 35470
L18793 35565
L18793 35636
L18769 35732
L18745 35779
L18697 35827
L18626 35851
L18507 35851
" />
</g></g>
</g>
<g style="fill:#006464; fill-opacity:0.0; 
stroke:#006464; stroke-width:60.000000; stroke-opacity:1; 
stroke-linecap:round; stroke-linejoin:round;">
<g >
</g>
<g style="fill:#840000; fill-opacity:0.0; 
stroke:#840000; stroke-width:60.000000; stroke-opacity:1; 
stroke-linecap:round; stroke-linejoin:round;">
<path style="fill:#840000; fill-opacity:0.0; 
stroke:#840000; stroke-width:60.000000; stroke-opacity:1; 
stroke-linecap:round; stroke-linejoin:round;fill:none"
d="M 25000.000000,53000.000000
25000.000000,53500.000000
25500.000000,53500.000000
25000.000000,54000.000000
24500.000000,53500.000000
25000.000000,53500.000000
" /> 
</g>
<g style="fill:#006464; fill-opacity:0.0; 
stroke:#006464; stroke-width:60.000000; stroke-opacity:1; 
stroke-linecap:round; stroke-linejoin:round;">
<text x="25000.000000" y="55249.960630"
textLength="1583.818898" font-size="666.653543" lengthAdjust="spacingAndGlyphs"
text-anchor="middle" opacity="0">GND</text>
<g class="stroked-text"><desc>GND</desc>
<path d="M24619 54749
L24571 54726
L24500 54726
L24428 54749
L24380 54797
L24357 54845
L24333 54940
L24333 55011
L24357 55107
L24380 55154
L24428 55202
L24500 55226
L24547 55226
L24619 55202
L24642 55178
L24642 55011
L24547 55011
" />
<path d="M24857 55226
L24857 54726
L25142 55226
L25142 54726
" />
<path d="M25380 55226
L25380 54726
L25500 54726
L25571 54749
L25619 54797
L25642 54845
L25666 54940
L25666 55011
L25642 55107
L25619 55154
L25571 55202
L25500 55226
L25380 55226
" />
</g></g>
</g>
<g style="fill:#006464; fill-opacity:0.0; 
stroke:#006464; stroke-width:60.000000; stroke-opacity:1; 
stroke-linecap:round; stroke-linejoin:round;">
<g >
</g>
<g style="fill:#840000; fill-opacity:0.0; 
stroke:#840000; stroke-width:60.000000; stroke-opacity:1; 
stroke-linecap:round; stroke-linejoin:round;">
<path style="fill:#840000; fill-opacity:0.0; 
stroke:#840000; stroke-width:60.000000; stroke-opacity:1; 
stroke-linecap:round; stroke-linejoin:round;fill:none"
d="M 15700.000000,12000.000000
16000.000000,11500.000000
" /> 
<path style="fill:#840000; fill-opacity:0.0; 
stroke:#840000; stroke-width:60.000000; stroke-opacity:1; 
stroke-linecap:round; stroke-linejoin:round;fill:none"
d="M 16000.000000,12500.000000
16000.000000,11500.000000
" /> 
<path style="fill:#840000; fill-opacity:0.0; 
stroke:#840000; stroke-width:60.000000; stroke-opacity:1; 
stroke-linecap:round; stroke-linejoin:round;fill:none"
d="M 16000.000000,11500.000000
16300.000000,12000.000000
" /> 
</g>
<g style="fill:#006464; fill-opacity:0.0; 
stroke:#006464; stroke-width:60.000000; stroke-opacity:1; 
stroke-linecap:round; stroke-linejoin:round;">
<text x="16000.000000" y="10749.960630"
textLength="1488.582677" font-size="666.653543" lengthAdjust="spacingAndGlyphs"
text-anchor="middle" opacity="0">VCC</text>
<g class="stroked-text"><desc>VCC</desc>
<path d="M15333 10226
L15500 10726
L15666 10226
" />
<path d="M16119 10678
L16095 10702
L16023 10726
L15976 10726
L15904 10702
L15857 10654
L15833 10607
L15809 10511
L15809 10440
L15833 10345
L15857 10297
L15904 10249
L15976 10226
L16023 10226
L16095 10249
L16119 10273
" />
<path d="M16619 10678
L16595 10702
L16523 10726
L16476 10726
L16404 10702
L16357 10654
L16333 10607
L16309 10511
L16309 10440
L16333 10345
L16357 10297
L16404 10249
L16476 10226
L16523 10226
L16595 10249
L16619 10273
" />
</g></g>
</g>
<g style="fill:#006464; fill-opacity:0.0; 
stroke:#006464; stroke-width:60.000000; stroke-opacity:1; 
stroke-linecap:round; stroke-linejoin:round;">
<g >
</g>
<g style="fill:#840000; fill-opacity:0.0; 
stroke:#840000; stroke-width:60.000000; stroke-opacity:1; 
stroke-linecap:round; stroke-linejoin:round;">
<path style="fill:#840000; fill-opacity:0.0; 
stroke:#840000; stroke-width:60.000000; stroke-opacity:1; 
stroke-linecap:round; stroke-linejoin:round;fill:none"
d="M 52000.000000,53500.000000
52000.000000,54000.000000
52500.000000,54000.000000
52000.000000,54500.000000
51500.000000,54000.000000
52000.000000,54000.000000
" /> 
</g>
<g style="fill:#006464; fill-opacity:0.0; 
stroke:#006464; stroke-width:60.000000; stroke-opacity:1; 
stroke-linecap:round; stroke-linejoin:round;">
<text x="52000.000000" y="55749.960630"
textLength="1583.818898" font-size="666.653543" lengthAdjust="spacingAndGlyphs"
text-anchor="middle" opacity="0">GND</text>
<g class="stroked-text"><desc>GND</desc>
<path d="M51619 55249
L51571 55226
L51500 55226
L51428 55249
L51380 55297
L51357 55345
L51333 55440
L51333 55511
L51357 55607
L51380 55654
L51428 55702
L51500 55726
L51547 55726
L51619 55702
L51642 55678
L51642 55511
L51547 55511
" />
<path d="M51857 55726
L51857 55226
L52142 55726
L52142 55226
" />
<path d="M52380 55726
L52380 55226
L52500 55226
L52571 55249
L52619 55297
L52642 55345
L52666 55440
L52666 55511
L52642 55607
L52619 55654
L52571 55702
L52500 55726
L52380 55726
" />
</g></g>
</g>
<g style="fill:#006464; fill-opacity:0.0; 
stroke:#006464; stroke-width:60.000000; stroke-opacity:1; 
stroke-linecap:round; stroke-linejoin:round;">
<g >
</g>
<g style="fill:#840000; fill-opacity:0.0; 
stroke:#840000; stroke-width:60.000000; stroke-opacity:1; 
stroke-linecap:round; stroke-linejoin:round;">
</g>
<g style="fill:#FFFFC2; fill-opacity:0.0; 
stroke:#FFFFC2; stroke-width:60.000000; stroke-opacity:1; 
stroke-linecap:round; stroke-linejoin:round;">
</g>
<g style="fill:#FFFFC2; fill-opacity:0.6; 
stroke:#FFFFC2; stroke-width:0.039370; stroke-opacity:1; 
stroke-linecap:round; stroke-linejoin:round;">
<path style="fill:#FFFFC2; fill-opacity:0.6; 
stroke:#FFFFC2; stroke-width:0.039370; stroke-opacity:1; 
stroke-linecap:round; stroke-linejoin:round;fill-rule:evenodd;"
d="M 50000.000000,41000.000000
54000.000000,43000.000000
50000.000000,45000.000000
Z" /> 
</g>
<g style="fill:#840000; fill-opacity:0.6; 
stroke:#840000; stroke-width:0.039370; stroke-opacity:1; 
stroke-linecap:round; stroke-linejoin:round;">
</g>
<g style="fill:#840000; fill-opacity:0.0; 
stroke:#840000; stroke-width:100.000000; stroke-opacity:1; 
stroke-linecap:round; stroke-linejoin:round;">
<path style="fill:#840000; fill-opacity:0.0; 
stroke:#840000; stroke-width:100.000000; stroke-opacity:1; 
stroke-linecap:round; stroke-linejoin:round;fill:none"
d="M 50000.000000,41000.000000
54000.000000,43000.000000
50000.000000,45000.000000
Z" /> 
<path style="fill:#840000; fill-opacity:0.0; 
stroke:#840000; stroke-width:100.000000; stroke-opacity:1; 
stroke-linecap:round; stroke-linejoin:round;fill:none"
d="M 50000.000000,41000.000000
54000.000000,43000.000000
50000.000000,45000.000000
Z" /> 
</g>
<g style="fill:#840000; fill-opacity:0.0; 
stroke:#840000; stroke-width:60.000000; stroke-opacity:1; 
stroke-linecap:round; stroke-linejoin:round;">
<path style="fill:#840000; fill-opacity:0.0; 
stroke:#840000; stroke-width:60.000000; stroke-opacity:1; 
stroke-linecap:round; stroke-linejoin:round;fill:none"
d="M 53300.000000,43200.000000
53100.000000,43200.000000
53300.000000,43000.000000
53100.000000,42800.000000
52900.000000,43000.000000
53100.000000,43200.000000
52900.000000,43200.000000
" /> 
<path d="M54000 43000
L55000 43000
" />
</g>
<g style="fill:#A90000; fill-opacity:0.0; 
stroke:#A90000; stroke-width:60.000000; stroke-opacity:1; 
stroke-linecap:round; stroke-linejoin:round;">
<text x="54500.000000" y="42900.000000"
textLength="536.181102" font-size="666.653543" lengthAdjust="spacingAndGlyphs"
text-anchor="middle" opacity="0">1</text>
<g class="stroked-text"><desc>1</desc>
<path d="M54642 42876
L54357 42876
" />
<path d="M54500 42876
L54500 42376
L54452 42447
L54404 42495
L54357 42519
" />
</g></g>
<g style="fill:#840000; fill-opacity:0.0; 
stroke:#840000; stroke-width:60.000000; stroke-opacity:1; 
stroke-linecap:round; stroke-linejoin:round;">
<path d="M50000 44000
L49000 44000
" />
</g>
<g style="fill:#006464; fill-opacity:0.0; 
stroke:#006464; stroke-width:60.000000; stroke-opacity:1; 
stroke-linecap:round; stroke-linejoin:round;">
<text x="50050.000000" y="44250.000000"
textLength="679.055118" font-size="666.653543" lengthAdjust="spacingAndGlyphs"
text-anchor="start" opacity="0">-</text>
<g class="stroked-text"><desc>-</desc>
<path d="M50199 44035
L50580 44035
" />
</g></g>
<g style="fill:#A90000; fill-opacity:0.0; 
stroke:#A90000; stroke-width:60.000000; stroke-opacity:1; 
stroke-linecap:round; stroke-linejoin:round;">
<text x="49500.000000" y="43900.000000"
textLength="536.181102" font-size="666.653543" lengthAdjust="spacingAndGlyphs"
text-anchor="middle" opacity="0">2</text>
<g class="stroked-text"><desc>2</desc>
<path d="M49357 43423
L49380 43400
L49428 43376
L49547 43376
L49595 43400
L49619 43423
L49642 43471
L49642 43519
L49619 43590
L49333 43876
L49642 43876
" />
</g></g>
<g style="fill:#840000; fill-opacity:0.0; 
stroke:#840000; stroke-width:60.000000; stroke-opacity:1; 
stroke-linecap:round; stroke-linejoin:round;">
<path d="M50000 42000
L49000 42000
" />
</g>
<g style="fill:#006464; fill-opacity:0.0; 
stroke:#006464; stroke-width:60.000000; stroke-opacity:1; 
stroke-linecap:round; stroke-linejoin:round;">
<text x="50050.000000" y="42250.000000"
textLength="679.055118" font-size="666.653543" lengthAdjust="spacingAndGlyphs"
text-anchor="start" opacity="0">+</text>
<g class="stroked-text"><desc>+</desc>
<path d="M50199 42035
L50580 42035
" />
<path d="M50389 42226
L50389 41845
" />
</g></g>
<g style="fill:#A90000; fill-opacity:0.0; 
stroke:#A90000; stroke-width:60.000000; stroke-opacity:1; 
stroke-linecap:round; stroke-linejoin:round;">
<text x="49500.000000" y="41900.000000"
textLength="536.181102" font-size="666.653543" lengthAdjust="spacingAndGlyphs"
text-anchor="middle" opacity="0">3</text>
<g class="stroked-text"><desc>3</desc>
<path d="M49333 41376
L49642 41376
L49476 41566
L49547 41566
L49595 41590
L49619 41614
L49642 41661
L49642 41780
L49619 41828
L49595 41852
L49547 41876
L49404 41876
L49357 41852
L49333 41828
" />
</g></g>
<g style="fill:#006464; fill-opacity:0.0; 
stroke:#006464; stroke-width:60.000000; stroke-opacity:1; 
stroke-linecap:round; stroke-linejoin:round;">
<text x="53745.551181" y="40249.960630"
textLength="1488.582677" font-size="666.653543" lengthAdjust="spacingAndGlyphs"
text-anchor="middle" opacity="0">U1A</text>
<g class="stroked-text"><desc>U1A</desc>
<path d="M53150 39726
L53150 40130
L53174 40178
L53197 40202
L53245 40226
L53340 40226
L53388 40202
L53412 40178
L53436 40130
L53436 39726
" />
<path d="M53936 40226
L53650 40226
" />
<path d="M53793 40226
L53793 39726
L53745 39797
L53697 39845
L53650 39868
" />
<path d="M54126 40083
L54364 40083
" />
<path d="M54078 40226
L54245 39726
L54412 40226
" />
</g><text x="54233.622047" y="41249.960630"
textLength="2464.763780" font-size="666.653543" lengthAdjust="spacingAndGlyphs"
text-anchor="middle" opacity="0">LM393</text>
<g class="stroked-text"><desc>LM393</desc>
<path d="M53388 41226
L53150 41226
L53150 40726
" />
<path d="M53555 41226
L53555 40726
L53721 41083
L53888 40726
L53888 41226
" />
<path d="M54078 40726
L54388 40726
L54221 40916
L54293 40916
L54340 40940
L54364 40964
L54388 41011
L54388 41130
L54364 41178
L54340 41202
L54293 41226
L54150 41226
L54102 41202
L54078 41178
" />
<path d="M54626 41226
L54721 41226
L54769 41202
L54793 41178
L54840 41107
L54864 41011
L54864 40821
L54840 40773
L54816 40749
L54769 40726
L54674 40726
L54626 40749
L54602 40773
L54578 40821
L54578 40940
L54602 40988
L54626 41011
L54674 41035
L54769 41035
L54816 41011
L54840 40988
L54864 40940
" />
<path d="M55031 40726
L55340 40726
L55174 40916
L55245 40916
L55293 40940
L55316 40964
L55340 41011
L55340 41130
L55316 41178
L55293 41202
L55245 41226
L55102 41226
L55055 41202
L55031 41178
" />
</g></g>
</g>
<g style="fill:#006464; fill-opacity:0.0; 
stroke:#006464; stroke-width:60.000000; stroke-opacity:1; 
stroke-linecap:round; stroke-linejoin:round;">
<g >
</g>
<g style="fill:#840000; fill-opacity:0.0; 
stroke:#840000; stroke-width:60.000000; stroke-opacity:1; 
stroke-linecap:round; stroke-linejoin:round;">
<path style="fill:#840000; fill-opacity:0.0; 
stroke:#840000; stroke-width:60.000000; stroke-opacity:1; 
stroke-linecap:round; stroke-linejoin:round;fill:none"
d="M 16000.000000,53000.000000
16000.000000,53500.000000
16500.000000,53500.000000
16000.000000,54000.000000
15500.000000,53500.000000
16000.000000,53500.000000
" /> 
</g>
<g style="fill:#006464; fill-opacity:0.0; 
stroke:#006464; stroke-width:60.000000; stroke-opacity:1; 
stroke-linecap:round; stroke-linejoin:round;">
<text x="16000.000000" y="55249.960630"
textLength="1583.818898" font-size="666.653543" lengthAdjust="spacingAndGlyphs"
text-anchor="middle" opacity="0">GND</text>
<g class="stroked-text"><desc>GND</desc>
<path d="M15619 54749
L15571 54726
L15500 54726
L15428 54749
L15380 54797
L15357 54845
L15333 54940
L15333 55011
L15357 55107
L15380 55154
L15428 55202
L15500 55226
L15547 55226
L15619 55202
L15642 55178
L15642 55011
L15547 55011
" />
<path d="M15857 55226
L15857 54726
L16142 55226
L16142 54726
" />
<path d="M16380 55226
L16380 54726
L16500 54726
L16571 54749
L16619 54797
L16642 54845
L16666 54940
L16666 55011
L16642 55107
L16619 55154
L16571 55202
L16500 55226
L16380 55226
" />
</g></g>
</g>
<g style="fill:#006464; fill-opacity:0.0; 
stroke:#006464; stroke-width:60.000000; stroke-opacity:1; 
stroke-linecap:round; stroke-linejoin:round;">
<g >
</g>
<g style="fill:#840000; fill-opacity:0.0; 
stroke:#840000; stroke-width:60.000000; stroke-opacity:1; 
stroke-linecap:round; stroke-linejoin:round;">
<path style="fill:#840000; fill-opacity:0.0; 
stroke:#840000; stroke-width:60.000000; stroke-opacity:1; 
stroke-linecap:round; stroke-linejoin:round;fill:none"
d="M 34500.000000,53000.000000
34500.000000,53500.000000
35000.000000,53500.000000
34500.000000,54000.000000
34000.000000,53500.000000
34500.000000,53500.000000
" /> 
</g>
<g style="fill:#006464; fill-opacity:0.0; 
stroke:#006464; stroke-width:60.000000; stroke-opacity:1; 
stroke-linecap:round; stroke-linejoin:round;">
<text x="34500.000000" y="55249.960630"
textLength="1583.818898" font-size="666.653543" lengthAdjust="spacingAndGlyphs"
text-anchor="middle" opacity="0">GND</text>
<g class="stroked-text"><desc>GND</desc>
<path d="M34119 54749
L34071 54726
L34000 54726
L33928 54749
L33880 54797
L33857 54845
L33833 54940
L33833 55011
L33857 55107
L33880 55154
L33928 55202
L34000 55226
L34047 55226
L34119 55202
L34142 55178
L34142 55011
L34047 55011
" />
<path d="M34357 55226
L34357 54726
L34642 55226
L34642 54726
" />
<path d="M34880 55226
L34880 54726
L35000 54726
L35071 54749
L35119 54797
L35142 54845
L35166 54940
L35166 55011
L35142 55107
L35119 55154
L35071 55202
L35000 55226
L34880 55226
" />
</g></g>
</g>
<g style="fill:#006464; fill-opacity:0.0; 
stroke:#006464; stroke-width:62.519685; stroke-opacity:1; 
stroke-linecap:round; stroke-linejoin:round;">
</g>
<g style="fill:#006464; fill-opacity:0.0; 
stroke:#006464; stroke-width:60.000000; stroke-opacity:1; 
stroke-linecap:round; stroke-linejoin:round;">
</g>
<g style="fill:#0000C2; fill-opacity:0.0; 
stroke:#0000C2; stroke-width:60.000000; stroke-opacity:1; 
stroke-linecap:round; stroke-linejoin:round;">
<text x="17000.000000" y="10862.480315"
textLength="10655.236220" font-size="666.653543" lengthAdjust="spacingAndGlyphs"
text-anchor="start" opacity="0">Output from bridge rectifier</text>
<g class="stroked-text"><desc>Output from bridge rectifier</desc>
<path d="M17244 10338
L17339 10338
L17387 10362
L17434 10410
L17458 10505
L17458 10671
L17434 10767
L17387 10814
L17339 10838
L17244 10838
L17196 10814
L17149 10767
L17125 10671
L17125 10505
L17149 10410
L17196 10362
L17244 10338
" />
<path d="M17887 10505
L17887 10838
" />
<path d="M17672 10505
L17672 10767
L17696 10814
L17744 10838
L17815 10838
L17863 10814
L17887 10791
" />
<path d="M18053 10505
L18244 10505
" />
<path d="M18125 10338
L18125 10767
L18149 10814
L18196 10838
L18244 10838
" />
<path d="M18410 10505
L18410 11005
" />
<path d="M18410 10529
L18458 10505
L18553 10505
L18601 10529
L18625 10552
L18649 10600
L18649 10743
L18625 10791
L18601 10814
L18553 10838
L18458 10838
L18410 10814
" />
<path d="M19077 10505
L19077 10838
" />
<path d="M18863 10505
L18863 10767
L18887 10814
L18934 10838
L19006 10838
L19053 10814
L19077 10791
" />
<path d="M19244 10505
L19434 10505
" />
<path d="M19315 10338
L19315 10767
L19339 10814
L19387 10838
L19434 10838
" />
<path d="M19910 10505
L20101 10505
" />
<path d="M19982 10838
L19982 10410
L20006 10362
L20053 10338
L20101 10338
" />
<path d="M20268 10838
L20268 10505
" />
<path d="M20268 10600
L20291 10552
L20315 10529
L20363 10505
L20410 10505
" />
<path d="M20649 10838
L20601 10814
L20577 10791
L20553 10743
L20553 10600
L20577 10552
L20601 10529
L20649 10505
L20720 10505
L20768 10529
L20791 10552
L20815 10600
L20815 10743
L20791 10791
L20768 10814
L20720 10838
L20649 10838
" />
<path d="M21030 10838
L21030 10505
" />
<path d="M21030 10552
L21053 10529
L21101 10505
L21172 10505
L21220 10529
L21244 10576
L21244 10838
" />
<path d="M21244 10576
L21268 10529
L21315 10505
L21387 10505
L21434 10529
L21458 10576
L21458 10838
" />
<path d="M22077 10838
L22077 10338
" />
<path d="M22077 10529
L22125 10505
L22220 10505
L22268 10529
L22291 10552
L22315 10600
L22315 10743
L22291 10791
L22268 10814
L22220 10838
L22125 10838
L22077 10814
" />
<path d="M22530 10838
L22530 10505
" />
<path d="M22530 10600
L22553 10552
L22577 10529
L22625 10505
L22672 10505
" />
<path d="M22839 10838
L22839 10505
" />
<path d="M22839 10338
L22815 10362
L22839 10386
L22863 10362
L22839 10338
L22839 10386
" />
<path d="M23291 10838
L23291 10338
" />
<path d="M23291 10814
L23244 10838
L23149 10838
L23101 10814
L23077 10791
L23053 10743
L23053 10600
L23077 10552
L23101 10529
L23149 10505
L23244 10505
L23291 10529
" />
<path d="M23744 10505
L23744 10910
L23720 10957
L23696 10981
L23649 11005
L23577 11005
L23530 10981
" />
<path d="M23744 10814
L23696 10838
L23601 10838
L23553 10814
L23530 10791
L23506 10743
L23506 10600
L23530 10552
L23553 10529
L23601 10505
L23696 10505
L23744 10529
" />
<path d="M24172 10814
L24125 10838
L24030 10838
L23982 10814
L23958 10767
L23958 10576
L23982 10529
L24030 10505
L24125 10505
L24172 10529
L24196 10576
L24196 10624
L23958 10671
" />
<path d="M24791 10838
L24791 10505
" />
<path d="M24791 10600
L24815 10552
L24839 10529
L24887 10505
L24934 10505
" />
<path d="M25291 10814
L25244 10838
L25149 10838
L25101 10814
L25077 10767
L25077 10576
L25101 10529
L25149 10505
L25244 10505
L25291 10529
L25315 10576
L25315 10624
L25077 10671
" />
<path d="M25744 10814
L25696 10838
L25601 10838
L25553 10814
L25530 10791
L25506 10743
L25506 10600
L25530 10552
L25553 10529
L25601 10505
L25696 10505
L25744 10529
" />
<path d="M25887 10505
L26077 10505
" />
<path d="M25958 10338
L25958 10767
L25982 10814
L26030 10838
L26077 10838
" />
<path d="M26244 10838
L26244 10505
" />
<path d="M26244 10338
L26220 10362
L26244 10386
L26268 10362
L26244 10338
L26244 10386
" />
<path d="M26410 10505
L26601 10505
" />
<path d="M26482 10838
L26482 10410
L26506 10362
L26553 10338
L26601 10338
" />
<path d="M26768 10838
L26768 10505
" />
<path d="M26768 10338
L26744 10362
L26768 10386
L26791 10362
L26768 10338
L26768 10386
" />
<path d="M27196 10814
L27149 10838
L27053 10838
L27006 10814
L26982 10767
L26982 10576
L27006 10529
L27053 10505
L27149 10505
L27196 10529
L27220 10576
L27220 10624
L26982 10671
" />
<path d="M27434 10838
L27434 10505
" />
<path d="M27434 10600
L27458 10552
L27482 10529
L27530 10505
L27577 10505
" />
</g></g>
<g style="fill:#009600; fill-opacity:0.0; 
stroke:#009600; stroke-width:60.000000; stroke-opacity:1; 
stroke-linecap:round; stroke-linejoin:round;">
<path d="M34500 50500
L34500 53000
" />
<path d="M34500 44000
L49000 44000
" />
<path d="M34500 44000
L34500 47500
" />
<path d="M45500 42000
L49000 42000
" />
<path d="M34500 36000
L34500 44000
" />
<path d="M25000 53500
L25500 53500
" />
<path d="M16000 46000
L45500 46000
" />
<path d="M55000 43000
L58000 43000
" />
<path d="M49000 42000
L50000 42000
" />
<path d="M52000 30000
L52000 42000
" />
<path d="M34500 22500
L58000 22500
" />
<path d="M58000 22500
L58000 43000
" />
<path d="M34500 30000
L34500 33000
" />
<path d="M34500 30000
L52000 30000
" />
<path d="M52000 44000
L52000 53500
" />
<path d="M49000 44000
L49500 44000
" />
<path d="M25000 53000
L25000 53500
" />
<path d="M16000 30000
L16000 33000
" />
<path d="M16000 19500
L16000 24500
" />
<path d="M16000 42000
L16000 42500
" />
<path d="M16000 36000
L16000 42000
" />
<path d="M25000 33000
L25000 30000
" />
<path d="M25000 14000
L16000 14000
" />
<path d="M16000 12500
L16000 14000
" />
<path d="M34500 16000
L34500 14000
" />
<path d="M28000 22500
L34500 22500
" />
<path d="M34500 14000
L25000 14000
" />
<path d="M34500 19000
L34500 22500
" />
<path d="M25000 20500
L25000 14000
" />
<path d="M45500 46000
L45500 42000
" />
<path d="M16000 27500
L16000 30000
" />
<path d="M25000 30000
L16000 30000
" />
<path d="M16000 50500
L16000 53000
" />
<path d="M16000 46000
L16000 47500
" />
<path d="M16000 45000
L16000 46000
" />
<path d="M16000 19000
L16000 19500
" />
<path d="M16000 14000
L16000 16500
" />
<path d="M25000 36000
L25000 53000
" />
<path d="M25000 30000
L34500 30000
" />
<path d="M25000 24500
L25000 30000
" />
</g>
<g style="fill:#006464; fill-opacity:0.0; 
stroke:#006464; stroke-width:60.000000; stroke-opacity:1; 
stroke-linecap:round; stroke-linejoin:round;">
<text x="18019.330709" y="26374.960630"
textLength="1036.181102" font-size="666.653543" lengthAdjust="spacingAndGlyphs"
text-anchor="middle" opacity="0">D2</text>
<g class="stroked-text"><desc>D2</desc>
<path d="M17650 26351
L17650 25851
L17769 25851
L17840 25874
L17888 25922
L17912 25970
L17935 26065
L17935 26136
L17912 26232
L17888 26279
L17840 26327
L17769 26351
L17650 26351
" />
<path d="M18126 25898
L18150 25874
L18197 25851
L18316 25851
L18364 25874
L18388 25898
L18412 25946
L18412 25993
L18388 26065
L18102 26351
L18412 26351
" />
</g><text x="18209.803150" y="27374.960630"
textLength="1417.125984" font-size="666.653543" lengthAdjust="spacingAndGlyphs"
text-anchor="middle" opacity="0">LED</text>
<g class="stroked-text"><desc>LED</desc>
<path d="M17888 27351
L17650 27351
L17650 26851
" />
<path d="M18055 27089
L18221 27089
" />
<path d="M18293 27351
L18055 27351
L18055 26851
L18293 26851
" />
<path d="M18507 27351
L18507 26851
L18626 26851
L18697 26874
L18745 26922
L18769 26970
L18793 27065
L18793 27136
L18769 27232
L18745 27279
L18697 27327
L18626 27351
L18507 27351
" />
</g></g>
<g style="fill:#840000; fill-opacity:0.0; 
stroke:#840000; stroke-width:60.000000; stroke-opacity:1; 
stroke-linecap:round; stroke-linejoin:round;">
<path d="M16000 26500
L16000 27500
" />
<path d="M16000 25500
L16000 24500
" />
</g>
<g style="fill:#006464; fill-opacity:0.0; 
stroke:#006464; stroke-width:60.000000; stroke-opacity:1; 
stroke-linecap:round; stroke-linejoin:round;">
<text x="22968.740157" y="22249.960630"
textLength="1060.000000" font-size="666.653543" lengthAdjust="spacingAndGlyphs"
text-anchor="middle" opacity="0">Q1</text>
<g class="stroked-text"><desc>Q1</desc>
<path d="M22921 22273
L22873 22249
L22825 22202
L22754 22130
L22706 22107
L22659 22107
" />
<path d="M22682 22226
L22635 22202
L22587 22154
L22563 22059
L22563 21892
L22587 21797
L22635 21749
L22682 21726
L22778 21726
L22825 21749
L22873 21797
L22897 21892
L22897 22059
L22873 22154
L22825 22202
L22778 22226
L22682 22226
" />
<path d="M23373 22226
L23087 22226
" />
<path d="M23230 22226
L23230 21726
L23182 21797
L23135 21845
L23087 21868
" />
</g><text x="21052.047244" y="23249.960630"
textLength="4893.346457" font-size="666.653543" lengthAdjust="spacingAndGlyphs"
text-anchor="middle" opacity="0">Q_PMOS_DGS</text>
<g class="stroked-text"><desc>Q_PMOS_DGS</desc>
<path d="M19087 23273
L19040 23249
L18992 23202
L18921 23130
L18873 23107
L18825 23107
" />
<path d="M18849 23226
L18802 23202
L18754 23154
L18730 23059
L18730 22892
L18754 22797
L18802 22749
L18849 22726
L18944 22726
L18992 22749
L19040 22797
L19063 22892
L19063 23059
L19040 23154
L18992 23202
L18944 23226
L18849 23226
" />
<path d="M19159 23273
L19540 23273
" />
<path d="M19659 23226
L19659 22726
L19849 22726
L19897 22749
L19921 22773
L19944 22821
L19944 22892
L19921 22940
L19897 22964
L19849 22988
L19659 22988
" />
<path d="M20159 23226
L20159 22726
L20325 23083
L20492 22726
L20492 23226
" />
<path d="M20825 22726
L20921 22726
L20968 22749
L21016 22797
L21040 22892
L21040 23059
L21016 23154
L20968 23202
L20921 23226
L20825 23226
L20778 23202
L20730 23154
L20706 23059
L20706 22892
L20730 22797
L20778 22749
L20825 22726
" />
<path d="M21230 23202
L21302 23226
L21421 23226
L21468 23202
L21492 23178
L21516 23130
L21516 23083
L21492 23035
L21468 23011
L21421 22988
L21325 22964
L21278 22940
L21254 22916
L21230 22868
L21230 22821
L21254 22773
L21278 22749
L21325 22726
L21444 22726
L21516 22749
" />
<path d="M21611 23273
L21992 23273
" />
<path d="M22111 23226
L22111 22726
L22230 22726
L22302 22749
L22349 22797
L22373 22845
L22397 22940
L22397 23011
L22373 23107
L22349 23154
L22302 23202
L22230 23226
L22111 23226
" />
<path d="M22873 22749
L22825 22726
L22754 22726
L22682 22749
L22635 22797
L22611 22845
L22587 22940
L22587 23011
L22611 23107
L22635 23154
L22682 23202
L22754 23226
L22802 23226
L22873 23202
L22897 23178
L22897 23011
L22802 23011
" />
<path d="M23087 23202
L23159 23226
L23278 23226
L23325 23202
L23349 23178
L23373 23130
L23373 23083
L23349 23035
L23325 23011
L23278 22988
L23182 22964
L23135 22940
L23111 22916
L23087 22868
L23087 22821
L23111 22773
L23135 22749
L23182 22726
L23302 22726
L23373 22749
" />
</g></g>
<g style="fill:#840000; fill-opacity:0.0; 
stroke:#840000; stroke-width:60.000000; stroke-opacity:1; 
stroke-linecap:round; stroke-linejoin:round;">
<path d="M25000 23500
L25000 24500
" />
</g>
<g style="fill:#A90000; fill-opacity:0.0; 
stroke:#A90000; stroke-width:60.000000; stroke-opacity:1; 
stroke-linecap:round; stroke-linejoin:round;">
<g transform="rotate(-90.000000 25100.000000 24000.000000)">
<text x="25100.000000" y="24500.000000"
textLength="536.181102" font-size="666.653543" lengthAdjust="spacingAndGlyphs"
text-anchor="middle" opacity="0">1</text>
</g>
<g class="stroked-text"><desc>1</desc>
<path d="M25576 23857
L25576 24142
" />
<path d="M25576 24000
L25076 24000
L25147 24047
L25195 24095
L25219 24142
" />
</g></g>
<g style="fill:#840000; fill-opacity:0.0; 
stroke:#840000; stroke-width:60.000000; stroke-opacity:1; 
stroke-linecap:round; stroke-linejoin:round;">
<path d="M27000 22500
L28000 22500
" />
</g>
<g style="fill:#A90000; fill-opacity:0.0; 
stroke:#A90000; stroke-width:60.000000; stroke-opacity:1; 
stroke-linecap:round; stroke-linejoin:round;">
<text x="27500.000000" y="23100.000000"
textLength="536.181102" font-size="666.653543" lengthAdjust="spacingAndGlyphs"
text-anchor="middle" opacity="0">2</text>
<g class="stroked-text"><desc>2</desc>
<path d="M27357 22623
L27380 22600
L27428 22576
L27547 22576
L27595 22600
L27619 22623
L27642 22671
L27642 22719
L27619 22790
L27333 23076
L27642 23076
" />
</g></g>
<g style="fill:#840000; fill-opacity:0.0; 
stroke:#840000; stroke-width:60.000000; stroke-opacity:1; 
stroke-linecap:round; stroke-linejoin:round;">
<path d="M25000 21500
L25000 20500
" />
</g>
<g style="fill:#A90000; fill-opacity:0.0; 
stroke:#A90000; stroke-width:60.000000; stroke-opacity:1; 
stroke-linecap:round; stroke-linejoin:round;">
<g transform="rotate(-90.000000 25100.000000 21000.000000)">
<text x="25100.000000" y="21500.000000"
textLength="536.181102" font-size="666.653543" lengthAdjust="spacingAndGlyphs"
text-anchor="middle" opacity="0">3</text>
</g>
<g class="stroked-text"><desc>3</desc>
<path d="M25076 21166
L25076 20857
L25266 21023
L25266 20952
L25290 20904
L25314 20880
L25361 20857
L25480 20857
L25528 20880
L25552 20904
L25576 20952
L25576 21095
L25552 21142
L25528 21166
" />
</g></g>
<g style="fill:#009600; fill-opacity:0.0; 
stroke:#009600; stroke-width:60.000000; stroke-opacity:1; 
stroke-linecap:round; stroke-linejoin:round;">
</g>
<g style="fill:#009600; fill-opacity:1.0; 
stroke:#009600; stroke-width:60.000000; stroke-opacity:1; 
stroke-linecap:round; stroke-linejoin:round;">
<circle cx="16000.000000" cy="42000.000000" r="180.000000" /> 
<circle cx="25000.000000" cy="14000.000000" r="180.000000" /> 
<circle cx="16000.000000" cy="30000.000000" r="180.000000" /> 
<circle cx="16000.000000" cy="46000.000000" r="180.000000" /> 
<circle cx="16000.000000" cy="19500.000000" r="180.000000" /> 
<circle cx="16000.000000" cy="14000.000000" r="180.000000" /> 
<circle cx="34500.000000" cy="30000.000000" r="180.000000" /> 
<circle cx="34500.000000" cy="22500.000000" r="180.000000" /> 
<circle cx="25000.000000" cy="30000.000000" r="180.000000" /> 
<circle cx="49000.000000" cy="42000.000000" r="180.000000" /> 
<circle cx="34500.000000" cy="44000.000000" r="180.000000" /> 
<circle cx="49000.000000" cy="44000.000000" r="180.000000" /> 
<circle cx="25000.000000" cy="53000.000000" r="180.000000" /> 
</g> 
</svg>
