<?xml version="1.0" standalone="yes"?>
<!DOCTYPE svg PUBLIC "-//W3C//DTD SVG 1.1//EN"
 "http://www.w3.org/Graphics/SVG/1.1/DTD/svg11.dtd">
<svg xmlns="http://www.w3.org/2000/svg" version="1.1"
  width="100%" height="100%" viewBox="0 0 1024 768"
  style="fill: none; stroke-width: 2; font-family: Helvetica;
 font: Helvetica;
">

<!-- Creator: NGspice -->

<rect x="0" y="0" width="1024" height="768" fill="black" stroke="none"/>
<text stroke="none" fill="white" font-size="16" x="358" y="752">
time
</text>
<text stroke="none" fill="white" font-size="16" x="10" y="16">
tran1: * spice circuit: bicycle dynamo with led, and voltage doubler.
</text>
<path stroke="white" stroke-width="2" d="M60 720l0 -670"/>
<text stroke="none" fill="white" font-size="16" x="45" y="728">
0.0
</text>
<path stroke="white" stroke-width="2" stroke-dasharray="1,2" d="M210 720l0 -670"/>
<text stroke="none" fill="white" font-size="16" x="190" y="728">
50.0
</text>
<path stroke="white" stroke-width="2" stroke-dasharray="1,2" d="M360 720l0 -670"/>
<text stroke="none" fill="white" font-size="16" x="335" y="728">
100.0
</text>
<path stroke="white" stroke-width="2" stroke-dasharray="1,2" d="M510 720l0 -670"/>
<text stroke="none" fill="white" font-size="16" x="485" y="728">
150.0
</text>
<path stroke="white" stroke-width="2" stroke-dasharray="1,2" d="M660 720l0 -670"/>
<text stroke="none" fill="white" font-size="16" x="635" y="728">
200.0
</text>
<path stroke="white" stroke-width="2" stroke-dasharray="1,2" d="M810 720l0 -670"/>
<text stroke="none" fill="white" font-size="16" x="785" y="728">
250.0
</text>
<path stroke="white" stroke-width="2" stroke-dasharray="1,2" d="M960 720l0 -670"/>
<text stroke="none" fill="white" font-size="16" x="935" y="728">
300.0
</text>
<text stroke="none" fill="white" font-size="16" x="614" y="752">
ms
</text>
<path stroke="white" stroke-width="2" stroke-dasharray="1,2" d="M60 720l900 0"/>
<text stroke="none" fill="white" font-size="16" x="8" y="728">
-25.0
</text>
<path stroke="white" stroke-width="2" stroke-dasharray="1,2" d="M60 653l900 0"/>
<text stroke="none" fill="white" font-size="16" x="8" y="661">
-20.0
</text>
<path stroke="white" stroke-width="2" stroke-dasharray="1,2" d="M60 586l900 0"/>
<text stroke="none" fill="white" font-size="16" x="8" y="594">
-15.0
</text>
<path stroke="white" stroke-width="2" stroke-dasharray="1,2" d="M60 519l900 0"/>
<text stroke="none" fill="white" font-size="16" x="8" y="527">
-10.0
</text>
<path stroke="white" stroke-width="2" stroke-dasharray="1,2" d="M60 452l900 0"/>
<text stroke="none" fill="white" font-size="16" x="18" y="460">
-5.0
</text>
<path stroke="white" stroke-width="2" d="M60 385l900 0"/>
<text stroke="none" fill="white" font-size="16" x="28" y="393">
0.0
</text>
<path stroke="white" stroke-width="2" stroke-dasharray="1,2" d="M60 318l900 0"/>
<text stroke="none" fill="white" font-size="16" x="28" y="326">
5.0
</text>
<path stroke="white" stroke-width="2" stroke-dasharray="1,2" d="M60 251l900 0"/>
<text stroke="none" fill="white" font-size="16" x="18" y="259">
10.0
</text>
<path stroke="white" stroke-width="2" stroke-dasharray="1,2" d="M60 184l900 0"/>
<text stroke="none" fill="white" font-size="16" x="18" y="192">
15.0
</text>
<path stroke="white" stroke-width="2" stroke-dasharray="1,2" d="M60 117l900 0"/>
<text stroke="none" fill="white" font-size="16" x="18" y="125">
20.0
</text>
<path stroke="white" stroke-width="2" stroke-dasharray="1,2" d="M60 50l900 0"/>
<text stroke="none" fill="white" font-size="16" x="18" y="58">
25.0
</text>
<text stroke="none" fill="white" font-size="16" x="10" y="32">
     
</text>
<path stroke="red" d="M450 23l45 0"/>
<text stroke="none" fill="white" font-size="16" x="505" y="32">
max_power_i_x10
</text>
<path stroke="red" d="M60 385l0 -2 1 -1 0 -4 1 0 0 -5 1 0 0 -4 1 0 0 -4 1 0 0 -4 1 0 0 -3 1 0 0 -3 1 0 0 -3 1 0 0 -2 1 0 0 -2 1 0 0 -2 1 0 0 -1 1 -1 0 -1 1 0 0 -2 1 0 0 -2 1 0 0 -3 1 0 0 -3 1 0 0 -4 1 0 0 -4 1 -1 0 -5 1 -1 0 -6 1 0 0 -8 1 0 0 -9"/>
<path stroke="red" d="M83 295l1 0 0 -10 1 0 0 -11 1 -1 0 -11 1 0 0 -13 1 -1 0 -13 1 -1 0 -12 1 -1 0 -14 1 -1 0 -14 1 -1 0 -13 1 -1 0 -14 1 0 0 -13 1 -1 0 -11 1 -1 0 -11 1 -1 0 -9 1 -1 0 -8 1 0 0 -7 1 0 0 -5 1 0 0 -3 1 0 0 -1 1 0M103 93l0 -2M103 93l1 0"/>
<path stroke="red" d="M104 96l0 -3M104 96l1 0M105 101l0 -5M105 101l1 0M106 108l0 -7M106 108l1 1M107 117l0 -8M107 117l1 1M108 127l0 -9M108 127l1 1M109 139l0 -11M109 139l1 0M110 152l0 -13M110 152l1 0M111 165l0 -13M111 165l1 1M112 179l0 -13M112 179l1 1"/>
<path stroke="red" d="M113 194l0 -14M113 194l1 1M114 208l0 -13M114 208l1 1M115 223l0 -14M115 223l1 1M116 237l0 -13M116 237l1 1M117 250l0 -12M117 250l1 1M118 264l0 -13M118 264l1 0M119 276l0 -12M119 276l1 0M120 287l0 -11M120 287l1 0M121 296l0 -9"/>
<path stroke="red" d="M121 296l1 1M122 305l0 -8M122 305l1 1M123 313l0 -7M123 313l1 1M124 319l0 -5M124 319l1 1M125 325l0 -5M125 325l1 0M126 330l0 -5M126 330l1 0M127 333l0 -3M127 333l1 1M128 337l0 -3M128 337l1 0M129 339l0 -2M129 339l1 0M130 341l0 -2"/>
<path stroke="red" d="M130 341l1 0M131 343l0 -2M131 343l1 0M132 345l0 -2M132 345l1 0M133 346l0 -1M133 346l1 1M134 348l0 -1M134 348l1 0M135 350l0 -2M135 350l1 0M136 353l0 -3M136 353l1 0M137 355l0 -2M137 355l1 0M138 358l0 -3M138 358l1 1M139 362l0 -3"/>
<path stroke="red" d="M139 362l1 0M140 365l0 -3M140 365l1 1M141 370l0 -4M141 370l1 0M142 374l0 -4M142 374l1 0M143 379l0 -5M143 379l1 0M144 383l0 -4M144 383l1 1M145 388l0 -4M145 388l1 0M146 393l0 -5M146 393l1 0M147 397l0 -4M147 397l1 1M148 402l0 -4"/>
<path stroke="red" d="M148 402l1 0M149 406l0 -4M149 406l1 0M150 409l0 -3M150 409l1 0M151 413l0 -4M151 413l1 0M152 415l0 -2M152 415l1 1M153 418l0 -2M153 418l1 0M154 420l0 -2M154 420l1 0M155 422l0 -2M155 422l1 0M156 424l0 -2M156 424l1 0M157 426l0 -2"/>
<path stroke="red" d="M157 426l1 0M158 427l0 -1M158 427l1 1M159 429l0 -1M159 429l1 1M160 432l0 -2M160 432l1 0M161 434l0 -2M161 434l1 0M162 438l0 -4M162 438l1 0M163 442l0 -4M163 442l1 0M164 446l0 -4M164 446l1 1M165 452l0 -5M165 452l1 1M166 459l0 -6"/>
<path stroke="red" d="M166 459l1 1M167 467l0 -7M167 467l1 1M168 477l0 -9M168 477l1 0M169 486l0 -9M169 486l1 1M170 498l0 -11M170 498l1 0M171 510l0 -12M171 510l1 1M172 523l0 -12M172 523l1 1M173 537l0 -13M173 537l1 1M174 551l0 -13M174 551l1 1M175 565l0 -13"/>
<path stroke="red" d="M175 565l1 1M176 580l0 -14M176 580l1 1M177 595l0 -14M177 595l1 1M178 609l0 -13M178 609l1 1M179 622l0 -12M179 622l1 1M180 635l0 -12M180 635l1 1M181 646l0 -10M181 646l1 1M182 656l0 -9M182 656l1 0M183 664l0 -8M183 664l1 1M184 671l0 -6"/>
<path stroke="red" d="M184 671l1 0M185 675l0 -4M185 675l1 0M186 678l0 -3M186 678l1 0M187 679l0 -1 1 0 0 -1 1 0 0 -4 1 0 0 -5 1 -1 0 -6 1 -1 0 -8 1 -1 0 -10 1 -1 0 -11 1 0 0 -13 1 0 0 -14 1 0 0 -14 1 -1 0 -13 1 -1 0 -14 1 -1 0 -14 1 -1 0 -12 1 -1"/>
<path stroke="red" d="M202 530l0 -13 1 -1 0 -12 1 -1 0 -10 1 -1 0 -10 1 -1 0 -9 1 -1 0 -8 1 0 0 -7 1 -1 0 -6 1 0 0 -5 1 0 0 -4 1 -1 0 -3 1 0 0 -3 1 0 0 -3 1 0 0 -2 1 0 0 -1 1 -1 0 -1 1 0 0 -2 1 0 0 -2 1 0 0 -2 1 0 0 -2 1 0 0 -3 1 0 0 -3 1 0 0 -3"/>
<path stroke="red" d="M224 408l1 -1 0 -3 1 -1 0 -3 1 -1 0 -4 1 0 0 -5 1 0 0 -4 1 0 0 -5 1 0 0 -5 1 0 0 -4 1 0 0 -4 1 -1 0 -3 1 -1 0 -3 1 0 0 -3 1 0 0 -3 1 0 0 -3 1 0 0 -2 1 0 0 -2 1 0 0 -1 1 0 0 -2 1 0 0 -2 1 0 0 -2 1 0 0 -2 1 0 0 -3 1 0 0 -3"/>
<path stroke="red" d="M247 332l1 0 0 -4 1 -1 0 -4 1 -1 0 -6 1 0 0 -7 1 0 0 -8 1 0 0 -9 1 -1 0 -10 1 0 0 -11 1 0 0 -12 1 -1 0 -13 1 -1 0 -12 1 -1 0 -14 1 -1 0 -14 1 -1 0 -13 1 -1 0 -13 1 -1 0 -14 1 0 0 -12 1 -1 0 -12 1 -1 0 -10 1 -1 0 -8 1 -1"/>
<path stroke="red" d="M268 112l0 -7 1 -1 0 -6 1 0 0 -4 1 0 0 -2 1 0 0 -1M272 92l1 0M273 94l0 -2M273 94l1 0M274 97l0 -3M274 97l1 1M275 103l0 -5M275 103l1 1M276 111l0 -7M276 111l1 1M277 120l0 -8M277 120l1 1M278 131l0 -10M278 131l1 1M279 143l0 -11"/>
<path stroke="red" d="M279 143l1 1M280 156l0 -12M280 156l1 1M281 170l0 -13M281 170l1 1M282 185l0 -14M282 185l1 0M283 199l0 -14M283 199l1 1M284 214l0 -14M284 214l1 0M285 228l0 -14M285 228l1 1M286 242l0 -13M286 242l1 1M287 255l0 -12M287 255l1 1"/>
<path stroke="red" d="M288 268l0 -12M288 268l1 1M289 279l0 -10M289 279l1 1M290 290l0 -10M290 290l1 1M291 300l0 -9M291 300l1 0M292 308l0 -8M292 308l1 1M293 315l0 -6M293 315l1 1M294 322l0 -6M294 322l1 0M295 327l0 -5M295 327l1 0M296 331l0 -4M296 331l1 0"/>
<path stroke="red" d="M297 335l0 -4M297 335l1 0M298 338l0 -3M298 338l1 0M299 340l0 -2M299 340l1 0M300 342l0 -2M300 342l1 0M301 344l0 -2M301 344l1 0M302 345l0 -1M302 345l1 0M303 347l0 -2M303 347l1 0M304 349l0 -2M304 349l1 0M305 351l0 -2M305 351l1 0"/>
<path stroke="red" d="M306 354l0 -3M306 354l1 0M307 356l0 -2M307 356l1 1M308 359l0 -2M308 359l1 1M309 363l0 -3M309 363l1 0M310 367l0 -4M310 367l1 0M311 371l0 -4M311 371l1 1M312 376l0 -4M312 376l1 0M313 380l0 -4M313 380l1 1M314 385l0 -4M314 385l1 0"/>
<path stroke="red" d="M315 390l0 -5M315 390l1 0M316 394l0 -4M316 394l1 1M317 399l0 -4M317 399l1 0M318 403l0 -4M318 403l1 0M319 407l0 -4M319 407l1 0M320 411l0 -4M320 411l1 0M321 414l0 -3M321 414l1 0M322 416l0 -2M322 416l1 1M323 419l0 -2M323 419l1 0"/>
<path stroke="red" d="M324 421l0 -2M324 421l1 0M325 423l0 -2M325 423l1 0M326 425l0 -2M326 425l1 0M327 426l0 -1M327 426l1 0M328 428l0 -2M328 428l1 0M329 430l0 -2M329 430l1 0M330 433l0 -3M330 433l1 0M331 435l0 -2M331 435l1 0M332 439l0 -4M332 439l1 0"/>
<path stroke="red" d="M333 443l0 -4M333 443l1 1M334 448l0 -4M334 448l1 1M335 455l0 -6M335 455l1 0M336 462l0 -7M336 462l1 1M337 470l0 -7M337 470l1 1M338 480l0 -9M338 480l1 0M339 491l0 -11M339 491l1 0M340 502l0 -11M340 502l1 0M341 515l0 -13M341 515l1 0"/>
<path stroke="red" d="M342 528l0 -13M342 528l1 1M343 542l0 -13M343 542l1 0M344 556l0 -14M344 556l1 1M345 571l0 -14M345 571l1 1M346 585l0 -13M346 585l1 1M347 600l0 -14M347 600l1 1M348 614l0 -13M348 614l1 1M349 627l0 -12M349 627l1 1M350 639l0 -11"/>
<path stroke="red" d="M350 639l1 1M351 650l0 -10M351 650l1 0M352 659l0 -9M352 659l1 1M353 667l0 -7M353 667l1 0M354 673l0 -6M354 673l1 0M355 677l0 -4M355 677l1 0M356 678l0 -1M356 678l1 0M357 679l0 -1 1 0 0 -2 1 0 0 -4 1 -1 0 -6 1 0 0 -8 1 0 0 -9"/>
<path stroke="red" d="M362 648l1 0 0 -11 1 -1 0 -12 1 0 0 -12 1 -1 0 -13 1 -1 0 -14 1 -1 0 -14 1 -1 0 -13 1 -1 0 -14 1 -1 0 -13 1 -1 0 -12 1 0 0 -12 1 -1 0 -11 1 0 0 -10 1 0 0 -9 1 -1 0 -8 1 0 0 -6 1 -1 0 -6 1 0 0 -5 1 0 0 -4 1 0 0 -3 1 0 0 -3"/>
<path stroke="red" d="M383 432l1 0 0 -2 1 0 0 -2 1 0 0 -2 1 0 0 -2 1 0 0 -1 1 -1 0 -1 1 0 0 -3 1 0 0 -2 1 0 0 -3 1 0 0 -3 1 0 0 -4 1 0 0 -4 1 0 0 -4 1 0 0 -4 1 -1 0 -4 1 0 0 -5 1 0 0 -4 1 -1 0 -4 1 0 0 -5 1 0 0 -4 1 0 0 -4 1 0 0 -3 1 0 0 -3 1 0"/>
<path stroke="red" d="M407 356l0 -3 1 0 0 -2 1 0 0 -2 1 -1 0 -1 1 0 0 -2 1 0 0 -2 1 0 0 -1 1 0 0 -2 1 -1 0 -2 1 0 0 -3 1 0 0 -4 1 0 0 -4 1 0 0 -5 1 -1 0 -6 1 0 0 -7 1 -1 0 -8 1 0 0 -10 1 0 0 -11 1 0 0 -11 1 -1 0 -12 1 -1 0 -13 1 0 0 -14 1 -1"/>
<path stroke="red" d="M429 224l0 -13 1 -1 0 -14 1 -1 0 -14 1 0 0 -13 1 -1 0 -13 1 -1 0 -12 1 -1 0 -11 1 0 0 -11 1 0 0 -9 1 0 0 -7 1 0 0 -5 1 -1 0 -3 1 0 0 -1 1 0 0 -1M442 92l1 0M443 95l0 -3M443 95l1 0M444 99l0 -4M444 99l1 0M445 106l0 -7M445 106l1 0"/>
<path stroke="red" d="M446 114l0 -8M446 114l1 1M447 124l0 -9M447 124l1 1M448 135l0 -10M448 135l1 1M449 148l0 -12M449 148l1 0M450 161l0 -13M450 161l1 1M451 175l0 -13M451 175l1 1M452 190l0 -14M452 190l1 0M453 205l0 -15M453 205l1 0M454 219l0 -14"/>
<path stroke="red" d="M454 219l1 0M455 233l0 -14M455 233l1 1M456 247l0 -13M456 247l1 1M457 260l0 -12M457 260l1 0M458 272l0 -12M458 272l1 1M459 284l0 -11M459 284l1 0M460 293l0 -9M460 293l1 1M461 303l0 -9M461 303l1 0M462 311l0 -8M462 311l1 0M463 318l0 -7"/>
<path stroke="red" d="M463 318l1 0M464 324l0 -6M464 324l1 0M465 328l0 -4M465 328l1 1M466 333l0 -4M466 333l1 0M467 336l0 -3M467 336l1 0M468 338l0 -2M468 338l1 1M469 341l0 -2M469 341l1 0M470 343l0 -2M470 343l1 0M471 344l0 -1M471 344l1 0M472 346l0 -2"/>
<path stroke="red" d="M472 346l1 0M473 348l0 -2M473 348l1 0M474 350l0 -2M474 350l1 0M475 352l0 -2M475 352l1 0M476 354l0 -2M476 354l1 1M477 357l0 -2M477 357l1 1M478 361l0 -3M478 361l1 0M479 364l0 -3M479 364l1 1M480 368l0 -3M480 368l1 1M481 373l0 -4"/>
<path stroke="red" d="M481 373l1 0M482 377l0 -4M482 377l1 0M483 382l0 -5M483 382l1 0M484 387l0 -5M484 387l1 0M485 392l0 -5M485 392l1 0M486 396l0 -4M486 396l1 0M487 400l0 -4M487 400l1 1M488 405l0 -4M488 405l1 0M489 408l0 -3M489 408l1 0M490 412l0 -4"/>
<path stroke="red" d="M490 412l1 0M491 415l0 -3M491 415l1 0M492 417l0 -2M492 417l1 0M493 420l0 -3M493 420l1 0M494 422l0 -2M494 422l1 0M495 423l0 -1M495 423l1 1M496 425l0 -1M496 425l1 0M497 427l0 -2M497 427l1 0M498 429l0 -2M498 429l1 0M499 431l0 -2"/>
<path stroke="red" d="M499 431l1 0M500 433l0 -2M500 433l1 1M501 436l0 -2M501 436l1 1M502 440l0 -3M502 440l1 1M503 445l0 -4M503 445l1 0M504 451l0 -6M504 451l1 0M505 457l0 -6M505 457l1 0M506 465l0 -8M506 465l1 0M507 474l0 -9M507 474l1 0M508 483l0 -9"/>
<path stroke="red" d="M508 483l1 1M509 494l0 -10M509 494l1 1M510 507l0 -12M510 507l1 0M511 519l0 -12M511 519l1 1M512 533l0 -13M512 533l1 1M513 547l0 -13M513 547l1 1M514 561l0 -13M514 561l1 1M515 576l0 -14M515 576l1 1M516 591l0 -14M516 591l1 1"/>
<path stroke="red" d="M517 605l0 -13M517 605l1 0M518 619l0 -14M518 619l1 0M519 631l0 -12M519 631l1 1M520 643l0 -11M520 643l1 0M521 653l0 -10M521 653l1 1M522 662l0 -8M522 662l1 1M523 669l0 -6M523 669l1 1M524 674l0 -4M524 674l1 0M525 677l0 -3M525 677l1 1"/>
<path stroke="red" d="M526 679l0 -1M526 679l1 0 0 -1 1 0 0 -3 1 -1 0 -4 1 -1 0 -6 1 0 0 -9 1 0 0 -10 1 -1 0 -10 1 -1 0 -12 1 -1 0 -13 1 0 0 -13 1 -1 0 -14 1 -1 0 -14 1 -1 0 -13 1 -1 0 -14 1 0 0 -13 1 -1 0 -13 1 0 0 -11 1 -1 0 -10 1 -1 0 -10 1 0"/>
<path stroke="red" d="M546 474l0 -8 1 -1 0 -7 1 -1 0 -6 1 0 0 -5 1 -1 0 -4 1 0 0 -4 1 0 0 -3 1 0 0 -3 1 0 0 -2 1 0 0 -2 1 0 0 -2 1 0 0 -1 1 0 0 -2 1 0 0 -2 1 0 0 -2 1 -1 0 -2 1 0 0 -3 1 0 0 -3 1 -1 0 -3 1 0 0 -4 1 0 0 -5 1 0 0 -4 1 0 0 -5 1 0"/>
<path stroke="red" d="M569 387l0 -5 1 0 0 -4 1 -1 0 -4 1 0 0 -4 1 0 0 -4 1 0 0 -4 1 0 0 -3 1 0 0 -3 1 0 0 -3 1 0 0 -2 1 0 0 -2 1 0 0 -2 1 0 0 -1 1 -1 0 -1 1 0 0 -2 1 0 0 -2 1 0 0 -3 1 0 0 -3 1 0 0 -4 1 0 0 -5 1 0 0 -6 1 0 0 -6 1 -1 0 -7 1 -1"/>
<path stroke="red" d="M592 303l0 -8 1 -1 0 -9 1 -1 0 -10 1 -1 0 -12 1 -1 0 -11 1 -1 0 -13 1 -1 0 -14 1 -1 0 -13 1 -1 0 -14 1 0 0 -14 1 -1 0 -14 1 -1 0 -12 1 0 0 -13 1 0 0 -11 1 -1 0 -9 1 0 0 -8 1 -1 0 -6 1 -1 0 -4 1 0 0 -3 1 0 0 -1M611 92l1 0"/>
<path stroke="red" d="M612 93l0 -1M612 93l1 0M613 96l0 -3M613 96l1 0M614 101l0 -5M614 101l1 1M615 108l0 -6M615 108l1 1M616 117l0 -8M616 117l1 1M617 128l0 -10M617 128l1 1M618 139l0 -10M618 139l1 1M619 152l0 -12M619 152l1 1M620 166l0 -13M620 166l1 1"/>
<path stroke="red" d="M621 181l0 -14M621 181l1 0M622 195l0 -14M622 195l1 0M623 210l0 -15M623 210l1 0M624 224l0 -14M624 224l1 1M625 238l0 -13M625 238l1 1M626 252l0 -13M626 252l1 0M627 265l0 -13M627 265l1 0M628 276l0 -11M628 276l1 1M629 287l0 -10"/>
<path stroke="red" d="M629 287l1 1M630 297l0 -9M630 297l1 1M631 306l0 -8M631 306l1 0M632 313l0 -7M632 313l1 1M633 320l0 -6M633 320l1 0M634 325l0 -5M634 325l1 1M635 330l0 -4M635 330l1 0M636 334l0 -4M636 334l1 0M637 337l0 -3M637 337l1 0M638 339l0 -2"/>
<path stroke="red" d="M638 339l1 0M639 341l0 -2M639 341l1 0M640 343l0 -2M640 343l1 0M641 345l0 -2M641 345l1 0M642 347l0 -2M642 347l1 0M643 348l0 -1M643 348l1 1M644 350l0 -1M644 350l1 1M645 353l0 -2M645 353l1 0M646 356l0 -3M646 356l1 0M647 358l0 -2"/>
<path stroke="red" d="M647 358l1 1M648 362l0 -3M648 362l1 0M649 366l0 -4M649 366l1 0M650 370l0 -4M650 370l1 0M651 374l0 -4M651 374l1 1M652 379l0 -4M652 379l1 0M653 384l0 -5M653 384l1 0M654 388l0 -4M654 388l1 1M655 393l0 -4M655 393l1 0M656 397l0 -4"/>
<path stroke="red" d="M656 397l1 1M657 402l0 -4M657 402l1 0M658 406l0 -4M658 406l1 0M659 410l0 -4M659 410l1 0M660 413l0 -3M660 413l1 0M661 416l0 -3M661 416l1 0M662 418l0 -2M662 418l1 0M663 420l0 -2M663 420l1 1M664 422l0 -1M664 422l1 0M665 424l0 -2"/>
<path stroke="red" d="M665 424l1 0M666 426l0 -2M666 426l1 0M667 428l0 -2M667 428l1 0M668 430l0 -2M668 430l1 0M669 432l0 -2M669 432l1 0M670 434l0 -2M670 434l1 1M671 438l0 -3M671 438l1 0M672 442l0 -4M672 442l1 0M673 447l0 -5M673 447l1 0M674 453l0 -6"/>
<path stroke="red" d="M674 453l1 0M675 460l0 -7M675 460l1 0M676 468l0 -8M676 468l1 0M677 477l0 -9M677 477l1 1M678 488l0 -10M678 488l1 0M679 498l0 -10M679 498l1 1M680 511l0 -12M680 511l1 1M681 524l0 -12M681 524l1 1M682 538l0 -13M682 538l1 0M683 552l0 -14"/>
<path stroke="red" d="M683 552l1 1M684 567l0 -14M684 567l1 1M685 581l0 -13M685 581l1 1M686 596l0 -14M686 596l1 1M687 610l0 -13M687 610l1 1M688 623l0 -12M688 623l1 1M689 636l0 -12M689 636l1 0M690 647l0 -11M690 647l1 1M691 656l0 -8M691 656l1 1"/>
<path stroke="red" d="M692 665l0 -8M692 665l1 0M693 671l0 -6M693 671l1 0M694 675l0 -4M694 675l1 1M695 678l0 -2M695 678l1 0M696 679l0 -1 1 0 0 -1 1 0 0 -4 1 0 0 -6 1 0 0 -7 1 -1 0 -8 1 -1 0 -10 1 0 0 -12 1 -1 0 -11 1 -1 0 -13 1 -1 0 -14 1 -1 0 -13"/>
<path stroke="red" d="M707 573l1 -1 0 -14 1 -1 0 -14 1 -1 0 -12 1 -1 0 -13 1 -1 0 -12 1 0 0 -11 1 -1 0 -10 1 -1 0 -9 1 0 0 -8 1 0 0 -8 1 0 0 -6 1 0 0 -5 1 -1 0 -4 1 0 0 -3 1 -1 0 -2 1 0 0 -3 1 0 0 -2 1 0 0 -2 1 0 0 -1 1 0 0 -2 1 0 0 -2 1 0 0 -2"/>
<path stroke="red" d="M729 419l1 0 0 -2 1 0 0 -3 1 0 0 -3 1 0 0 -4 1 0 0 -4 1 0 0 -4 1 0 0 -4 1 0 0 -5 1 0 0 -5 1 0 0 -4 1 0 0 -5 1 0 0 -4 1 -1 0 -4 1 0 0 -4 1 0 0 -3 1 0 0 -3 1 0 0 -3 1 0 0 -3 1 0 0 -2 1 0 0 -2 1 0 0 -1 1 -1 0 -1 1 0 0 -2 1 0"/>
<path stroke="red" d="M753 342l0 -2 1 0 0 -2 1 0 0 -3 1 0 0 -3 1 -1 0 -4 1 0 0 -5 1 0 0 -6 1 0 0 -7 1 -1 0 -7 1 -1 0 -9 1 0 0 -10 1 -1 0 -10 1 -1 0 -12 1 -1 0 -13 1 0 0 -13 1 -1 0 -14 1 0 0 -15 1 0 0 -14 1 0 0 -14 1 -1 0 -13 1 -1 0 -12 1 -1 0 -12"/>
<path stroke="red" d="M774 132l1 0 0 -11 1 0 0 -9 1 -1 0 -7 1 0 0 -6 1 0 0 -4 1 0 0 -2 1 0 0 -1M781 92l1 0M782 94l0 -2M782 94l1 0M783 98l0 -4M783 98l1 0M784 104l0 -6M784 104l1 0M785 112l0 -8M785 112l1 0M786 121l0 -9M786 121l1 0M787 132l0 -11"/>
<path stroke="red" d="M787 132l1 0M788 144l0 -12M788 144l1 1M789 157l0 -12M789 157l1 0M790 171l0 -14M790 171l1 1M791 186l0 -14M791 186l1 0M792 200l0 -14M792 200l1 0M793 214l0 -14M793 214l1 1M794 229l0 -14M794 229l1 1M795 243l0 -13M795 243l1 1"/>
<path stroke="red" d="M796 256l0 -12M796 256l1 1M797 269l0 -12M797 269l1 1M798 281l0 -11M798 281l1 0M799 291l0 -10M799 291l1 0M800 300l0 -9M800 300l1 1M801 309l0 -8M801 309l1 0M802 316l0 -7M802 316l1 0M803 322l0 -6M803 322l1 0M804 327l0 -5M804 327l1 0"/>
<path stroke="red" d="M805 331l0 -4M805 331l1 1M806 335l0 -3M806 335l1 0M807 338l0 -3M807 338l1 0M808 340l0 -2M808 340l1 0M809 342l0 -2M809 342l1 0M810 344l0 -2M810 344l1 0M811 345l0 -1M811 345l1 1M812 347l0 -1M812 347l1 0M813 349l0 -2M813 349l1 0"/>
<path stroke="red" d="M814 351l0 -2M814 351l1 0M815 354l0 -3M815 354l1 0M816 357l0 -3M816 357l1 0M817 360l0 -3M817 360l1 0M818 363l0 -3M818 363l1 0M819 367l0 -4M819 367l1 0M820 372l0 -5M820 372l1 0M821 376l0 -4M821 376l1 0M822 381l0 -5M822 381l1 0"/>
<path stroke="red" d="M823 385l0 -4M823 385l1 1M824 390l0 -4M824 390l1 0M825 395l0 -5M825 395l1 0M826 399l0 -4M826 399l1 0M827 403l0 -4M827 403l1 1M828 407l0 -3M828 407l1 0M829 411l0 -4M829 411l1 0M830 414l0 -3M830 414l1 0M831 417l0 -3M831 417l1 0"/>
<path stroke="red" d="M832 419l0 -2M832 419l1 0M833 421l0 -2M833 421l1 0M834 423l0 -2M834 423l1 0M835 425l0 -2M835 425l1 0M836 426l0 -1M836 426l1 1M837 428l0 -1M837 428l1 0M838 430l0 -2M838 430l1 0M839 433l0 -3M839 433l1 0M840 436l0 -3M840 436l1 0"/>
<path stroke="red" d="M841 439l0 -3M841 439l1 0M842 444l0 -5M842 444l1 0M843 449l0 -5M843 449l1 0M844 455l0 -6M844 455l1 0M845 462l0 -7M845 462l1 1M846 471l0 -8M846 471l1 1M847 480l0 -8M847 480l1 1M848 491l0 -10M848 491l1 1M849 503l0 -11M849 503l1 1"/>
<path stroke="red" d="M850 515l0 -11M850 515l1 1M851 529l0 -13M851 529l1 1M852 543l0 -13M852 543l1 1M853 557l0 -13M853 557l1 1M854 572l0 -14M854 572l1 1M855 587l0 -14M855 587l1 1M856 600l0 -12M856 600l1 1M857 615l0 -14M857 615l1 0M858 628l0 -13"/>
<path stroke="red" d="M858 628l1 1M859 640l0 -11M859 640l1 1M860 650l0 -9M860 650l1 1M861 660l0 -9M861 660l1 0M862 667l0 -7M862 667l1 1M863 673l0 -5M863 673l1 0M864 677l0 -4M864 677l1 0M865 678l0 -1M865 678l1 0M866 679l0 -1 1 0 0 -2 1 0 0 -5"/>
<path stroke="red" d="M868 671l1 0 0 -6 1 0 0 -8 1 -1 0 -9 1 0 0 -11 1 0 0 -12 1 -1 0 -13 1 0 0 -13 1 -1 0 -14 1 -1 0 -14 1 -1 0 -14 1 0 0 -13 1 -1 0 -13 1 -1 0 -13 1 -1 0 -11 1 0 0 -11 1 -1 0 -10 1 0 0 -9 1 0 0 -8 1 0 0 -7 1 0 0 -6 1 0 0 -5"/>
<path stroke="red" d="M889 442l1 0 0 -4 1 0 0 -3 1 -1 0 -2 1 0 0 -2 1 -1 0 -1 1 0 0 -2 1 0 0 -2 1 0 0 -2 1 0 0 -1 1 -1 0 -2 1 0 0 -2 1 0 0 -3 1 0 0 -3 1 -1 0 -3 1 0 0 -4 1 0 0 -4 1 0 0 -5 1 0 0 -4 1 -1 0 -3"/>
<path stroke="blue" d="M60 23l45 0"/>
<text stroke="none" fill="white" font-size="16" x="115" y="32">
dynamo_v
</text>
<path stroke="blue" d="M60 385l0 -2 1 0 0 -2 1 0 0 -1 3 0 0 -1 3 0 0 -1 4 0 0 -1 4 0 0 -1 2 0 0 -1 2 0 0 -1 2 0 0 -1 2 0 0 -1 1 0 0 -1 1 0 0 -1 1 0 0 -1 1 0 0 -1 1 0 0 -1 1 0 0 -1 1 0 0 -1 1 0 0 -2 1 0 0 -1 1 -1 0 -1 1 0 0 -2 1 0 0 -2 1 -1 0 -2"/>
<path stroke="blue" d="M97 353l1 0 0 -2 1 0 0 -3 1 0 0 -3 1 0 0 -3 1 0 0 -3 1 0 0 -3 1 0 0 -4 1 0 0 -3 1 0 0 -4 1 0 0 -3 1 0 0 -3 1 0 0 -2 1 -1 0 -2 1 0 0 -1 1 0 0 -2 1 0 0 -2 1 0 0 -1 1 0 0 -2 1 0 0 -1 1 0 0 -2 1 0 0 -1 1 0 0 -2 1 0 0 -1 1 0"/>
<path stroke="blue" d="M121 299l0 -1 1 0 0 -1 1 -1 0 -1 1 0 0 -1 1 0 0 -1 1 0 0 -1 1 0 0 -1 1 0 0 -1 1 0 0 -1 1 0 0 -1 1 0 0 -1 1 0 0 -1 1 0 0 -1 2 0 0 -1 1 0 0 -1 1 0 1 -1 1 0 0 -1 2 0 0 -1 3 0 0 -1 8 0M152 280l0 -1M152 280l2 0M154 281l0 -1"/>
<path stroke="blue" d="M154 281l2 0M156 348l0 -67M156 348l1 1M157 351l0 -2M157 351l1 0M158 352l0 -1M158 352l2 0M160 353l0 -1M160 353l1 0M161 354l0 -1M161 354l1 0M162 355l0 -1M162 355l2 0M164 356l0 -1M164 356l1 0M165 357l0 -1M165 357l1 0M166 358l0 -1"/>
<path stroke="blue" d="M166 358l1 0M167 359l0 -1M167 359l1 0M168 360l0 -1M168 360l1 0M169 361l0 -1M169 361l1 0M170 362l0 -1M170 362l1 0M171 363l0 -1M171 363l1 1M172 365l0 -1M172 365l1 0M173 366l0 -1M173 366l1 1M174 368l0 -1M174 368l1 0M175 370l0 -2"/>
<path stroke="blue" d="M175 370l1 0M176 372l0 -2M176 372l1 0M177 374l0 -2M177 374l1 0M178 377l0 -3M178 377l1 0M179 379l0 -2M179 379l1 0M180 382l0 -3M180 382l1 0M181 385l0 -3M181 385l1 0M182 388l0 -3M182 388l1 0M183 391l0 -3M183 391l1 1M184 395l0 -3"/>
<path stroke="blue" d="M184 395l1 0M185 398l0 -3M185 398l1 1M186 402l0 -3M186 402l1 1M187 407l0 -4M187 407l1 0M188 411l0 -4M188 411l1 0M189 415l0 -4M189 415l1 1M190 420l0 -4M190 420l1 0M191 425l0 -5M191 425l1 0M192 430l0 -5M192 430l1 0M193 435l0 -5"/>
<path stroke="blue" d="M193 435l1 0M194 440l0 -5M194 440l1 0M195 445l0 -5M195 445l1 0M196 450l0 -5M196 450l1 1M197 456l0 -5M197 456l1 0M198 461l0 -5M198 461l1 0M199 466l0 -5M199 466l1 1M200 472l0 -5M200 472l1 0M201 477l0 -5M201 477l1 0M202 482l0 -5"/>
<path stroke="blue" d="M202 482l1 0M203 487l0 -5M203 487l1 1M204 492l0 -4M204 492l1 1M205 497l0 -4M205 497l1 1M206 502l0 -4M206 502l1 1M207 507l0 -4M207 507l1 0M208 512l0 -5M208 512l1 0M209 516l0 -4M209 516l1 1M210 520l0 -3M210 520l1 1M211 524l0 -3"/>
<path stroke="blue" d="M211 524l1 0M212 527l0 -3M212 527l1 0M213 529l0 -2M213 529l1 0M214 531l0 -2M214 531l1 0M215 532l0 -1M215 532l1 0M216 533l0 -1M216 533l1 0M217 534l0 -1M217 534l1 0M218 535l0 -1M218 535l1 0M219 536l0 -1M219 536l2 0M221 537l0 -1"/>
<path stroke="blue" d="M221 537l2 0M223 538l0 -1M223 538l3 0M226 539l0 -1M226 539l5 0 0 -1 3 0 0 -1 1 0 0 -1 1 0 0 -115 1 0 0 -2 1 0 0 -1 2 0 0 -1 1 0 0 -1 1 0 1 -1 1 0 0 -1 1 0 0 -1 1 0 0 -1 1 0 1 -1 1 0 0 -1 1 0 0 -1 1 0 0 -2 1 0 0 -1 1 0 0 -1"/>
<path stroke="blue" d="M253 405l1 0 0 -1 1 0 0 -2 1 0 0 -1 1 0 0 -2 1 0 0 -2 1 0 0 -2 1 0 0 -2 1 0 0 -2 1 0 0 -2 1 -1 0 -2 1 0 0 -3 1 0 0 -3 1 0 0 -3 1 0 0 -3 1 0 0 -3 1 -1 0 -3 1 0 0 -4 1 0 0 -4 1 0 0 -4 1 0 0 -5 1 0 0 -4 1 0 0 -5 1 0 0 -5 1 0"/>
<path stroke="blue" d="M277 336l0 -4 1 -1 0 -5 1 0 0 -5 1 0 0 -5 1 0 0 -5 1 0 0 -6 1 0 0 -5 1 0 0 -5 1 0 0 -5 1 -1 0 -4 1 -1 0 -5 1 0 0 -5 1 0 0 -5 1 0 0 -5 1 0 0 -5 1 0 0 -4 1 -1 0 -4 1 0 0 -4 1 -1 0 -4 1 0 0 -4 1 0 0 -3 1 -1 0 -3 1 0 0 -4 1 0"/>
<path stroke="blue" d="M300 226l0 -3 1 0 0 -3 1 0 0 -3 1 0 0 -3 1 0 0 -3 1 0 0 -2 1 0 0 -2 1 0 0 -2 1 0 0 -2 1 0 0 -1 1 0 0 -2 1 0 0 -1 1 0 1 -1 4 0M317 200l0 -2M317 200l1 0M318 352l0 -152M318 352l1 0M319 353l0 -1M319 353l1 0M320 354l0 -1M320 354l2 0"/>
<path stroke="blue" d="M322 355l0 -1M322 355l1 0M323 356l0 -1M323 356l1 -1M324 356l0 -1M324 356l1 0M325 357l0 -1M325 357l2 0M327 358l0 -1M327 358l1 0M328 359l0 -1M328 359l1 0M329 360l0 -1M329 360l2 0M331 361l0 -1M331 361l1 0M332 362l0 -1M332 362l1 0"/>
<path stroke="blue" d="M333 363l0 -1M333 363l1 0M334 364l0 -1M334 364l1 0M335 365l0 -1M335 365l1 0M336 367l0 -2M336 367l1 0M337 368l0 -1M337 368l1 0M338 369l0 -1M338 369l1 0M339 370l0 -1M339 370l1 1M340 372l0 -1M340 372l1 0M341 374l0 -2M341 374l1 0"/>
<path stroke="blue" d="M342 375l0 -1M342 375l1 0M343 377l0 -2M343 377l1 0M344 379l0 -2M344 379l1 0M345 381l0 -2M345 381l1 0M346 383l0 -2M346 383l1 0M347 386l0 -3M347 386l1 0M348 388l0 -2M348 388l1 1M349 391l0 -2M349 391l1 0M350 394l0 -3M350 394l1 0"/>
<path stroke="blue" d="M351 397l0 -3M351 397l1 0M352 400l0 -3M352 400l1 1M353 404l0 -3M353 404l1 0M354 407l0 -3M354 407l1 0M355 411l0 -4M355 411l1 0M356 415l0 -4M356 415l1 0M357 419l0 -4M357 419l1 0M358 423l0 -4M358 423l1 1M359 428l0 -4M359 428l1 0"/>
<path stroke="blue" d="M360 432l0 -4M360 432l1 0M361 437l0 -5M361 437l1 0M362 442l0 -5M362 442l1 0M363 446l0 -4M363 446l1 1M364 451l0 -4M364 451l1 1M365 456l0 -4M365 456l1 0M366 461l0 -5M366 461l1 1M367 466l0 -4M367 466l1 1M368 471l0 -4M368 471l1 1"/>
<path stroke="blue" d="M369 476l0 -4M369 476l1 1M370 481l0 -4M370 481l1 1M371 486l0 -4M371 486l1 1M372 491l0 -4M372 491l1 0M373 496l0 -5M373 496l1 0M374 500l0 -4M374 500l1 1M375 505l0 -4M375 505l1 0M376 509l0 -4M376 509l1 0M377 514l0 -5M377 514l1 0"/>
<path stroke="blue" d="M378 517l0 -3M378 517l1 1M379 522l0 -4M379 522l1 0M380 525l0 -3M380 525l1 1M381 529l0 -3M381 529l1 0M382 532l0 -3M382 532l1 1M383 536l0 -3M383 536l1 0M384 539l0 -3M384 539l1 0M385 542l0 -3M385 542l1 0M386 545l0 -3M386 545l1 0"/>
<path stroke="blue" d="M387 548l0 -3M387 548l1 0M388 550l0 -2M388 550l1 0M389 552l0 -2M389 552l1 0M390 554l0 -2M390 554l1 0M391 556l0 -2M391 556l1 0M392 558l0 -2M392 558l1 0M393 560l0 -2M393 560l1 0M394 561l0 -1M394 561l1 0M395 562l0 -1M395 562l1 0"/>
<path stroke="blue" d="M396 563l0 -1M396 563l1 0M397 564l0 -1M397 564l2 0M399 565l0 -1M399 565l3 0 0 -1 1 0 0 -161 1 0 0 -1 2 0 0 -1 3 0 0 -1 3 0 0 -1 2 0 0 -1 2 0 0 -1 2 0 0 -1 1 0 0 -1 1 0 0 -1 1 0 0 -1 2 0 0 -1 1 -1 0 -1 1 0 0 -1 1 0 0 -1"/>
<path stroke="blue" d="M426 388l1 0 0 -1 1 -1 0 -1 1 0 0 -2 1 0 0 -1 1 0 0 -2 1 0 0 -2 1 0 0 -3 1 0 0 -2 1 0 0 -3 1 0 0 -2 1 0 0 -3 1 0 0 -3 1 0 0 -3 1 -1 0 -3 1 0 0 -3 1 -1 0 -3 1 -1 0 -3 1 -1 0 -3 1 0 0 -4 1 -1 0 -4 1 0 0 -4 1 -1 0 -4 1 0 0 -4"/>
<path stroke="blue" d="M449 318l1 -1 0 -4 1 0 0 -5 1 0 0 -4 1 -1 0 -4 1 0 0 -5 1 0 0 -4 1 -1 0 -4 1 0 0 -4 1 -1 0 -4 1 0 0 -4 1 -1 0 -3 1 -1 0 -4 1 0 0 -4 1 0 0 -3 1 -1 0 -3 1 0 0 -4 1 0 0 -3 1 -1 0 -3 1 0 0 -3 1 0 0 -3 1 0 0 -2 1 -1 0 -2 1 0"/>
<path stroke="blue" d="M472 230l0 -3 1 0 0 -2 1 0 0 -2 1 0 0 -2 1 0 0 -2 1 0 0 -1 1 0 0 -2 1 0 0 -1 1 0 0 -1 1 0 0 -1 2 0 0 -1 4 0M487 213l0 -1M487 213l1 1M488 374l0 -160M488 374l1 0M489 375l0 -1M489 375l4 0M493 376l0 -1M493 376l3 0M496 377l0 -1"/>
<path stroke="blue" d="M496 376l1 1 2 0M499 378l0 -1M499 378l2 0M501 379l0 -1M501 379l2 0M503 380l0 -1M503 380l1 0M504 381l0 -1M504 381l2 0M506 382l0 -1M506 382l1 0M507 383l0 -1M507 383l1 0M508 384l0 -1M508 384l1 0M509 385l0 -1M509 385l1 0M510 386l0 -1"/>
<path stroke="blue" d="M510 386l1 0M511 387l0 -1M511 387l1 0M512 388l0 -1M512 388l1 1M513 390l0 -1M513 390l1 0M514 391l0 -1M514 391l1 0M515 393l0 -2M515 393l1 0M516 395l0 -2M516 395l1 0M517 397l0 -2M517 397l1 0M518 399l0 -2M518 399l1 0M519 401l0 -2"/>
<path stroke="blue" d="M519 401l1 0M520 404l0 -3M520 404l1 0M521 406l0 -2M521 406l1 0M522 409l0 -3M522 409l1 0M523 412l0 -3M523 412l1 0M524 415l0 -3M524 415l1 0M525 418l0 -3M525 418l1 1M526 422l0 -3M526 422l1 0M527 425l0 -3M527 425l1 1M528 429l0 -3"/>
<path stroke="blue" d="M528 429l1 1M529 433l0 -3M529 433l1 1M530 437l0 -3M530 437l1 1M531 442l0 -4M531 442l1 0M532 446l0 -4M532 446l1 0M533 450l0 -4M533 450l1 0M534 455l0 -5M534 455l1 0M535 459l0 -4M535 459l1 0M536 464l0 -5M536 464l1 0M537 468l0 -4"/>
<path stroke="blue" d="M537 468l1 0M538 473l0 -5M538 473l1 0M539 477l0 -4M539 477l1 0M540 482l0 -5M540 482l1 0M541 486l0 -4M541 486l1 1M542 491l0 -4M542 491l1 0M543 495l0 -4M543 495l1 0M544 499l0 -4M544 499l1 0M545 503l0 -4M545 503l1 0M546 507l0 -4"/>
<path stroke="blue" d="M546 507l1 0M547 511l0 -4M547 511l1 0M548 515l0 -4M548 515l1 0M549 518l0 -3M549 518l1 0M550 522l0 -4M550 522l1 0M551 525l0 -3M551 525l1 0M552 528l0 -3M552 528l1 0M553 531l0 -3M553 531l1 0M554 534l0 -3M554 534l1 0M555 536l0 -2"/>
<path stroke="blue" d="M555 536l1 1M556 539l0 -2M556 539l1 0M557 541l0 -2M557 541l1 0M558 543l0 -2M558 543l1 1M559 545l0 -1M559 545l1 1M560 547l0 -1M560 547l1 0M561 549l0 -2M561 549l1 0M562 550l0 -1M562 550l1 0M563 552l0 -2M563 552l1 0M564 553l0 -1"/>
<path stroke="blue" d="M564 553l1 0M565 554l0 -1M565 554l2 0M567 555l0 -1M567 555l5 0 0 -161 1 0 0 -1 2 0 0 -1 4 0 0 -1M579 392l1 -1 3 0 0 -1 2 0 0 -1 2 0 0 -1 2 0 0 -1 1 0 0 -1 1 0 1 -1 1 0 0 -1 1 0 0 -1 1 0 0 -1 1 0 0 -1 1 0 0 -2 1 0 0 -1 1 0"/>
<path stroke="blue" d="M599 378l0 -2 1 0 0 -1 1 0 0 -2 1 0 0 -2 1 0 0 -2 1 0 0 -2 1 0 0 -3 1 0 0 -2 1 0 0 -3 1 0 0 -3 1 0 0 -3 1 0 0 -3 1 -1 0 -3 1 0 0 -3 1 0 0 -4 1 0 0 -4 1 0 0 -4 1 0 0 -4 1 0 0 -4 1 -1 0 -4 1 0 0 -4 1 0 0 -5 1 0 0 -4 1 0 0 -4"/>
<path stroke="blue" d="M622 301l1 -1 0 -4 1 0 0 -5 1 0 0 -4 1 0 0 -4 1 -1 0 -4 1 0 0 -4 1 0 0 -4 1 0 0 -4 1 0 0 -4 1 0 0 -4 1 0 0 -3 1 0 0 -4 1 0 0 -3 1 0 0 -3 1 0 0 -3 1 0 0 -3 1 0 0 -3 1 0 0 -3 1 0 0 -2 1 0 0 -2 1 0 0 -2 1 0 0 -2 1 0 0 -2 1 0"/>
<path stroke="blue" d="M646 223l0 -1 1 0 0 -2 1 0 0 -1 1 0 0 -1 1 0 0 -1 1 0 0 -1 5 0M656 217l0 -1M656 217l1 0M657 378l0 -161M657 378l3 0M660 379l0 -1M660 379l4 0M664 380l0 -1M664 380l3 0M667 381l0 -1 1 1 2 0M670 382l0 -1M670 382l2 0M672 383l0 -1"/>
<path stroke="blue" d="M672 383l2 0M674 384l0 -1M674 384l1 0M675 385l0 -1M675 385l1 0M676 386l0 -1M676 386l2 0M678 387l0 -1M678 387l1 0M679 388l0 -1M679 388l1 0M680 389l0 -1M680 389l1 0M681 390l0 -1M681 390l1 1M682 392l0 -1M682 392l1 0M683 393l0 -1"/>
<path stroke="blue" d="M683 393l1 0M684 395l0 -2M684 395l1 0M685 396l0 -1M685 396l1 0M686 398l0 -2M686 398l1 0M687 400l0 -2M687 400l1 0M688 402l0 -2M688 402l1 0M689 404l0 -2M689 404l1 0M690 407l0 -3M690 407l1 0M691 409l0 -2M691 409l1 0M692 412l0 -3"/>
<path stroke="blue" d="M692 412l1 0M693 415l0 -3M693 415l1 0M694 418l0 -3M694 418l1 0M695 421l0 -3M695 421l1 1M696 425l0 -3M696 425l1 0M697 429l0 -4M697 429l1 0M698 432l0 -3M698 432l1 0M699 436l0 -4M699 436l1 0M700 440l0 -4M700 440l1 1M701 444l0 -3"/>
<path stroke="blue" d="M701 444l1 0M702 449l0 -5M702 449l1 0M703 453l0 -4M703 453l1 0M704 457l0 -4M704 457l1 0M705 462l0 -5M705 462l1 0M706 466l0 -4M706 466l1 0M707 470l0 -4M707 470l1 1M708 475l0 -4M708 475l1 0M709 480l0 -5M709 480l1 0M710 484l0 -4"/>
<path stroke="blue" d="M710 484l1 0M711 488l0 -4M711 488l1 0M712 492l0 -4M712 492l1 1M713 497l0 -4M713 497l1 0M714 501l0 -4M714 501l1 0M715 505l0 -4M715 505l1 0M716 508l0 -3M716 508l1 1M717 512l0 -3M717 512l1 0M718 516l0 -4M718 516l1 0M719 519l0 -3"/>
<path stroke="blue" d="M719 519l1 1M720 523l0 -3M720 523l1 0M721 526l0 -3M721 526l1 0M722 529l0 -3M722 529l1 0M723 531l0 -2M723 531l1 1M724 534l0 -2M724 534l1 0M725 537l0 -3M725 537l1 0M726 539l0 -2M726 539l1 0M727 541l0 -2M727 541l1 0M728 543l0 -2"/>
<path stroke="blue" d="M728 543l1 0M729 545l0 -2M729 545l1 0M730 547l0 -2M730 547l1 0M731 548l0 -1M731 548l1 0M732 550l0 -2M732 550l1 0M733 551l0 -1M733 551l1 0M734 552l0 -1M734 552l1 0M735 553l0 -1M735 553l2 0M737 554l0 -1M737 554l3 0 0 -1 1 0"/>
<path stroke="blue" d="M741 553l0 -1 1 0 0 -160 1 0 0 -1 4 0 0 -1 1 1 0 -1 3 0 0 -1 3 0 0 -1 2 0 0 -1 2 0 0 -1 1 0 0 -1 2 0 0 -1 1 0 0 -1 1 0 0 -1 1 0 0 -1 1 0 0 -1 1 0 0 -1 1 0 0 -1 1 0 0 -2 1 0 0 -1 1 0 0 -2 1 0 0 -2 1 0 0 -2 1 0 0 -2 1 0 0 -2"/>
<path stroke="blue" d="M774 365l1 0 0 -2 1 -1 0 -2 1 0 0 -3 1 0 0 -3 1 0 0 -3 1 0 0 -3 1 0 0 -4 1 0 0 -3 1 -1 0 -3 1 0 0 -4 1 0 0 -4 1 0 0 -4 1 0 0 -4 1 -1 0 -4 1 0 0 -4 1 0 0 -5 1 0 0 -4 1 0 0 -4 1 -1 0 -4 1 0 0 -4 1 -1 0 -4 1 0 0 -4 1 0 0 -4"/>
<path stroke="blue" d="M797 277l1 0 0 -4 1 -1 0 -3 1 -1 0 -3 1 -1 0 -3 1 0 0 -4 1 0 0 -3 1 -1 0 -3 1 0 0 -3 1 0 0 -3 1 0 0 -3 1 0 0 -3 1 0 0 -3 1 0 0 -2 1 0 0 -2 1 0 0 -3 1 0 0 -2 1 0 0 -1 1 -1 0 -1 1 0 0 -2 1 0 0 -1 1 0 0 -1 1 0 0 -1 1 0 0 -1"/>
<path stroke="blue" d="M820 217l2 0 0 -1 3 0M825 217l0 -1M825 217l1 0M826 377l0 -160M826 377l1 1 1 0M828 379l0 -1M828 379l4 0M832 380l0 -1M832 380l4 0M836 381l0 -1M836 381l2 0M838 382l0 -1M838 382l2 0 1 1 0 -1M841 383l1 0M842 384l0 -1M842 384l2 0"/>
<path stroke="blue" d="M844 385l0 -1M844 385l1 0 1 1 1 0M847 387l0 -1M847 387l1 0M848 388l0 -1M848 388l1 0M849 389l0 -1M849 389l1 0M850 390l0 -1M850 390l1 0M851 391l0 -1M851 391l1 0M852 393l0 -2M852 393l1 0M853 394l0 -1M853 394l1 0M854 396l0 -2"/>
<path stroke="blue" d="M854 396l1 0M855 397l0 -1M855 397l1 0M856 399l0 -2M856 399l1 0M857 401l0 -2M857 401l1 0M858 403l0 -2M858 403l1 0M859 405l0 -2M859 405l1 1M860 408l0 -2M860 408l1 0M861 411l0 -3M861 411l1 0M862 413l0 -2M862 413l1 1M863 416l0 -2"/>
<path stroke="blue" d="M863 416l1 0M864 419l0 -3M864 419l1 1M865 423l0 -3M865 423l1 0M866 426l0 -3M866 426l1 0M867 430l0 -4M867 430l1 0M868 434l0 -4M868 434l1 0M869 438l0 -4M869 438l1 0M870 442l0 -4M870 442l1 0M871 446l0 -4M871 446l1 0M872 450l0 -4"/>
<path stroke="blue" d="M872 450l1 0M873 455l0 -5M873 455l1 0M874 459l0 -4M874 459l1 0M875 463l0 -4M875 463l1 0M876 468l0 -5M876 468l1 0M877 472l0 -4M877 472l1 1M878 477l0 -4M878 477l1 0M879 481l0 -4M879 481l1 0M880 485l0 -4M880 485l1 1M881 490l0 -4"/>
<path stroke="blue" d="M881 490l1 0M882 494l0 -4M882 494l1 0M883 498l0 -4M883 498l1 0M884 502l0 -4M884 502l1 0M885 506l0 -4M885 506l1 0M886 510l0 -4M886 510l1 0M887 514l0 -4M887 514l1 0M888 517l0 -3M888 517l1 0M889 520l0 -3M889 520l1 1M890 524l0 -3"/>
<path stroke="blue" d="M890 524l1 0M891 527l0 -3M891 527l1 0M892 530l0 -3M892 530l1 0M893 532l0 -2M893 532l1 1M894 535l0 -2M894 535l1 0M895 537l0 -2M895 537l1 1M896 540l0 -2M896 540l1 0M897 542l0 -2M897 542l1 0M898 544l0 -2M898 544l1 0M899 546l0 -2"/>
<path stroke="blue" d="M899 546l1 0M900 547l0 -1M900 547l1 0M901 549l0 -2M901 549l1 0M902 550l0 -1M902 550l1 0M903 551l0 -1M903 551l1 0M904 552l0 -1M904 552l1 0M905 553l0 -1M905 553l2 0M907 554l0 -1M907 554l1 0"/>
<path stroke="#FFA500" d="M450 39l45 0"/>
<text stroke="none" fill="white" font-size="16" x="505" y="48">
dynamo_i_x10
</text>
<path stroke="#FFA500" d="M60 385l4 0 0 -1 3 0 0 -1 2 0 0 -1 2 0 0 -1 1 0 0 -1 2 0 0 -1 1 0 0 -1 2 0 0 -1 1 0 0 -1 1 0 0 -1 1 0 0 -1 1 0 0 -1 1 0 0 -2 1 0 0 -1 1 0 0 -2 1 0 0 -1 1 -1 0 -1 1 -1 0 -2 1 0 0 -2 1 0 0 -3 1 0 0 -3 1 0 0 -3 1 -1 0 -3"/>
<path stroke="#FFA500" d="M92 347l1 0 0 -4 1 0 0 -4 1 0 0 -4 1 0 0 -4 1 0 0 -5 1 0 0 -4 1 -1 0 -4 1 0 0 -5 1 0 0 -4 1 -1 0 -4 1 0 0 -4 1 0 0 -4 1 -1 0 -3 1 0 0 -4 1 0 0 -3 1 -1 0 -2 1 0 0 -3 1 0 0 -2 1 0 0 -2 1 0 0 -1 1 -1 0 -1 2 0 0 -1 2 0M117 271l0 -1"/>
<path stroke="#FFA500" d="M117 271l1 0M118 272l0 -1M118 272l1 0M119 273l0 -1M119 273l1 0M120 274l0 -1M120 274l1 0M121 276l0 -2M121 276l1 0M122 277l0 -1M122 277l1 0M123 279l0 -2M123 279l1 1M124 282l0 -2M124 282l1 0M125 284l0 -2M125 284l1 0M126 286l0 -2"/>
<path stroke="#FFA500" d="M126 286l1 1M127 289l0 -2M127 289l1 0M128 292l0 -3M128 292l1 0M129 294l0 -2M129 294l1 0M130 297l0 -3M130 297l1 0M131 300l0 -3M131 300l1 0M132 303l0 -3M132 303l1 0M133 305l0 -2M133 305l1 1M134 308l0 -2M134 308l1 1M135 311l0 -2"/>
<path stroke="#FFA500" d="M135 311l1 0M136 314l0 -3M136 314l1 0M137 317l0 -3M137 317l1 0M138 320l0 -3M138 320l1 0M139 323l0 -3M139 323l1 1M140 326l0 -2M140 326l1 1M141 330l0 -3M141 330l1 0M142 333l0 -3M142 333l1 0M143 336l0 -3M143 336l1 1M144 340l0 -3"/>
<path stroke="#FFA500" d="M144 340l1 0M145 343l0 -3M145 343l1 1M146 347l0 -3M146 347l1 0M147 351l0 -4M147 351l1 0M148 354l0 -3M148 354l1 1M149 358l0 -3M149 358l1 0M150 362l0 -4M150 362l1 0M151 366l0 -4M151 366l1 0M152 370l0 -4M152 370l1 0M153 374l0 -4"/>
<path stroke="#FFA500" d="M153 374l1 0M154 377l0 -3M154 377l1 1M155 381l0 -3M155 381l1 0M156 385l0 -4M156 385l1 0M157 387l0 -2M157 387l1 0M158 389l0 -2M158 389l1 0M159 391l0 -2M159 391l1 0M160 393l0 -2M160 393l1 0M161 395l0 -2M161 395l1 0M162 396l0 -1"/>
<path stroke="#FFA500" d="M162 396l1 1M163 398l0 -1M163 398l1 0M164 400l0 -2M164 400l1 1M165 403l0 -2M165 403l1 0M166 405l0 -2M166 405l1 0M167 407l0 -2M167 407l1 0M168 409l0 -2M168 409l1 1M169 412l0 -2M169 412l1 0M170 415l0 -3M170 415l1 0M171 418l0 -3"/>
<path stroke="#FFA500" d="M171 418l1 0M172 421l0 -3M172 421l1 0M173 424l0 -3M173 424l1 1M174 428l0 -3M174 428l1 0M175 432l0 -4M175 432l1 0M176 436l0 -4M176 436l1 0M177 441l0 -5M177 441l1 0M178 445l0 -4M178 445l1 0M179 450l0 -5M179 450l1 0M180 455l0 -5"/>
<path stroke="#FFA500" d="M180 455l1 0M181 460l0 -5M181 460l1 0M182 465l0 -5M182 465l1 0M183 470l0 -5M183 470l1 0M184 475l0 -5M184 475l1 1M185 480l0 -4M185 480l1 1M186 486l0 -5M186 486l1 0M187 491l0 -5M187 491l1 0M188 495l0 -4M188 495l1 0M189 500l0 -5"/>
<path stroke="#FFA500" d="M189 500l1 0M190 504l0 -4M190 504l1 0M191 508l0 -4M191 508l1 0M192 512l0 -4M192 512l1 0M193 515l0 -3M193 515l1 0M194 517l0 -2M194 517l1 1M195 520l0 -2M195 520l1 0M196 522l0 -2M196 522l1 0M197 523l0 -1M197 523l1 0M198 524l0 -1"/>
<path stroke="#FFA500" d="M198 524l3 0 0 -1 1 0 0 -1 1 0 0 -2 1 0 0 -1 1 -1 0 -2 1 0 0 -3 1 0 0 -2 1 -1 0 -3 1 0 0 -3 1 0 0 -4 1 0 0 -4 1 0 0 -4 1 0 0 -4 1 0 0 -4 1 0 0 -5 1 0 0 -4 1 0 0 -4 1 0 0 -4 1 -1 0 -4 1 0 0 -4 1 0 0 -5 1 0 0 -4 1 0 0 -4"/>
<path stroke="#FFA500" d="M223 445l1 0 0 -5 1 0 0 -4 1 -1 0 -4 1 0 0 -4 1 -1 0 -4 1 0 0 -5 1 0 0 -5 1 0 0 -4 1 -1 0 -4 1 0 0 -5 1 0 0 -5 1 0 0 -5 1 0 0 -4 1 0 0 -1 1 0 0 -2 1 0 0 -2 1 0 0 -1 1 0 0 -2 1 0 0 -2 1 0 0 -1 1 -1 0 -1 1 0 0 -2 1 0 0 -2"/>
<path stroke="#FFA500" d="M246 367l1 0 0 -1 1 0 0 -2 1 0 0 -2 1 0 0 -2 1 0 0 -2 1 0 0 -2 1 0 0 -2 1 0 0 -3 1 0 0 -2 1 0 0 -3 1 0 0 -3 1 0 0 -3 1 0 0 -4 1 0 0 -3 1 -1 0 -3 1 0 0 -4 1 -1 0 -4 1 0 0 -4 1 -1 0 -4 1 0 0 -5 1 0 0 -5 1 0 0 -5 1 0 0 -5"/>
<path stroke="#FFA500" d="M269 291l1 0 0 -5 1 0 0 -4 1 -1 0 -4 1 0 0 -5 1 0 0 -4 1 0 0 -4 1 0 0 -4 1 0 0 -3 1 0 0 -3 1 0 0 -2 1 0 0 -2 1 0 0 -1 1 0 0 -1 1 0 0 -1 2 0M285 248l0 -1M285 248l1 0 1 1M287 250l0 -1M287 250l1 0M288 252l0 -2M288 252l1 0"/>
<path stroke="#FFA500" d="M289 254l0 -2M289 254l1 0M290 256l0 -2M290 256l1 1M291 259l0 -2M291 259l1 1M292 263l0 -3M292 263l1 0M293 266l0 -3M293 266l1 0M294 270l0 -4M294 270l1 0M295 274l0 -4M295 274l1 0M296 278l0 -4M296 278l1 0M297 282l0 -4M297 282l1 0"/>
<path stroke="#FFA500" d="M298 287l0 -5M298 287l1 0M299 291l0 -4M299 291l1 0M300 296l0 -5M300 296l1 0M301 300l0 -4M301 300l1 1M302 305l0 -4M302 305l1 0M303 310l0 -5M303 310l1 0M304 315l0 -5M304 315l1 0M305 320l0 -5M305 320l1 0M306 325l0 -5M306 325l1 0"/>
<path stroke="#FFA500" d="M307 330l0 -5M307 330l1 0M308 335l0 -5M308 335l1 0M309 340l0 -5M309 340l1 0M310 346l0 -6M310 346l1 0M311 351l0 -5M311 351l1 0M312 356l0 -5M312 356l1 0M313 362l0 -6M313 362l1 0M314 367l0 -5M314 367l1 1M315 373l0 -5M315 373l1 0"/>
<path stroke="#FFA500" d="M316 378l0 -5M316 378l1 1M317 384l0 -5M317 384l1 0M318 386l0 -2M318 386l1 0M319 388l0 -2M319 388l1 0M320 389l0 -1M320 389l1 0M321 390l0 -1M321 390l1 0M322 392l0 -2M322 392l1 0M323 393l0 -1M323 393l1 1M324 395l0 -1M324 395l1 0"/>
<path stroke="#FFA500" d="M325 396l0 -1M325 396l1 1M326 398l0 -1M326 398l1 0M327 400l0 -2M327 400l1 0M328 401l0 -1M328 401l1 0M329 403l0 -2M329 403l1 0M330 404l0 -1M330 404l1 0M331 406l0 -2M331 406l1 0M332 407l0 -1M332 407l1 0M333 409l0 -2M333 409l1 0"/>
<path stroke="#FFA500" d="M334 411l0 -2M334 411l1 0M335 413l0 -2M335 413l1 0M336 414l0 -1M336 414l1 1M337 416l0 -1M337 416l1 0M338 419l0 -3M338 419l1 0M339 421l0 -2M339 421l1 0M340 423l0 -2M340 423l1 0M341 426l0 -3M341 426l1 0M342 429l0 -3M342 429l1 0"/>
<path stroke="#FFA500" d="M343 432l0 -3M343 432l1 0M344 436l0 -4M344 436l1 0M345 439l0 -3M345 439l1 0M346 443l0 -4M346 443l1 0M347 447l0 -4M347 447l1 0M348 451l0 -4M348 451l1 1M349 456l0 -4M349 456l1 0M350 460l0 -4M350 460l1 1M351 465l0 -4M351 465l1 0"/>
<path stroke="#FFA500" d="M352 470l0 -5M352 470l1 0M353 475l0 -5M353 475l1 0M354 480l0 -5M354 480l1 0M355 485l0 -5M355 485l1 0M356 489l0 -4M356 489l1 0M357 494l0 -5M357 494l1 0M358 498l0 -4M358 498l1 0M359 502l0 -4M359 502l1 0M360 506l0 -4M360 506l1 0"/>
<path stroke="#FFA500" d="M361 510l0 -4M361 510l1 0M362 513l0 -3M362 513l1 0M363 515l0 -2M363 515l1 1M364 518l0 -2M364 518l1 0M365 519l0 -1M365 519l1 1M366 521l0 -1M366 521l1 0M367 522l0 -1M367 522l3 0 0 -1 1 0 0 -1 1 0 0 -1 1 0 0 -2 1 0 0 -2"/>
<path stroke="#FFA500" d="M374 515l1 0 0 -3 1 0 0 -3 1 0 0 -3 1 0 0 -3 1 0 0 -4 1 0 0 -4 1 0 0 -4 1 0 0 -4 1 0 0 -4 1 0 0 -4 1 -1 0 -4 1 0 0 -5 1 0 0 -4 1 -1 0 -4 1 0 0 -5 1 0 0 -4 1 -1 0 -4 1 0 0 -5 1 0 0 -5 1 0 0 -5 1 0 0 -5 1 0 0 -5 1 -1 0 -4"/>
<path stroke="#FFA500" d="M397 416l1 -1 0 -5 1 0 0 -5 1 0 0 -5 1 -1 0 -5 1 0 0 -5 1 -1 0 -3 1 0 0 -1 1 0 0 -1 1 0 0 -1 1 -1 0 -1 1 0 0 -1 1 0 0 -1 1 0 0 -1 1 0 0 -1 1 0 0 -2 1 0 0 -1 1 0 0 -1 1 0 0 -1 1 0 0 -2 1 0 0 -1 1 0 0 -1 1 0 0 -2 1 0 0 -1"/>
<path stroke="#FFA500" d="M420 364l1 -1 0 -1 1 0 0 -2 1 0 0 -2 1 0 0 -2 1 0 0 -2 1 -1 0 -2 1 0 0 -3 1 0 0 -3 1 0 0 -3 1 0 0 -4 1 0 0 -4 1 0 0 -4 1 0 0 -4 1 0 0 -4 1 -1 0 -4 1 0 0 -5 1 0 0 -4 1 -1 0 -4 1 0 0 -5 1 0 0 -5 1 0 0 -4 1 -1 0 -4 1 0"/>
<path stroke="#FFA500" d="M443 284l0 -4 1 -1 0 -3 1 -1 0 -3 1 -1 0 -3 1 0 0 -3 1 0 0 -3 1 0 0 -2 1 0 0 -2 1 0 0 -1 1 0 0 -1 1 0 0 -1 1 0M454 256l0 -1M454 256l2 0M456 257l0 -1M456 257l1 0M457 258l0 -1M457 258l1 0M458 260l0 -2M458 260l1 0M459 262l0 -2"/>
<path stroke="#FFA500" d="M459 262l1 0M460 265l0 -3M460 265l1 0M461 267l0 -2M461 267l1 1M462 271l0 -3M462 271l1 0M463 274l0 -3M463 274l1 0M464 277l0 -3M464 277l1 1M465 281l0 -3M465 281l1 0M466 285l0 -4M466 285l1 0M467 289l0 -4M467 289l1 0M468 293l0 -4"/>
<path stroke="#FFA500" d="M468 293l1 0M469 297l0 -4M469 297l1 1M470 302l0 -4M470 302l1 0M471 306l0 -4M471 306l1 0M472 310l0 -4M472 310l1 1M473 315l0 -4M473 315l1 0M474 319l0 -4M474 319l1 1M475 324l0 -4M475 324l1 0M476 328l0 -4M476 328l1 1M477 333l0 -4"/>
<path stroke="#FFA500" d="M477 333l1 1M478 338l0 -4M478 338l1 0M479 343l0 -5M479 343l1 0M480 348l0 -5M480 348l1 0M481 353l0 -5M481 353l1 0M482 358l0 -5M482 358l1 0M483 363l0 -5M483 363l1 0M484 368l0 -5M484 368l1 0M485 373l0 -5M485 373l1 1M486 378l0 -4"/>
<path stroke="#FFA500" d="M486 378l1 1M487 384l0 -5M487 384l1 0M488 386l0 -2M488 386l2 0M490 387l0 -1M490 387l1 0M491 388l0 -1M491 388l1 0M492 389l0 -1M492 389l1 0M493 390l0 -1M493 390l1 0M494 391l0 -1M494 391l1 0M495 392l0 -1M495 392l1 0M496 393l0 -1"/>
<path stroke="#FFA500" d="M496 393l1 0M497 394l0 -1M497 394l1 0M498 395l0 -1M498 395l1 0M499 396l0 -1M499 396l1 1M500 398l0 -1M500 398l1 0M501 399l0 -1M501 399l1 0M502 400l0 -1M502 400l1 0M503 401l0 -1M503 401l1 0M504 403l0 -2M504 403l1 0M505 404l0 -1"/>
<path stroke="#FFA500" d="M505 404l1 0M506 406l0 -2M506 406l1 0M507 408l0 -2M507 408l1 0M508 409l0 -1M508 409l1 0M509 411l0 -2M509 411l1 1M510 414l0 -2M510 414l1 0M511 416l0 -2M511 416l1 0M512 419l0 -3M512 419l1 0M513 422l0 -3M513 422l1 0M514 425l0 -3"/>
<path stroke="#FFA500" d="M514 425l1 0M515 429l0 -4M515 429l1 0M516 433l0 -4M516 433l1 0M517 436l0 -3M517 436l1 1M518 441l0 -4M518 441l1 0M519 445l0 -4M519 445l1 0M520 450l0 -5M520 450l1 0M521 454l0 -4M521 454l1 1M522 459l0 -4M522 459l1 0M523 464l0 -5"/>
<path stroke="#FFA500" d="M523 464l1 0M524 469l0 -5M524 469l1 0M525 473l0 -4M525 473l1 1M526 478l0 -4M526 478l1 0M527 483l0 -5M527 483l1 0M528 487l0 -4M528 487l1 0M529 491l0 -4M529 491l1 0M530 495l0 -4M530 495l1 0M531 498l0 -3M531 498l1 0M532 501l0 -3"/>
<path stroke="#FFA500" d="M532 501l1 0M533 504l0 -3M533 504l1 0M534 506l0 -2M534 506l1 0M535 508l0 -2M535 508l1 0M536 509l0 -1M536 509l1 0M537 510l0 -1M537 510l4 0 0 -1 1 0 0 -2 1 0 0 -2 1 0 0 -2 1 0 0 -2 1 0 0 -3 1 0 0 -3 1 0 0 -3 1 -1 0 -3"/>
<path stroke="#FFA500" d="M549 488l1 0 0 -4 1 0 0 -3 1 -1 0 -3 1 0 0 -4 1 -1 0 -4 1 0 0 -4 1 0 0 -4 1 0 0 -4 1 -1 0 -4 1 0 0 -4 1 0 0 -5 1 0 0 -4 1 0 0 -5 1 0 0 -5 1 0 0 -4 1 -1 0 -4 1 0 0 -5 1 0 0 -5 1 0 0 -5 1 0 0 -5 1 0 0 -5 1 0 0 -5 1 0 0 -4"/>
<path stroke="#FFA500" d="M572 385l1 0 0 -1 1 0 0 -1 2 0 0 -1 1 0 0 -1 1 0 0 -1 1 0 0 -1 1 0 0 -1 1 0 0 -1 1 0 0 -1 1 0 0 -1 1 0 0 -1 1 0 0 -1 1 0 0 -1 1 0 0 -1 1 0 0 -2 1 0 0 -1 1 0 0 -1 1 0 0 -2 1 0 0 -2 1 0 0 -2 1 0 0 -2 1 0 0 -2 1 0 0 -2"/>
<path stroke="#FFA500" d="M596 355l1 -1 0 -2 1 0 0 -3 1 0 0 -3 1 -1 0 -3 1 0 0 -4 1 0 0 -4 1 0 0 -4 1 0 0 -4 1 -1 0 -4 1 0 0 -4 1 -1 0 -4 1 -1 0 -4 1 0 0 -5 1 0 0 -5 1 0 0 -4 1 -1 0 -4 1 0 0 -4 1 0 0 -4 1 0 0 -3 1 -1 0 -3 1 0 0 -3 1 0 0 -2 1 0"/>
<path stroke="#FFA500" d="M619 268l0 -3 1 0 0 -1 1 0 0 -1 1 -1 1 0 0 -1 1 0M624 262l0 -1M624 262l2 0M626 263l0 -1M626 263l1 0M627 265l0 -2M627 265l1 0M628 267l0 -2M628 267l1 0M629 269l0 -2M629 269l1 0M630 271l0 -2M630 271l1 1M631 274l0 -2M631 274l1 0"/>
<path stroke="#FFA500" d="M632 277l0 -3M632 277l1 0M633 281l0 -4M633 281l1 0M634 284l0 -3M634 284l1 0M635 288l0 -4M635 288l1 0M636 292l0 -4M636 292l1 0M637 295l0 -3M637 295l1 1M638 300l0 -4M638 300l1 0M639 304l0 -4M639 304l1 0M640 308l0 -4M640 308l1 0"/>
<path stroke="#FFA500" d="M641 312l0 -4M641 312l1 0M642 317l0 -5M642 317l1 0M643 321l0 -4M643 321l1 0M644 325l0 -4M644 325l1 1M645 330l0 -4M645 330l1 0M646 334l0 -4M646 334l1 1M647 339l0 -4M647 339l1 0M648 344l0 -5M648 344l1 0M649 348l0 -4M649 348l1 1"/>
<path stroke="#FFA500" d="M650 353l0 -4M650 353l1 0M651 358l0 -5M651 358l1 0M652 363l0 -5M652 363l1 0M653 368l0 -5M653 368l1 0M654 373l0 -5M654 373l1 0M655 378l0 -5M655 378l1 0M656 383l0 -5M656 383l1 0M657 385l0 -2M657 385l1 1 1 0M659 387l0 -1"/>
<path stroke="#FFA500" d="M659 387l1 0M660 388l0 -1M660 388l2 0M662 389l0 -1M662 389l1 0M663 390l0 -1M663 390l1 0M664 391l0 -1M664 391l1 0M665 392l0 -1M665 392l1 0M666 393l0 -1M666 393l1 0M667 394l0 -1M667 394l1 0M668 395l0 -1M668 395l1 0M669 396l0 -1"/>
<path stroke="#FFA500" d="M669 396l1 0M670 397l0 -1M670 397l1 0M671 398l0 -1M671 398l1 0M672 399l0 -1M672 399l1 0M673 401l0 -2M673 401l1 0M674 402l0 -1M674 402l1 0M675 403l0 -1M675 403l1 0M676 405l0 -2M676 405l1 0M677 407l0 -2M677 407l1 0M678 409l0 -2"/>
<path stroke="#FFA500" d="M678 409l1 0M679 411l0 -2M679 411l1 0M680 413l0 -2M680 413l1 0M681 416l0 -3M681 416l1 0M682 418l0 -2M682 418l1 0M683 421l0 -3M683 421l1 0M684 425l0 -4M684 425l1 0M685 428l0 -3M685 428l1 0M686 432l0 -4M686 432l1 0M687 436l0 -4"/>
<path stroke="#FFA500" d="M687 436l1 0M688 440l0 -4M688 440l1 0M689 445l0 -5M689 445l1 0M690 449l0 -4M690 449l1 0M691 454l0 -5M691 454l1 0M692 458l0 -4M692 458l1 1M693 463l0 -4M693 463l1 1M694 468l0 -4M694 468l1 0M695 473l0 -5M695 473l1 0M696 477l0 -4"/>
<path stroke="#FFA500" d="M696 477l1 1M697 482l0 -4M697 482l1 0M698 486l0 -4M698 486l1 0M699 490l0 -4M699 490l1 0M700 494l0 -4M700 494l1 0M701 497l0 -3M701 497l1 0M702 500l0 -3M702 500l1 0M703 502l0 -2M703 502l1 0M704 504l0 -2M704 504l1 0M705 506l0 -2"/>
<path stroke="#FFA500" d="M705 506l1 0M706 507l0 -1M706 507l1 0M707 508l0 -1M707 508l3 0 0 -1 1 0 0 -1 1 0 0 -2 1 0 0 -2 1 0 0 -2 1 0 0 -3 1 0 0 -2 1 0 0 -3 1 -1 0 -3 1 0 0 -3 1 -1 0 -3 1 0 0 -4 1 0 0 -4 1 0 0 -4 1 0 0 -4 1 0 0 -4 1 -1 0 -3 1 -1"/>
<path stroke="#FFA500" d="M727 456l0 -4 1 0 0 -4 1 -1 0 -4 1 0 0 -4 1 0 0 -5 1 0 0 -4 1 0 0 -5 1 0 0 -5 1 0 0 -4 1 0 0 -5 1 0 0 -5 1 0 0 -5 1 0 0 -5 1 0 0 -5 1 0 0 -5 1 -1 0 -1 2 0 0 -1 1 0 0 -1 1 0 1 -1 1 0 0 -1 1 0 0 -1 1 0 0 -1 1 0 0 -1 1 0"/>
<path stroke="#FFA500" d="M752 377l0 -1 1 0 0 -1 1 0 0 -1 1 0 0 -1 1 0 0 -1 1 0 0 -1 1 0 0 -2 1 0 0 -1 1 0 0 -1 1 -1 0 -1 1 0 0 -2 1 0 0 -2 1 0 0 -2 1 0 0 -2 1 0 0 -3 1 0 0 -3 1 0 0 -3 1 0 0 -3 1 0 0 -3 1 -1 0 -3 1 -1 0 -3 1 -1 0 -4 1 0 0 -4"/>
<path stroke="#FFA500" d="M774 325l1 0 0 -5 1 0 0 -4 1 -1 0 -4 1 0 0 -5 1 0 0 -5 1 0 0 -4 1 0 0 -5 1 0 0 -4 1 -1 0 -3 1 -1 0 -3 1 0 0 -4 1 0 0 -3 1 0 0 -3 1 0 0 -2 1 0 0 -2 1 0 0 -2 1 0 0 -1 2 0 0 -1 1 0M794 263l0 -1M794 263l1 0M795 264l0 -1"/>
<path stroke="#FFA500" d="M795 264l1 0M796 265l0 -1M796 265l1 0M797 266l0 -1M797 266l1 0M798 268l0 -2M798 268l1 0M799 271l0 -3M799 271l1 0M800 273l0 -2M800 273l1 0M801 276l0 -3M801 276l1 0M802 279l0 -3M802 279l1 0M803 283l0 -4M803 283l1 0M804 286l0 -3"/>
<path stroke="#FFA500" d="M804 286l1 0M805 290l0 -4M805 290l1 0M806 294l0 -4M806 294l1 0M807 298l0 -4M807 298l1 0M808 302l0 -4M808 302l1 0M809 306l0 -4M809 306l1 0M810 310l0 -4M810 310l1 1M811 314l0 -3M811 314l1 1M812 319l0 -4M812 319l1 0M813 323l0 -4"/>
<path stroke="#FFA500" d="M813 323l1 0M814 328l0 -5M814 328l1 0M815 332l0 -4M815 332l1 0M816 337l0 -5M816 337l1 0M817 341l0 -4M817 341l1 1M818 346l0 -4M818 346l1 0M819 351l0 -5M819 351l1 0M820 355l0 -4M820 355l1 1M821 360l0 -4M821 360l1 0M822 365l0 -5"/>
<path stroke="#FFA500" d="M822 365l1 0M823 370l0 -5M823 370l1 0M824 375l0 -5M824 375l1 0M825 380l0 -5M825 380l1 0M826 385l0 -5M826 385l1 0M827 386l0 -1M827 386l2 0M829 387l0 -1M829 387l1 0M830 388l0 -1M830 388l1 0M831 389l0 -1M831 389l2 0M833 390l0 -1"/>
<path stroke="#FFA500" d="M833 390l1 0M834 391l0 -1M834 391l1 0M835 392l0 -1M835 392l1 0M836 393l0 -1M836 393l1 0M837 394l0 -1M837 394l1 0M838 395l0 -1M838 395l1 0M839 396l0 -1M839 396l1 0M840 397l0 -1M840 397l1 0M841 398l0 -1M841 398l1 0M842 400l0 -2"/>
<path stroke="#FFA500" d="M842 400l1 0M843 401l0 -1M843 401l1 0M844 402l0 -1M844 402l1 0M845 404l0 -2M845 404l1 0M846 405l0 -1M846 405l1 0M847 407l0 -2M847 407l1 0M848 409l0 -2M848 409l1 0M849 411l0 -2M849 411l1 0M850 413l0 -2M850 413l1 1M851 416l0 -2"/>
<path stroke="#FFA500" d="M851 416l1 0M852 419l0 -3M852 419l1 0M853 422l0 -3M853 422l1 0M854 425l0 -3M854 425l1 1M855 429l0 -3M855 429l1 0M856 433l0 -4M856 433l1 0M857 437l0 -4M857 437l1 0M858 441l0 -4M858 441l1 1M859 446l0 -4M859 446l1 0M860 450l0 -4"/>
<path stroke="#FFA500" d="M860 450l1 1M861 455l0 -4M861 455l1 0M862 460l0 -5M862 460l1 0M863 465l0 -5M863 465l1 0M864 469l0 -4M864 469l1 1M865 474l0 -4M865 474l1 0M866 478l0 -4M866 478l1 1M867 483l0 -4M867 483l1 0M868 487l0 -4M868 487l1 0M869 491l0 -4"/>
<path stroke="#FFA500" d="M869 491l1 0M870 494l0 -3M870 494l1 0M871 497l0 -3M871 497l1 1M872 500l0 -2M872 500l1 0M873 503l0 -3M873 503l1 0M874 504l0 -1M874 504l1 1M875 506l0 -1M875 506l1 0M876 507l0 -1M876 507l4 0 0 -1 1 0 0 -1 1 0 0 -2 1 0 0 -2"/>
<path stroke="#FFA500" d="M883 501l1 0 0 -2 1 0 0 -3 1 0 0 -3 1 0 0 -3 1 0 0 -3 1 0 0 -4 1 0 0 -4 1 0 0 -3 1 -1 0 -4 1 0 0 -4 1 0 0 -4 1 0 0 -4 1 0 0 -4 1 -1 0 -4 1 0 0 -4 1 0 0 -4 1 -1 0 -4 1 0 0 -4 1 -1 0 -4 1 0 0 -5 1 0 0 -4 1 -1 0 -4 1 -1"/>
<path stroke="#FFA500" d="M906 413l0 -4 1 0 0 -5 1 0 0 -4"/>
<path stroke="green" d="M60 39l45 0"/>
<text stroke="none" fill="white" font-size="16" x="115" y="48">
out
</text>
<path stroke="green" d="M60 385l20 0 0 -1 8 0 0 -1 5 0 0 -1 3 0 0 -1 2 0 0 -1 2 0 1 -1 1 0 0 -1 2 0 0 -1 2 0 0 -1 1 0 0 -1 1 0 0 -1 1 0 0 -1 1 0 0 -1 1 0 0 -2 1 0 0 -1 1 0 0 -1 1 0 0 -2 1 0 0 -1 1 0 0 -2 1 0 0 -1 1 0 0 -1 1 -1 0 -1 1 0 0 -1 1 0"/>
<path stroke="green" d="M121 358l0 -2 1 0 0 -1 1 0 0 -1 1 0 0 -2 1 0 0 -1 1 0 0 -1 1 0 0 -1 1 0 0 -2 1 0 0 -1 1 0 0 -1 1 0 0 -1 1 0 0 -1 1 0 0 -1 1 0 0 -1 1 0 0 -1 1 0 0 -1 1 0 0 -1 1 0 0 -1 2 0 0 -1 1 0 0 -1 1 0 0 -1 2 0 0 -1 2 0 0 -1 2 0 0 -1"/>
<path stroke="green" d="M148 331l3 0 0 -1 5 0 0 -1 11 0 0 -1 5 0 1 -1 3 0 0 -1 3 0 0 -1 2 0 0 -1 2 0 0 -1 1 0 0 -1 2 0 0 -1 1 0 0 -1 2 0 0 -1 1 0 0 -1 1 0 0 -1 1 0 0 -1 2 0 0 -1 1 0 0 -1 1 0 0 -1 1 0 0 -1 1 0 0 -1 1 0 0 -1 1 0 0 -1 1 0 0 -1 1 0"/>
<path stroke="green" d="M202 308l0 -1 1 0 0 -1 1 0 0 -1 1 0 0 -1 2 0 0 -1 1 0 0 -1 1 0 0 -1 1 0 0 -1 1 0 0 -1 1 0 0 -1 1 0 0 -1 1 0 0 -1 1 0 0 -1 1 0 0 -1 1 0 0 -1 1 0 0 -1 1 0 0 -1 1 0 0 -1 1 0 0 -1 1 0 0 -1 1 0 0 -1 2 0 0 -1 1 0 0 -1 2 0 0 -1"/>
<path stroke="green" d="M228 284l2 0 0 -1 4 0 0 -1 12 0 0 -1 7 0 0 -1 4 0 0 -1 3 0 0 -1 3 0 0 -1 2 0 0 -1 2 0 0 -1 2 0 0 -1 1 0 0 -1 2 0 0 -1 1 0 0 -1 1 0 0 -1 2 0 0 -1 1 0 0 -1 1 0 0 -1 1 0 0 -1 1 0 0 -1 1 0 0 -1 1 0 0 -1 1 0 0 -1 1 0 0 -1 2 0"/>
<path stroke="green" d="M286 261l0 -1 1 0 0 -1 1 0 0 -1 1 0 0 -1 1 0 0 -1 1 0 0 -1 1 0 0 -1 2 0 0 -1 1 0 0 -1 1 0 0 -1 2 0 0 -1 1 0 0 -1 2 0 0 -1 2 0 0 -1 2 0 0 -1 3 0 0 -1 5 0 0 -1 24 0 0 -1M337 244l1 -1M338 244l0 -1 5 0 0 -1M343 243l1 -1 3 0"/>
<path stroke="green" d="M347 242l0 -1 3 0 0 -1 3 0 0 -1 2 0 0 -1 2 0 0 -1 2 0 0 -1 2 0 0 -1 2 0 1 -1M364 235l0 -1 2 0 0 -1 3 0 0 -1 3 0 0 -1 16 0M388 232l0 -1M388 232l5 0M393 233l0 -1M393 233l3 0M396 234l0 -1M396 234l1 -1M397 234l0 -1M397 234l3 0"/>
<path stroke="green" d="M400 235l0 -1M400 235l3 0M403 236l0 -1M403 236l2 0 1 1 0 -1M406 237l3 0M409 238l0 -1M409 238l6 0M415 239l0 -1M415 239l1 -1M416 239l0 -1M416 239l15 0 0 -1 1 1 0 -1 5 0 0 -1 3 0 0 -1 3 0 0 -1 3 0 0 -1 3 0 0 -1 3 0 0 -1 4 0"/>
<path stroke="green" d="M456 232l0 -1 1 1 0 -1 14 0M471 232l0 -1M471 232l1 -1M472 232l0 -1M472 232l5 0M477 233l0 -1M477 233l3 0 1 1 0 -1M481 234l3 0M484 235l0 -1M484 235l3 0M487 236l0 -1M487 236l3 0M490 237l0 -1M490 237l4 0M494 238l0 -1M494 238l5 0"/>
<path stroke="green" d="M499 239l0 -1 1 1 18 0 0 -1 1 1 0 -1 4 0 0 -1 3 0 0 -1 3 0 0 -1 3 0 0 -1 3 0 0 -1 3 0 0 -1 1 1 0 -1 4 0 0 -1 1 1 0 -1 10 0M554 232l0 -1M554 232l6 0M560 233l0 -1M560 233l4 0M564 234l0 -1 1 1 0 -1M565 234l3 0M568 235l0 -1"/>
<path stroke="green" d="M568 235l3 0M571 236l0 -1M571 236l3 0M574 237l0 -1M574 237l4 0M578 238l0 -1M578 238l5 0M583 239l0 -1 1 1 20 0 0 -1 4 0 0 -1 3 0 0 -1M611 237l1 -1M612 237l0 -1 2 0 0 -1 1 1 0 -1 2 0 0 -1 3 0 0 -1 4 0 0 -1 5 0 0 -1M629 232l1 -1"/>
<path stroke="green" d="M630 232l0 -1 7 0 1 1 0 -1M638 232l6 0M644 233l0 -1 1 1 0 -1M645 233l4 0M649 234l0 -1M649 234l3 0 1 1 0 -1M653 235l3 0M656 236l0 -1M656 236l3 0M659 237l0 -1M659 237l3 0M662 238l0 -1M662 238l1 -1M663 238l0 -1M663 238l5 0"/>
<path stroke="green" d="M668 239l0 -1M668 239l21 0 0 -1 4 0 0 -1 3 0 0 -1 1 1 0 -1 2 0 0 -1M699 236l1 -1 2 0 0 -1 3 0 0 -1 4 0 0 -1 5 0 0 -1 1 1 0 -1 7 0M722 232l0 -1 1 1 0 -1M723 232l6 0M729 233l0 -1M729 233l5 0M734 234l0 -1M734 234l3 0M737 235l0 -1"/>
<path stroke="green" d="M737 235l3 0M740 236l0 -1 1 1 2 0M743 237l0 -1M743 237l4 0M747 238l0 -1M747 238l5 0M752 239l0 -1 1 1 0 -1M753 239l21 0 0 -1 4 0 0 -1 3 0 0 -1M781 237l1 -1 2 0 0 -1 3 0 0 -1 3 0 0 -1 4 0 0 -1 5 0 0 -1M799 232l1 -1M800 232l0 -1"/>
<path stroke="green" d="M800 231l6 0M806 232l0 -1M806 232l1 -1M807 232l0 -1M807 232l7 0M814 233l0 -1M814 233l4 0M818 234l0 -1M818 234l1 -1M819 234l0 -1M819 234l3 0M822 235l0 -1M822 235l3 0M825 236l0 -1M825 236l3 0M828 237l0 -1M828 237l4 0M832 238l0 -1"/>
<path stroke="green" d="M832 238l5 0M837 239l0 -1 1 1 0 -1M838 239l20 0 1 -1M859 239l0 -1 4 0 0 -1 3 0 0 -1 3 0 0 -1 3 0 0 -1 3 0 0 -1 3 0 1 -1M879 233l0 -1 5 0 0 -1M884 232l1 -1M885 232l0 -1 6 0M891 232l0 -1 1 1 0 -1M892 232l7 0M899 233l0 -1"/>
<path stroke="green" d="M899 233l4 0M903 234l0 -1M903 234l4 0M907 235l0 -1M907 235l1 0"/>
</svg>
